STARTFONT 2.1
FONT -Untitled-Regular-R-Regular--16-16-75-75-c-80-iso10646-1
SIZE 16 75 75
FONTBOUNDINGBOX 8 16 0 -2
STARTPROPERTIES 9
FAMILY_NAME "Untitled"
WEIGHT_NAME "Regular"
FONT_VERSION "Version 1.0"
FOUNDRY "Made with Bits'n'Picas by Kreative Software"
FONT_ASCENT 14
FONT_DESCENT 2
POINT_SIZE 16
X_HEIGHT 2
CAP_HEIGHT 9
ENDPROPERTIES
CHARS 254
STARTCHAR U+0021
ENCODING 33
SWIDTH 1000 0
DWIDTH 8 0
BBX 4 11 2 1
BITMAP
60
F0
F0
F0
F0
60
60
60
00
60
60
ENDCHAR
STARTCHAR U+0022
ENCODING 34
SWIDTH 1000 0
DWIDTH 8 0
BBX 6 4 1 9
BITMAP
CC
CC
CC
48
ENDCHAR
STARTCHAR U+0023
ENCODING 35
SWIDTH 1000 0
DWIDTH 8 0
BBX 7 11 0 1
BITMAP
6C
6C
6C
FE
6C
6C
6C
FE
6C
6C
6C
ENDCHAR
STARTCHAR U+0024
ENCODING 36
SWIDTH 1000 0
DWIDTH 8 0
BBX 7 14 0 0
BITMAP
10
10
7C
D6
D0
D0
7C
16
16
16
D6
7C
10
10
ENDCHAR
STARTCHAR U+0025
ENCODING 37
SWIDTH 1000 0
DWIDTH 8 0
BBX 8 9 0 2
BITMAP
C1
C3
06
0C
18
30
60
C3
83
ENDCHAR
STARTCHAR U+0026
ENCODING 38
SWIDTH 1000 0
DWIDTH 8 0
BBX 7 11 0 1
BITMAP
38
6C
6C
6C
38
76
DC
CC
CC
CC
76
ENDCHAR
STARTCHAR U+0027
ENCODING 39
SWIDTH 1000 0
DWIDTH 8 0
BBX 3 4 1 9
BITMAP
60
60
60
C0
ENDCHAR
STARTCHAR U+0028
ENCODING 40
SWIDTH 1000 0
DWIDTH 8 0
BBX 5 11 2 1
BITMAP
38
60
C0
C0
C0
C0
C0
C0
C0
60
38
ENDCHAR
STARTCHAR U+0029
ENCODING 41
SWIDTH 1000 0
DWIDTH 8 0
BBX 5 11 1 1
BITMAP
E0
30
18
18
18
18
18
18
18
30
E0
ENDCHAR
STARTCHAR U+002A
ENCODING 42
SWIDTH 1000 0
DWIDTH 8 0
BBX 8 7 0 2
BITMAP
42
24
18
FF
18
24
42
ENDCHAR
STARTCHAR U+002B
ENCODING 43
SWIDTH 1000 0
DWIDTH 8 0
BBX 7 7 0 2
BITMAP
10
10
10
FE
10
10
10
ENDCHAR
STARTCHAR U+002C
ENCODING 44
SWIDTH 1000 0
DWIDTH 8 0
BBX 3 4 2 0
BITMAP
60
60
60
C0
ENDCHAR
STARTCHAR U+002D
ENCODING 45
SWIDTH 1000 0
DWIDTH 8 0
BBX 7 1 0 5
BITMAP
FE
ENDCHAR
STARTCHAR U+002E
ENCODING 46
SWIDTH 1000 0
DWIDTH 8 0
BBX 2 2 3 1
BITMAP
C0
C0
ENDCHAR
STARTCHAR U+002F
ENCODING 47
SWIDTH 1000 0
DWIDTH 8 0
BBX 8 9 0 1
BITMAP
01
03
06
0C
18
30
60
C0
80
ENDCHAR
STARTCHAR U+0030
ENCODING 48
SWIDTH 1000 0
DWIDTH 8 0
BBX 7 11 0 1
BITMAP
38
6C
C6
C6
CE
D6
E6
C6
C6
6C
38
ENDCHAR
STARTCHAR U+0031
ENCODING 49
SWIDTH 1000 0
DWIDTH 8 0
BBX 6 11 1 1
BITMAP
30
70
B0
30
30
30
30
30
30
B4
FC
ENDCHAR
STARTCHAR U+0032
ENCODING 50
SWIDTH 1000 0
DWIDTH 8 0
BBX 7 11 0 1
BITMAP
7C
C6
86
C6
0C
18
30
60
C2
C6
FE
ENDCHAR
STARTCHAR U+0033
ENCODING 51
SWIDTH 1000 0
DWIDTH 8 0
BBX 7 11 0 1
BITMAP
7C
C6
86
06
26
3C
26
06
86
C6
7C
ENDCHAR
STARTCHAR U+0034
ENCODING 52
SWIDTH 1000 0
DWIDTH 8 0
BBX 8 11 0 1
BITMAP
0C
1C
2C
4C
CC
CD
FF
0C
0C
0C
1E
ENDCHAR
STARTCHAR U+0035
ENCODING 53
SWIDTH 1000 0
DWIDTH 8 0
BBX 7 11 0 1
BITMAP
FE
C2
C0
C0
FC
06
06
06
C6
C6
7C
ENDCHAR
STARTCHAR U+0036
ENCODING 54
SWIDTH 1000 0
DWIDTH 8 0
BBX 7 11 0 1
BITMAP
3C
62
C0
C0
C0
FC
C6
D6
C6
C6
7C
ENDCHAR
STARTCHAR U+0037
ENCODING 55
SWIDTH 1000 0
DWIDTH 8 0
BBX 7 11 0 1
BITMAP
FE
86
06
06
06
0C
18
30
30
30
30
ENDCHAR
STARTCHAR U+0038
ENCODING 56
SWIDTH 1000 0
DWIDTH 8 0
BBX 7 11 0 1
BITMAP
7C
C6
D6
C6
C6
7C
C6
D6
C6
C6
7C
ENDCHAR
STARTCHAR U+0039
ENCODING 57
SWIDTH 1000 0
DWIDTH 8 0
BBX 7 11 0 1
BITMAP
7C
C6
D6
C6
C6
7E
06
06
06
0C
78
ENDCHAR
STARTCHAR U+003A
ENCODING 58
SWIDTH 1000 0
DWIDTH 8 0
BBX 2 7 3 2
BITMAP
C0
C0
00
00
00
C0
C0
ENDCHAR
STARTCHAR U+003B
ENCODING 59
SWIDTH 1000 0
DWIDTH 8 0
BBX 3 8 2 1
BITMAP
60
60
00
00
00
60
60
C0
ENDCHAR
STARTCHAR U+003C
ENCODING 60
SWIDTH 1000 0
DWIDTH 8 0
BBX 6 9 1 1
BITMAP
0C
18
30
60
C0
60
30
18
0C
ENDCHAR
STARTCHAR U+003D
ENCODING 61
SWIDTH 1000 0
DWIDTH 8 0
BBX 6 4 1 4
BITMAP
FC
00
00
FC
ENDCHAR
STARTCHAR U+003E
ENCODING 62
SWIDTH 1000 0
DWIDTH 8 0
BBX 6 9 1 1
BITMAP
C0
60
30
18
0C
18
30
60
C0
ENDCHAR
STARTCHAR U+003F
ENCODING 63
SWIDTH 1000 0
DWIDTH 8 0
BBX 7 11 0 1
BITMAP
7C
C6
C6
46
0C
18
30
30
00
30
30
ENDCHAR
STARTCHAR U+0040
ENCODING 64
SWIDTH 1000 0
DWIDTH 8 0
BBX 7 10 0 1
BITMAP
7C
C6
C6
DE
D6
D6
DE
DC
C0
7C
ENDCHAR
STARTCHAR U+0041
ENCODING 65
SWIDTH 1000 0
DWIDTH 8 0
BBX 7 11 0 1
BITMAP
10
38
6C
C6
C6
C6
FE
C6
C6
C6
C6
ENDCHAR
STARTCHAR U+0042
ENCODING 66
SWIDTH 1000 0
DWIDTH 8 0
BBX 7 11 0 1
BITMAP
FC
66
66
66
66
7C
66
66
66
66
FC
ENDCHAR
STARTCHAR U+0043
ENCODING 67
SWIDTH 1000 0
DWIDTH 8 0
BBX 7 11 0 1
BITMAP
3C
66
C2
C0
C0
C0
C0
C0
C2
66
3C
ENDCHAR
STARTCHAR U+0044
ENCODING 68
SWIDTH 1000 0
DWIDTH 8 0
BBX 7 11 0 1
BITMAP
F8
64
66
66
66
66
66
66
66
64
F8
ENDCHAR
STARTCHAR U+0045
ENCODING 69
SWIDTH 1000 0
DWIDTH 8 0
BBX 7 11 0 1
BITMAP
FE
66
62
62
68
78
68
62
62
66
FE
ENDCHAR
STARTCHAR U+0046
ENCODING 70
SWIDTH 1000 0
DWIDTH 8 0
BBX 7 11 0 1
BITMAP
FE
66
62
62
68
78
68
60
60
60
F0
ENDCHAR
STARTCHAR U+0047
ENCODING 71
SWIDTH 1000 0
DWIDTH 8 0
BBX 7 11 0 1
BITMAP
3C
66
C6
C2
C0
C0
DE
C6
C6
66
3A
ENDCHAR
STARTCHAR U+0048
ENCODING 72
SWIDTH 1000 0
DWIDTH 8 0
BBX 7 11 0 1
BITMAP
C6
C6
C6
C6
C6
FE
C6
C6
C6
C6
C6
ENDCHAR
STARTCHAR U+0049
ENCODING 73
SWIDTH 1000 0
DWIDTH 8 0
BBX 6 11 1 1
BITMAP
FC
B4
30
30
30
30
30
30
30
B4
FC
ENDCHAR
STARTCHAR U+004A
ENCODING 74
SWIDTH 1000 0
DWIDTH 8 0
BBX 7 11 0 1
BITMAP
3E
2C
0C
0C
0C
0C
0C
CC
CC
CC
78
ENDCHAR
STARTCHAR U+004B
ENCODING 75
SWIDTH 1000 0
DWIDTH 8 0
BBX 7 11 0 1
BITMAP
E6
66
66
66
6C
78
78
6C
66
66
E6
ENDCHAR
STARTCHAR U+004C
ENCODING 76
SWIDTH 1000 0
DWIDTH 8 0
BBX 7 11 0 1
BITMAP
F0
60
60
60
60
60
60
62
62
66
FE
ENDCHAR
STARTCHAR U+004D
ENCODING 77
SWIDTH 1000 0
DWIDTH 8 0
BBX 7 11 0 1
BITMAP
C6
EE
FE
FE
D6
D6
C6
C6
C6
C6
C6
ENDCHAR
STARTCHAR U+004E
ENCODING 78
SWIDTH 1000 0
DWIDTH 8 0
BBX 7 11 0 1
BITMAP
C6
E6
F6
FE
DE
CE
C6
C6
C6
C6
C6
ENDCHAR
STARTCHAR U+004F
ENCODING 79
SWIDTH 1000 0
DWIDTH 8 0
BBX 7 11 0 1
BITMAP
7C
C6
C6
C6
C6
C6
C6
C6
C6
C6
7C
ENDCHAR
STARTCHAR U+0050
ENCODING 80
SWIDTH 1000 0
DWIDTH 8 0
BBX 7 11 0 1
BITMAP
FC
66
66
66
66
7C
60
60
60
60
F0
ENDCHAR
STARTCHAR U+0051
ENCODING 81
SWIDTH 1000 0
DWIDTH 8 0
BBX 7 13 0 -1
BITMAP
7C
C6
C6
C6
C6
C6
C6
D6
D6
DE
7C
0C
0E
ENDCHAR
STARTCHAR U+0052
ENCODING 82
SWIDTH 1000 0
DWIDTH 8 0
BBX 7 11 0 1
BITMAP
FC
66
66
66
66
7C
6C
66
66
66
E6
ENDCHAR
STARTCHAR U+0053
ENCODING 83
SWIDTH 1000 0
DWIDTH 8 0
BBX 7 11 0 1
BITMAP
7C
C6
C6
C2
60
38
0C
86
C6
C6
7C
ENDCHAR
STARTCHAR U+0054
ENCODING 84
SWIDTH 1000 0
DWIDTH 8 0
BBX 8 11 0 1
BITMAP
7E
7E
DB
18
18
18
18
18
18
18
18
ENDCHAR
STARTCHAR U+0055
ENCODING 85
SWIDTH 1000 0
DWIDTH 8 0
BBX 7 11 0 1
BITMAP
C6
C6
C6
C6
C6
C6
C6
C6
C6
C6
7C
ENDCHAR
STARTCHAR U+0056
ENCODING 86
SWIDTH 1000 0
DWIDTH 8 0
BBX 7 11 0 1
BITMAP
C6
C6
C6
C6
C6
C6
C6
C6
6C
38
10
ENDCHAR
STARTCHAR U+0057
ENCODING 87
SWIDTH 1000 0
DWIDTH 8 0
BBX 7 11 0 1
BITMAP
C6
C6
C6
C6
C6
C6
D6
D6
D6
EE
6C
ENDCHAR
STARTCHAR U+0058
ENCODING 88
SWIDTH 1000 0
DWIDTH 8 0
BBX 7 11 0 1
BITMAP
C6
C6
6C
6C
38
38
38
6C
6C
C6
C6
ENDCHAR
STARTCHAR U+0059
ENCODING 89
SWIDTH 1000 0
DWIDTH 8 0
BBX 8 11 0 1
BITMAP
E7
66
66
66
66
3C
18
18
18
18
3C
ENDCHAR
STARTCHAR U+005A
ENCODING 90
SWIDTH 1000 0
DWIDTH 8 0
BBX 7 10 0 1
BITMAP
FE
C6
86
0C
18
30
60
C2
C6
FE
ENDCHAR
STARTCHAR U+005B
ENCODING 91
SWIDTH 1000 0
DWIDTH 8 0
BBX 4 11 2 1
BITMAP
F0
C0
C0
C0
C0
C0
C0
C0
C0
C0
F0
ENDCHAR
STARTCHAR U+005C
ENCODING 92
SWIDTH 1000 0
DWIDTH 8 0
BBX 8 9 0 1
BITMAP
80
C0
60
30
18
0C
06
03
01
ENDCHAR
STARTCHAR U+005D
ENCODING 93
SWIDTH 1000 0
DWIDTH 8 0
BBX 4 11 2 1
BITMAP
F0
30
30
30
30
30
30
30
30
30
F0
ENDCHAR
STARTCHAR U+005E
ENCODING 94
SWIDTH 1000 0
DWIDTH 8 0
BBX 7 4 0 10
BITMAP
10
38
6C
C6
ENDCHAR
STARTCHAR U+005F
ENCODING 95
SWIDTH 1000 0
DWIDTH 8 0
BBX 8 1 0 -1
BITMAP
FF
ENDCHAR
STARTCHAR U+0060
ENCODING 96
SWIDTH 1000 0
DWIDTH 8 0
BBX 3 3 2 11
BITMAP
C0
C0
60
ENDCHAR
STARTCHAR U+0061
ENCODING 97
SWIDTH 1000 0
DWIDTH 8 0
BBX 7 8 0 1
BITMAP
78
4C
0C
7C
CC
CC
CC
76
ENDCHAR
STARTCHAR U+0062
ENCODING 98
SWIDTH 1000 0
DWIDTH 8 0
BBX 7 11 0 1
BITMAP
E0
60
60
60
78
64
66
66
66
66
7C
ENDCHAR
STARTCHAR U+0063
ENCODING 99
SWIDTH 1000 0
DWIDTH 8 0
BBX 7 8 0 1
BITMAP
7C
C6
C0
C0
C0
C0
C6
7C
ENDCHAR
STARTCHAR U+0064
ENCODING 100
SWIDTH 1000 0
DWIDTH 8 0
BBX 8 11 0 1
BITMAP
1C
0C
0C
3C
4C
CC
CC
CC
CC
CD
77
ENDCHAR
STARTCHAR U+0065
ENCODING 101
SWIDTH 1000 0
DWIDTH 8 0
BBX 7 8 0 1
BITMAP
7C
C6
C6
FE
C0
C0
C2
7C
ENDCHAR
STARTCHAR U+0066
ENCODING 102
SWIDTH 1000 0
DWIDTH 8 0
BBX 6 12 0 1
BITMAP
38
6C
64
60
60
60
F8
60
60
60
60
F0
ENDCHAR
STARTCHAR U+0067
ENCODING 103
SWIDTH 1000 0
DWIDTH 8 0
BBX 8 12 0 -2
BITMAP
01
76
CC
CC
CC
CC
CC
CC
7C
0C
CC
78
ENDCHAR
STARTCHAR U+0068
ENCODING 104
SWIDTH 1000 0
DWIDTH 8 0
BBX 8 11 0 1
BITMAP
E0
60
60
6C
76
66
66
66
66
66
E7
ENDCHAR
STARTCHAR U+0069
ENCODING 105
SWIDTH 1000 0
DWIDTH 8 0
BBX 4 12 2 1
BITMAP
20
60
60
00
E0
60
60
60
60
60
60
F0
ENDCHAR
STARTCHAR U+006A
ENCODING 106
SWIDTH 1000 0
DWIDTH 8 0
BBX 6 15 1 -2
BITMAP
04
0C
0C
00
1C
0C
0C
0C
0C
0C
0C
0C
CC
CC
78
ENDCHAR
STARTCHAR U+006B
ENCODING 107
SWIDTH 1000 0
DWIDTH 8 0
BBX 7 11 0 1
BITMAP
E0
62
66
66
6C
78
70
78
6C
66
E6
ENDCHAR
STARTCHAR U+006C
ENCODING 108
SWIDTH 1000 0
DWIDTH 8 0
BBX 4 11 2 1
BITMAP
E0
60
60
60
60
60
60
60
60
60
F0
ENDCHAR
STARTCHAR U+006D
ENCODING 109
SWIDTH 1000 0
DWIDTH 8 0
BBX 7 8 0 1
BITMAP
EC
FE
D6
D6
D6
D6
D6
C6
ENDCHAR
STARTCHAR U+006E
ENCODING 110
SWIDTH 1000 0
DWIDTH 8 0
BBX 7 8 0 1
BITMAP
DC
66
66
66
66
66
66
66
ENDCHAR
STARTCHAR U+006F
ENCODING 111
SWIDTH 1000 0
DWIDTH 8 0
BBX 7 8 0 1
BITMAP
7C
C6
C6
C6
C6
C6
C6
7C
ENDCHAR
STARTCHAR U+0070
ENCODING 112
SWIDTH 1000 0
DWIDTH 8 0
BBX 7 11 0 -2
BITMAP
DC
66
66
66
66
66
66
7C
60
60
F0
ENDCHAR
STARTCHAR U+0071
ENCODING 113
SWIDTH 1000 0
DWIDTH 8 0
BBX 7 11 0 -2
BITMAP
76
CC
CC
DC
EC
CC
CC
7C
0C
0C
1E
ENDCHAR
STARTCHAR U+0072
ENCODING 114
SWIDTH 1000 0
DWIDTH 8 0
BBX 7 8 0 1
BITMAP
DC
76
66
66
60
60
60
F0
ENDCHAR
STARTCHAR U+0073
ENCODING 115
SWIDTH 1000 0
DWIDTH 8 0
BBX 7 8 0 1
BITMAP
7C
C6
C2
70
1C
86
C6
7C
ENDCHAR
STARTCHAR U+0074
ENCODING 116
SWIDTH 1000 0
DWIDTH 8 0
BBX 7 11 0 1
BITMAP
10
30
30
FC
30
30
30
30
36
36
1C
ENDCHAR
STARTCHAR U+0075
ENCODING 117
SWIDTH 1000 0
DWIDTH 8 0
BBX 8 8 0 1
BITMAP
CC
CC
CC
CC
CC
CC
CD
76
ENDCHAR
STARTCHAR U+0076
ENCODING 118
SWIDTH 1000 0
DWIDTH 8 0
BBX 8 8 0 1
BITMAP
C3
66
66
66
66
66
3C
18
ENDCHAR
STARTCHAR U+0077
ENCODING 119
SWIDTH 1000 0
DWIDTH 8 0
BBX 7 9 0 1
BITMAP
82
C6
C6
C6
D6
D6
D6
7C
38
ENDCHAR
STARTCHAR U+0078
ENCODING 120
SWIDTH 1000 0
DWIDTH 8 0
BBX 7 8 0 1
BITMAP
C6
6C
38
10
10
38
6C
C6
ENDCHAR
STARTCHAR U+0079
ENCODING 121
SWIDTH 1000 0
DWIDTH 8 0
BBX 7 11 0 -2
BITMAP
C6
C6
C6
C6
C6
C6
7E
06
06
0C
F8
ENDCHAR
STARTCHAR U+007A
ENCODING 122
SWIDTH 1000 0
DWIDTH 8 0
BBX 7 8 0 1
BITMAP
FE
C6
8C
98
30
62
C6
FE
ENDCHAR
STARTCHAR U+007B
ENCODING 123
SWIDTH 1000 0
DWIDTH 8 0
BBX 7 11 0 1
BITMAP
1E
30
30
30
30
E0
30
30
30
30
1E
ENDCHAR
STARTCHAR U+007C
ENCODING 124
SWIDTH 1000 0
DWIDTH 8 0
BBX 2 11 3 1
BITMAP
C0
C0
C0
C0
C0
00
C0
C0
C0
C0
C0
ENDCHAR
STARTCHAR U+007D
ENCODING 125
SWIDTH 1000 0
DWIDTH 8 0
BBX 7 11 0 1
BITMAP
F0
18
18
18
18
0E
18
18
18
18
F0
ENDCHAR
STARTCHAR U+007E
ENCODING 126
SWIDTH 1000 0
DWIDTH 8 0
BBX 8 2 0 11
BITMAP
7B
DE
ENDCHAR
STARTCHAR U+007F
ENCODING 127
SWIDTH 1000 0
DWIDTH 8 0
BBX 7 8 0 3
BITMAP
10
38
6C
C6
C6
C6
C6
FE
ENDCHAR
STARTCHAR U+00A1
ENCODING 161
SWIDTH 1000 0
DWIDTH 8 0
BBX 4 11 2 0
BITMAP
60
60
00
60
60
60
F0
F0
F0
F0
60
ENDCHAR
STARTCHAR U+00A2
ENCODING 162
SWIDTH 1000 0
DWIDTH 8 0
BBX 6 12 1 1
BITMAP
30
30
78
B4
B4
B0
B0
B0
B4
78
30
30
ENDCHAR
STARTCHAR U+00A3
ENCODING 163
SWIDTH 1000 0
DWIDTH 8 0
BBX 7 12 0 1
BITMAP
38
6C
64
60
60
F0
60
60
60
60
C6
FC
ENDCHAR
STARTCHAR U+00A5
ENCODING 165
SWIDTH 1000 0
DWIDTH 8 0
BBX 6 12 1 0
BITMAP
CC
CC
CC
CC
78
30
FC
30
FC
30
30
30
ENDCHAR
STARTCHAR U+00A7
ENCODING 167
SWIDTH 1000 0
DWIDTH 8 0
BBX 7 12 0 1
BITMAP
7C
C6
60
38
6C
C6
C6
6C
38
0C
C6
7C
ENDCHAR
STARTCHAR U+00AA
ENCODING 170
SWIDTH 1000 0
DWIDTH 8 0
BBX 6 6 1 7
BITMAP
78
D8
D8
7C
00
FC
ENDCHAR
STARTCHAR U+00AB
ENCODING 171
SWIDTH 1000 0
DWIDTH 8 0
BBX 7 5 0 4
BITMAP
36
6C
D8
6C
36
ENDCHAR
STARTCHAR U+00AC
ENCODING 172
SWIDTH 1000 0
DWIDTH 8 0
BBX 7 4 0 4
BITMAP
FE
06
06
06
ENDCHAR
STARTCHAR U+00B0
ENCODING 176
SWIDTH 1000 0
DWIDTH 8 0
BBX 5 4 1 9
BITMAP
70
D8
D8
70
ENDCHAR
STARTCHAR U+00B1
ENCODING 177
SWIDTH 1000 0
DWIDTH 8 0
BBX 7 9 0 1
BITMAP
10
10
10
FE
10
10
10
00
FE
ENDCHAR
STARTCHAR U+00B2
ENCODING 178
SWIDTH 1000 0
DWIDTH 8 0
BBX 5 6 0 7
BITMAP
70
D8
30
60
C8
F8
ENDCHAR
STARTCHAR U+00B5
ENCODING 181
SWIDTH 1000 0
DWIDTH 8 0
BBX 7 10 0 0
BITMAP
66
66
66
66
66
66
7C
60
60
C0
ENDCHAR
STARTCHAR U+00B6
ENCODING 182
SWIDTH 1000 0
DWIDTH 8 0
BBX 8 10 0 2
BITMAP
7F
DB
DB
DB
7B
1B
1B
1B
1B
1B
ENDCHAR
STARTCHAR U+00B7
ENCODING 183
SWIDTH 1000 0
DWIDTH 8 0
BBX 4 4 2 4
BITMAP
60
F0
F0
60
ENDCHAR
STARTCHAR U+00BA
ENCODING 186
SWIDTH 1000 0
DWIDTH 8 0
BBX 5 6 1 7
BITMAP
70
D8
D8
70
00
F8
ENDCHAR
STARTCHAR U+00BB
ENCODING 187
SWIDTH 1000 0
DWIDTH 8 0
BBX 7 5 0 4
BITMAP
D8
6C
36
6C
D8
ENDCHAR
STARTCHAR U+00BC
ENCODING 188
SWIDTH 1000 0
DWIDTH 8 0
BBX 8 12 0 0
BITMAP
C0
41
43
46
4C
18
32
66
CA
92
1E
02
ENDCHAR
STARTCHAR U+00BD
ENCODING 189
SWIDTH 1000 0
DWIDTH 8 0
BBX 8 13 0 -1
BITMAP
C0
41
43
46
4C
18
30
60
DC
86
0C
18
1E
ENDCHAR
STARTCHAR U+00BF
ENCODING 191
SWIDTH 1000 0
DWIDTH 8 0
BBX 7 11 0 1
BITMAP
18
18
00
18
18
30
60
C4
C6
C6
7C
ENDCHAR
STARTCHAR U+00C4
ENCODING 196
SWIDTH 1000 0
DWIDTH 8 0
BBX 7 13 0 1
BITMAP
C6
C6
10
38
6C
C6
C6
C6
FE
C6
C6
C6
C6
ENDCHAR
STARTCHAR U+00C5
ENCODING 197
SWIDTH 1000 0
DWIDTH 8 0
BBX 7 13 0 1
BITMAP
10
28
10
38
6C
C6
C6
C6
FE
C6
C6
C6
C6
ENDCHAR
STARTCHAR U+00C6
ENCODING 198
SWIDTH 1000 0
DWIDTH 8 0
BBX 7 11 0 1
BITMAP
3E
6C
CC
CC
CC
FE
CC
CC
CC
CC
CE
ENDCHAR
STARTCHAR U+00C7
ENCODING 199
SWIDTH 1000 0
DWIDTH 8 0
BBX 7 13 0 -1
BITMAP
3C
66
C2
C2
C0
C0
C0
C2
66
3C
0C
06
7C
ENDCHAR
STARTCHAR U+00C9
ENCODING 201
SWIDTH 1000 0
DWIDTH 8 0
BBX 7 13 0 1
BITMAP
18
30
00
FE
66
62
6A
78
68
62
62
66
FE
ENDCHAR
STARTCHAR U+00D1
ENCODING 209
SWIDTH 1000 0
DWIDTH 8 0
BBX 7 13 0 1
BITMAP
76
DC
00
C6
E6
F6
FE
DE
CE
C6
C6
C6
C6
ENDCHAR
STARTCHAR U+00D6
ENCODING 214
SWIDTH 1000 0
DWIDTH 8 0
BBX 7 13 0 1
BITMAP
6C
6C
00
7C
C6
C6
C6
C6
C6
C6
C6
C6
7C
ENDCHAR
STARTCHAR U+00DC
ENCODING 220
SWIDTH 1000 0
DWIDTH 8 0
BBX 7 13 0 1
BITMAP
C6
C6
00
C6
C6
C6
C6
C6
C6
C6
C6
C6
7C
ENDCHAR
STARTCHAR U+00DF
ENCODING 223
SWIDTH 1000 0
DWIDTH 8 0
BBX 7 11 0 1
BITMAP
78
CC
CC
CC
CC
D8
CC
C6
C6
C6
9C
ENDCHAR
STARTCHAR U+00E0
ENCODING 224
SWIDTH 1000 0
DWIDTH 8 0
BBX 7 12 0 1
BITMAP
60
30
18
00
78
4C
0C
7C
CC
CC
CC
76
ENDCHAR
STARTCHAR U+00E1
ENCODING 225
SWIDTH 1000 0
DWIDTH 8 0
BBX 7 12 0 1
BITMAP
0C
18
30
00
78
4C
0C
7C
CC
CC
CC
76
ENDCHAR
STARTCHAR U+00E2
ENCODING 226
SWIDTH 1000 0
DWIDTH 8 0
BBX 7 12 0 1
BITMAP
10
28
6C
00
78
4C
0C
7C
CC
CC
CC
76
ENDCHAR
STARTCHAR U+00E4
ENCODING 228
SWIDTH 1000 0
DWIDTH 8 0
BBX 7 11 0 1
BITMAP
6C
6C
00
78
4C
0C
7C
CC
CC
CC
76
ENDCHAR
STARTCHAR U+00E5
ENCODING 229
SWIDTH 1000 0
DWIDTH 8 0
BBX 7 12 0 1
BITMAP
10
28
10
00
78
4C
0C
7C
CC
CC
CC
76
ENDCHAR
STARTCHAR U+00E6
ENCODING 230
SWIDTH 1000 0
DWIDTH 8 0
BBX 7 8 0 1
BITMAP
CC
B6
36
36
7E
D8
D8
6E
ENDCHAR
STARTCHAR U+00E7
ENCODING 231
SWIDTH 1000 0
DWIDTH 8 0
BBX 6 10 1 -1
BITMAP
78
CC
C0
C0
C0
CC
78
18
0C
78
ENDCHAR
STARTCHAR U+00E8
ENCODING 232
SWIDTH 1000 0
DWIDTH 8 0
BBX 7 12 0 1
BITMAP
60
30
18
00
7C
C6
C6
FE
C0
C0
C2
7C
ENDCHAR
STARTCHAR U+00E9
ENCODING 233
SWIDTH 1000 0
DWIDTH 8 0
BBX 7 12 0 1
BITMAP
0C
18
30
00
7C
C6
C6
FE
C0
C0
C2
7C
ENDCHAR
STARTCHAR U+00EA
ENCODING 234
SWIDTH 1000 0
DWIDTH 8 0
BBX 7 12 0 1
BITMAP
10
28
6C
00
7C
C6
C6
FE
C0
C0
C2
7C
ENDCHAR
STARTCHAR U+00EB
ENCODING 235
SWIDTH 1000 0
DWIDTH 8 0
BBX 7 11 0 1
BITMAP
6C
6C
00
7C
C6
C6
FE
C0
C0
C2
7C
ENDCHAR
STARTCHAR U+00EC
ENCODING 236
SWIDTH 1000 0
DWIDTH 8 0
BBX 5 12 1 1
BITMAP
C0
60
30
00
70
30
30
30
30
30
30
78
ENDCHAR
STARTCHAR U+00ED
ENCODING 237
SWIDTH 1000 0
DWIDTH 8 0
BBX 5 12 2 1
BITMAP
18
30
60
00
E0
60
60
60
60
60
60
F0
ENDCHAR
STARTCHAR U+00EE
ENCODING 238
SWIDTH 1000 0
DWIDTH 8 0
BBX 5 12 1 1
BITMAP
20
50
D8
00
70
30
30
30
30
30
30
78
ENDCHAR
STARTCHAR U+00EF
ENCODING 239
SWIDTH 1000 0
DWIDTH 8 0
BBX 6 11 1 1
BITMAP
CC
CC
00
70
30
30
30
30
30
30
78
ENDCHAR
STARTCHAR U+00F1
ENCODING 241
SWIDTH 1000 0
DWIDTH 8 0
BBX 7 11 0 1
BITMAP
76
DC
00
DC
66
66
66
66
66
66
66
ENDCHAR
STARTCHAR U+00F2
ENCODING 242
SWIDTH 1000 0
DWIDTH 8 0
BBX 7 12 0 1
BITMAP
60
30
18
00
7C
C6
C6
C6
C6
C6
C6
7C
ENDCHAR
STARTCHAR U+00F3
ENCODING 243
SWIDTH 1000 0
DWIDTH 8 0
BBX 7 12 0 1
BITMAP
0C
18
30
00
7C
C6
C6
C6
C6
C6
C6
7C
ENDCHAR
STARTCHAR U+00F4
ENCODING 244
SWIDTH 1000 0
DWIDTH 8 0
BBX 7 12 0 1
BITMAP
10
28
6C
00
7C
C6
C6
C6
C6
C6
C6
7C
ENDCHAR
STARTCHAR U+00F6
ENCODING 246
SWIDTH 1000 0
DWIDTH 8 0
BBX 7 11 0 1
BITMAP
6C
6C
00
7C
C6
C6
C6
C6
C6
C6
7C
ENDCHAR
STARTCHAR U+00F7
ENCODING 247
SWIDTH 1000 0
DWIDTH 8 0
BBX 6 7 1 3
BITMAP
30
30
00
FC
00
30
30
ENDCHAR
STARTCHAR U+00F9
ENCODING 249
SWIDTH 1000 0
DWIDTH 8 0
BBX 8 12 0 1
BITMAP
C0
60
30
00
CC
CC
CC
CC
CC
CC
CD
76
ENDCHAR
STARTCHAR U+00FA
ENCODING 250
SWIDTH 1000 0
DWIDTH 8 0
BBX 8 12 0 1
BITMAP
0C
18
30
00
CC
CC
CC
CC
CC
CC
CD
76
ENDCHAR
STARTCHAR U+00FB
ENCODING 251
SWIDTH 1000 0
DWIDTH 8 0
BBX 8 12 0 1
BITMAP
10
28
6C
00
CC
CC
CC
CC
CC
CC
CD
76
ENDCHAR
STARTCHAR U+00FC
ENCODING 252
SWIDTH 1000 0
DWIDTH 8 0
BBX 7 11 0 1
BITMAP
CC
CC
00
00
CC
CC
CC
CC
CC
CC
76
ENDCHAR
STARTCHAR U+00FF
ENCODING 255
SWIDTH 1000 0
DWIDTH 8 0
BBX 7 15 0 -2
BITMAP
C6
C6
00
00
C6
C6
C6
C6
C6
C6
7E
06
06
0C
F8
ENDCHAR
STARTCHAR U+0192
ENCODING 402
SWIDTH 1000 0
DWIDTH 8 0
BBX 8 14 0 -1
BITMAP
0E
1B
19
18
18
18
7E
18
18
18
18
98
D8
70
ENDCHAR
STARTCHAR U+0393
ENCODING 915
SWIDTH 1000 0
DWIDTH 8 0
BBX 7 11 0 1
BITMAP
FE
C6
C6
C2
C0
C0
C0
C0
C0
C0
C0
ENDCHAR
STARTCHAR U+0398
ENCODING 920
SWIDTH 1000 0
DWIDTH 8 0
BBX 7 10 0 1
BITMAP
38
6C
C6
C6
FE
C6
C6
C6
6C
38
ENDCHAR
STARTCHAR U+03A3
ENCODING 931
SWIDTH 1000 0
DWIDTH 8 0
BBX 7 10 0 1
BITMAP
FE
C6
60
30
18
30
60
C0
C6
FE
ENDCHAR
STARTCHAR U+03A6
ENCODING 934
SWIDTH 1000 0
DWIDTH 8 0
BBX 6 10 1 1
BITMAP
FC
30
78
CC
CC
CC
CC
78
30
FC
ENDCHAR
STARTCHAR U+03A9
ENCODING 937
SWIDTH 1000 0
DWIDTH 8 0
BBX 7 11 0 1
BITMAP
38
6C
C6
C6
C6
C6
44
6C
28
6C
EE
ENDCHAR
STARTCHAR U+03B1
ENCODING 945
SWIDTH 1000 0
DWIDTH 8 0
BBX 7 8 0 1
BITMAP
76
DC
D8
D8
D8
D8
DC
76
ENDCHAR
STARTCHAR U+03B4
ENCODING 948
SWIDTH 1000 0
DWIDTH 8 0
BBX 6 11 1 1
BITMAP
3C
60
60
30
18
7C
CC
CC
CC
CC
78
ENDCHAR
STARTCHAR U+03B5
ENCODING 949
SWIDTH 1000 0
DWIDTH 8 0
BBX 6 11 1 1
BITMAP
3C
60
C0
C0
C0
FC
C0
C0
C0
60
3C
ENDCHAR
STARTCHAR U+03C0
ENCODING 960
SWIDTH 1000 0
DWIDTH 8 0
BBX 7 9 0 1
BITMAP
FE
6C
6C
6C
6C
6C
6C
6C
6C
ENDCHAR
STARTCHAR U+03C3
ENCODING 963
SWIDTH 1000 0
DWIDTH 8 0
BBX 7 8 0 1
BITMAP
7E
D8
D8
D8
D8
D8
D8
70
ENDCHAR
STARTCHAR U+03C4
ENCODING 964
SWIDTH 875 0
DWIDTH 7 0
BBX 7 9 0 1
BITMAP
76
DC
18
18
18
18
18
18
18
ENDCHAR
STARTCHAR U+03C6
ENCODING 966
SWIDTH 1000 0
DWIDTH 8 0
BBX 7 11 0 1
BITMAP
4C
DE
D6
D6
D6
D6
D6
7C
10
10
10
ENDCHAR
STARTCHAR U+2022
ENCODING 8226
SWIDTH 1000 0
DWIDTH 8 0
BBX 4 4 2 4
BITMAP
60
F0
F0
60
ENDCHAR
STARTCHAR U+203C
ENCODING 8252
SWIDTH 1000 0
DWIDTH 8 0
BBX 6 10 1 2
BITMAP
CC
CC
CC
CC
CC
CC
CC
00
CC
CC
ENDCHAR
STARTCHAR U+207F
ENCODING 8319
SWIDTH 1000 0
DWIDTH 8 0
BBX 6 6 0 7
BITMAP
D8
6C
6C
6C
6C
6C
ENDCHAR
STARTCHAR U+20A7
ENCODING 8359
SWIDTH 1000 0
DWIDTH 8 0
BBX 7 12 0 1
BITMAP
F8
CC
CC
CC
F8
C4
CC
DE
CC
CC
CC
C6
ENDCHAR
STARTCHAR U+2169
ENCODING 8553
SWIDTH 0 0
DWIDTH 0 0
BBX 0 0 0 0
BITMAP
ENDCHAR
STARTCHAR U+2190
ENCODING 8592
SWIDTH 1000 0
DWIDTH 8 0
BBX 7 5 0 4
BITMAP
30
60
FE
60
30
ENDCHAR
STARTCHAR U+2191
ENCODING 8593
SWIDTH 1000 0
DWIDTH 8 0
BBX 6 10 1 2
BITMAP
30
78
FC
30
30
30
30
30
30
30
ENDCHAR
STARTCHAR U+2192
ENCODING 8594
SWIDTH 1000 0
DWIDTH 8 0
BBX 7 5 0 4
BITMAP
18
0C
FE
0C
18
ENDCHAR
STARTCHAR U+2193
ENCODING 8595
SWIDTH 1000 0
DWIDTH 8 0
BBX 6 10 1 2
BITMAP
30
30
30
30
30
30
30
FC
78
30
ENDCHAR
STARTCHAR U+2194
ENCODING 8596
SWIDTH 1000 0
DWIDTH 8 0
BBX 7 5 0 4
BITMAP
28
6C
FE
6C
28
ENDCHAR
STARTCHAR U+2195
ENCODING 8597
SWIDTH 1000 0
DWIDTH 8 0
BBX 6 9 1 2
BITMAP
30
78
FC
30
30
30
FC
78
30
ENDCHAR
STARTCHAR U+21A8
ENCODING 8616
SWIDTH 1000 0
DWIDTH 8 0
BBX 6 10 1 2
BITMAP
30
78
FC
30
30
30
FC
78
30
FC
ENDCHAR
STARTCHAR U+2219
ENCODING 8729
SWIDTH 1000 0
DWIDTH 8 0
BBX 2 2 3 5
BITMAP
C0
C0
ENDCHAR
STARTCHAR U+221A
ENCODING 8730
SWIDTH 1000 0
DWIDTH 8 0
BBX 8 12 0 1
BITMAP
0F
0C
0C
0C
0C
0C
0C
EC
6C
6C
3C
1C
ENDCHAR
STARTCHAR U+221E
ENCODING 8734
SWIDTH 1000 0
DWIDTH 8 0
BBX 8 5 0 4
BITMAP
7E
DB
DB
DB
7E
ENDCHAR
STARTCHAR U+221F
ENCODING 8735
SWIDTH 1000 0
DWIDTH 8 0
BBX 7 3 0 4
BITMAP
C0
C0
FE
ENDCHAR
STARTCHAR U+2229
ENCODING 8745
SWIDTH 1000 0
DWIDTH 8 0
BBX 7 10 0 1
BITMAP
7C
C6
C6
C6
C6
C6
C6
C6
C6
C6
ENDCHAR
STARTCHAR U+2248
ENCODING 8776
SWIDTH 1000 0
DWIDTH 8 0
BBX 7 5 0 4
BITMAP
76
DC
00
76
DC
ENDCHAR
STARTCHAR U+2261
ENCODING 8801
SWIDTH 1000 0
DWIDTH 8 0
BBX 7 7 0 3
BITMAP
FE
00
00
FE
00
00
FE
ENDCHAR
STARTCHAR U+2264
ENCODING 8804
SWIDTH 1000 0
DWIDTH 8 0
BBX 6 9 1 1
BITMAP
18
30
60
C0
60
30
18
00
FC
ENDCHAR
STARTCHAR U+2265
ENCODING 8805
SWIDTH 1000 0
DWIDTH 8 0
BBX 6 9 1 1
BITMAP
60
30
18
0C
18
30
60
00
FC
ENDCHAR
STARTCHAR U+2310
ENCODING 8976
SWIDTH 1000 0
DWIDTH 8 0
BBX 7 4 0 4
BITMAP
FE
C0
C0
C0
ENDCHAR
STARTCHAR U+2320
ENCODING 8992
SWIDTH 1000 0
DWIDTH 8 0
BBX 5 14 3 -2
BITMAP
70
D8
D8
C0
C0
C0
C0
C0
C0
C0
C0
C0
C0
C0
ENDCHAR
STARTCHAR U+2321
ENCODING 8993
SWIDTH 1000 0
DWIDTH 8 0
BBX 5 12 0 2
BITMAP
18
18
18
18
18
18
18
18
D8
D8
D8
70
ENDCHAR
STARTCHAR U+24E8
ENCODING 9448
SWIDTH 0 0
DWIDTH 0 0
BBX 0 0 0 0
BITMAP
ENDCHAR
STARTCHAR U+2500
ENCODING 9472
SWIDTH 1000 0
DWIDTH 8 0
BBX 8 2 0 5
BITMAP
FF
FF
ENDCHAR
STARTCHAR U+2502
ENCODING 9474
SWIDTH 1000 0
DWIDTH 8 0
BBX 2 16 3 -2
BITMAP
C0
C0
C0
C0
C0
C0
C0
C0
C0
C0
C0
C0
C0
C0
C0
C0
ENDCHAR
STARTCHAR U+250C
ENCODING 9484
SWIDTH 1000 0
DWIDTH 8 0
BBX 5 9 3 -2
BITMAP
F8
F8
C0
C0
C0
C0
C0
C0
C0
ENDCHAR
STARTCHAR U+2510
ENCODING 9488
SWIDTH 1000 0
DWIDTH 8 0
BBX 5 9 0 -2
BITMAP
F8
F8
18
18
18
18
18
18
18
ENDCHAR
STARTCHAR U+2514
ENCODING 9492
SWIDTH 1000 0
DWIDTH 8 0
BBX 5 9 3 5
BITMAP
C0
C0
C0
C0
C0
C0
C0
F8
F8
ENDCHAR
STARTCHAR U+2518
ENCODING 9496
SWIDTH 1000 0
DWIDTH 8 0
BBX 5 9 0 5
BITMAP
18
18
18
18
18
18
18
F8
F8
ENDCHAR
STARTCHAR U+251C
ENCODING 9500
SWIDTH 1000 0
DWIDTH 8 0
BBX 5 16 3 -2
BITMAP
C0
C0
C0
C0
C0
C0
C0
F8
F8
C0
C0
C0
C0
C0
C0
C0
ENDCHAR
STARTCHAR U+2524
ENCODING 9508
SWIDTH 1125 0
DWIDTH 9 0
BBX 6 16 0 -2
BITMAP
0C
0C
0C
0C
0C
0C
0C
FC
FC
0C
0C
0C
0C
0C
0C
0C
ENDCHAR
STARTCHAR U+252C
ENCODING 9516
SWIDTH 1000 0
DWIDTH 8 0
BBX 8 9 0 -2
BITMAP
FF
FF
18
18
18
18
18
18
18
ENDCHAR
STARTCHAR U+2534
ENCODING 9524
SWIDTH 1000 0
DWIDTH 8 0
BBX 8 9 0 5
BITMAP
18
18
18
18
18
18
18
FF
FF
ENDCHAR
STARTCHAR U+253C
ENCODING 9532
SWIDTH 1000 0
DWIDTH 8 0
BBX 8 16 0 -2
BITMAP
18
18
18
18
18
18
18
FF
FF
18
18
18
18
18
18
18
ENDCHAR
STARTCHAR U+2550
ENCODING 9552
SWIDTH 1000 0
DWIDTH 8 0
BBX 8 6 0 3
BITMAP
FF
FF
00
00
FF
FF
ENDCHAR
STARTCHAR U+2551
ENCODING 9553
SWIDTH 1000 0
DWIDTH 8 0
BBX 5 16 2 -2
BITMAP
D8
D8
D8
D8
D8
D8
D8
D8
D8
D8
D8
D8
D8
D8
D8
D8
ENDCHAR
STARTCHAR U+2552
ENCODING 9554
SWIDTH 1000 0
DWIDTH 8 0
BBX 5 11 3 -2
BITMAP
F8
F8
C0
C0
F8
F8
C0
C0
C0
C0
C0
ENDCHAR
STARTCHAR U+2553
ENCODING 9555
SWIDTH 1000 0
DWIDTH 8 0
BBX 6 9 2 -2
BITMAP
FC
FC
D8
D8
D8
D8
D8
D8
D8
ENDCHAR
STARTCHAR U+2554
ENCODING 9556
SWIDTH 1000 0
DWIDTH 8 0
BBX 6 11 2 -2
BITMAP
FC
FC
C0
C0
DC
DC
D8
D8
D8
D8
D8
ENDCHAR
STARTCHAR U+2555
ENCODING 9557
SWIDTH 1000 0
DWIDTH 8 0
BBX 5 11 0 -2
BITMAP
F8
F8
18
18
F8
F8
18
18
18
18
18
ENDCHAR
STARTCHAR U+2556
ENCODING 9558
SWIDTH 1000 0
DWIDTH 8 0
BBX 7 9 0 -2
BITMAP
FE
FE
36
36
36
36
36
36
36
ENDCHAR
STARTCHAR U+2557
ENCODING 9559
SWIDTH 1000 0
DWIDTH 8 0
BBX 7 11 0 -2
BITMAP
FE
FE
06
06
F6
F6
36
36
36
36
36
ENDCHAR
STARTCHAR U+2558
ENCODING 9560
SWIDTH 1000 0
DWIDTH 8 0
BBX 5 11 3 3
BITMAP
C0
C0
C0
C0
C0
F8
F8
C0
C0
F8
F8
ENDCHAR
STARTCHAR U+2559
ENCODING 9561
SWIDTH 1000 0
DWIDTH 8 0
BBX 6 9 2 5
BITMAP
D8
D8
D8
D8
D8
D8
D8
FC
FC
ENDCHAR
STARTCHAR U+255A
ENCODING 9562
SWIDTH 1000 0
DWIDTH 8 0
BBX 6 11 2 3
BITMAP
D8
D8
D8
D8
D8
DC
DC
C0
C0
FC
FC
ENDCHAR
STARTCHAR U+255B
ENCODING 9563
SWIDTH 1000 0
DWIDTH 8 0
BBX 5 11 0 3
BITMAP
18
18
18
18
18
F8
F8
18
18
F8
F8
ENDCHAR
STARTCHAR U+255C
ENCODING 9564
SWIDTH 1000 0
DWIDTH 8 0
BBX 7 9 0 5
BITMAP
36
36
36
36
36
36
36
FE
FE
ENDCHAR
STARTCHAR U+255D
ENCODING 9565
SWIDTH 1000 0
DWIDTH 8 0
BBX 7 11 0 3
BITMAP
36
36
36
36
36
F6
F6
06
06
FE
FE
ENDCHAR
STARTCHAR U+255E
ENCODING 9566
SWIDTH 1000 0
DWIDTH 8 0
BBX 5 16 3 -2
BITMAP
C0
C0
C0
C0
C0
F8
F8
C0
C0
F8
F8
C0
C0
C0
C0
C0
ENDCHAR
STARTCHAR U+255F
ENCODING 9567
SWIDTH 1000 0
DWIDTH 8 0
BBX 6 16 2 -2
BITMAP
D8
D8
D8
D8
D8
D8
D8
DC
DC
D8
D8
D8
D8
D8
D8
D8
ENDCHAR
STARTCHAR U+2560
ENCODING 9568
SWIDTH 1000 0
DWIDTH 8 0
BBX 6 16 2 -2
BITMAP
D8
D8
D8
D8
D8
DC
DC
C0
C0
DC
DC
D8
D8
D8
D8
D8
ENDCHAR
STARTCHAR U+2561
ENCODING 9569
SWIDTH 1000 0
DWIDTH 8 0
BBX 5 16 0 -2
BITMAP
18
18
18
18
18
F8
F8
18
18
F8
F8
18
18
18
18
18
ENDCHAR
STARTCHAR U+2562
ENCODING 9570
SWIDTH 1000 0
DWIDTH 8 0
BBX 7 16 0 -2
BITMAP
36
36
36
36
36
36
36
F6
F6
36
36
36
36
36
36
36
ENDCHAR
STARTCHAR U+2563
ENCODING 9571
SWIDTH 1000 0
DWIDTH 8 0
BBX 7 16 0 -2
BITMAP
36
36
36
36
36
F6
F6
06
06
F6
F6
36
36
36
36
36
ENDCHAR
STARTCHAR U+2564
ENCODING 9572
SWIDTH 1000 0
DWIDTH 8 0
BBX 8 11 0 -2
BITMAP
FF
FF
00
00
FF
FF
18
18
18
18
18
ENDCHAR
STARTCHAR U+2565
ENCODING 9573
SWIDTH 1000 0
DWIDTH 8 0
BBX 8 9 0 -2
BITMAP
FF
FF
36
36
36
36
36
36
36
ENDCHAR
STARTCHAR U+2566
ENCODING 9574
SWIDTH 1000 0
DWIDTH 8 0
BBX 8 11 0 -2
BITMAP
FF
FF
00
00
F7
F7
36
36
36
36
36
ENDCHAR
STARTCHAR U+2567
ENCODING 9575
SWIDTH 1000 0
DWIDTH 8 0
BBX 8 11 0 3
BITMAP
18
18
18
18
18
FF
FF
00
00
FF
FF
ENDCHAR
STARTCHAR U+2568
ENCODING 9576
SWIDTH 1000 0
DWIDTH 8 0
BBX 8 9 0 5
BITMAP
36
36
36
36
36
36
36
FF
FF
ENDCHAR
STARTCHAR U+2569
ENCODING 9577
SWIDTH 1000 0
DWIDTH 8 0
BBX 8 11 0 3
BITMAP
36
36
36
36
36
F7
F7
00
00
FF
FF
ENDCHAR
STARTCHAR U+256A
ENCODING 9578
SWIDTH 1000 0
DWIDTH 8 0
BBX 8 16 0 -2
BITMAP
18
18
18
18
18
FF
FF
18
18
FF
FF
18
18
18
18
18
ENDCHAR
STARTCHAR U+256B
ENCODING 9579
SWIDTH 1000 0
DWIDTH 8 0
BBX 8 16 0 -2
BITMAP
36
36
36
36
36
36
36
FF
FF
36
36
36
36
36
36
36
ENDCHAR
STARTCHAR U+256C
ENCODING 9580
SWIDTH 1000 0
DWIDTH 8 0
BBX 8 16 0 -2
BITMAP
36
36
36
36
36
F7
F7
00
00
F7
F7
36
36
36
36
36
ENDCHAR
STARTCHAR U+2580
ENCODING 9600
SWIDTH 1000 0
DWIDTH 8 0
BBX 8 8 0 6
BITMAP
FF
FF
FF
FF
FF
FF
FF
FF
ENDCHAR
STARTCHAR U+2584
ENCODING 9604
SWIDTH 1000 0
DWIDTH 8 0
BBX 8 5 0 -2
BITMAP
FF
FF
FF
FF
FF
ENDCHAR
STARTCHAR U+2588
ENCODING 9608
SWIDTH 1000 0
DWIDTH 8 0
BBX 8 16 0 -2
BITMAP
FF
FF
FF
FF
FF
FF
FF
FF
FF
FF
FF
FF
FF
FF
FF
FF
ENDCHAR
STARTCHAR U+258C
ENCODING 9612
SWIDTH 1000 0
DWIDTH 8 0
BBX 4 16 0 -2
BITMAP
F0
F0
F0
F0
F0
F0
F0
F0
F0
F0
F0
F0
F0
F0
F0
F0
ENDCHAR
STARTCHAR U+2590
ENCODING 9616
SWIDTH 1000 0
DWIDTH 8 0
BBX 4 16 4 -2
BITMAP
F0
F0
F0
F0
F0
F0
F0
F0
F0
F0
F0
F0
F0
F0
F0
F0
ENDCHAR
STARTCHAR U+2591
ENCODING 9617
SWIDTH 1000 0
DWIDTH 8 0
BBX 7 16 1 -2
BITMAP
22
88
22
88
22
88
22
88
22
88
22
88
22
88
22
88
ENDCHAR
STARTCHAR U+2592
ENCODING 9618
SWIDTH 1000 0
DWIDTH 8 0
BBX 8 16 0 -2
BITMAP
55
AA
55
AA
55
AA
55
AA
55
AA
55
AA
55
AA
55
AA
ENDCHAR
STARTCHAR U+2593
ENCODING 9619
SWIDTH 1000 0
DWIDTH 8 0
BBX 8 16 0 -2
BITMAP
DD
77
DD
77
DD
77
DD
77
DD
77
DD
77
DD
77
DD
77
ENDCHAR
STARTCHAR U+25A0
ENCODING 9632
SWIDTH 1000 0
DWIDTH 8 0
BBX 5 7 1 2
BITMAP
F8
F8
F8
F8
F8
F8
F8
ENDCHAR
STARTCHAR U+25AC
ENCODING 9644
SWIDTH 1000 0
DWIDTH 8 0
BBX 7 1 0 4
BITMAP
FE
ENDCHAR
STARTCHAR U+25B2
ENCODING 9650
SWIDTH 1000 0
DWIDTH 8 0
BBX 7 7 0 2
BITMAP
10
38
38
7C
7C
FE
FE
ENDCHAR
STARTCHAR U+25BA
ENCODING 9658
SWIDTH 1000 0
DWIDTH 8 0
BBX 7 11 0 1
BITMAP
80
C0
E0
F0
F8
FE
F8
F0
E0
C0
80
ENDCHAR
STARTCHAR U+25BC
ENCODING 9660
SWIDTH 1000 0
DWIDTH 8 0
BBX 7 7 0 2
BITMAP
FE
FE
7C
7C
38
38
10
ENDCHAR
STARTCHAR U+25C4
ENCODING 9668
SWIDTH 1000 0
DWIDTH 8 0
BBX 7 11 1 1
BITMAP
02
06
0E
1E
3E
FE
3E
1E
0E
06
02
ENDCHAR
STARTCHAR U+25CB
ENCODING 9675
SWIDTH 1000 0
DWIDTH 8 0
BBX 6 6 1 3
BITMAP
78
CC
84
84
CC
78
ENDCHAR
STARTCHAR U+25D8
ENCODING 9688
SWIDTH 1000 0
DWIDTH 8 0
BBX 8 16 0 -2
BITMAP
FF
FF
FF
FF
FF
FF
E7
C3
C3
E7
FF
FF
FF
FF
FF
FF
ENDCHAR
STARTCHAR U+25D9
ENCODING 9689
SWIDTH 1000 0
DWIDTH 8 0
BBX 8 16 0 -2
BITMAP
FF
FF
FF
FF
FF
C3
99
BD
BD
99
C3
FF
FF
FF
FF
FF
ENDCHAR
STARTCHAR U+263A
ENCODING 9786
SWIDTH 1000 0
DWIDTH 8 0
BBX 8 10 0 1
BITMAP
7E
81
A5
81
81
99
A5
81
81
7E
ENDCHAR
STARTCHAR U+263B
ENCODING 9787
SWIDTH 1000 0
DWIDTH 8 0
BBX 8 10 0 1
BITMAP
7E
FF
DB
FF
FF
E7
DB
FF
FF
7E
ENDCHAR
STARTCHAR U+2640
ENCODING 9792
SWIDTH 1000 0
DWIDTH 8 0
BBX 6 12 1 0
BITMAP
78
CC
CC
CC
CC
CC
78
30
FC
30
30
30
ENDCHAR
STARTCHAR U+2642
ENCODING 9794
SWIDTH 1000 0
DWIDTH 8 0
BBX 7 11 0 0
BITMAP
1E
0E
1A
32
78
CC
CC
CC
CC
CC
78
ENDCHAR
STARTCHAR U+2663
ENCODING 9827
SWIDTH 1000 0
DWIDTH 8 0
BBX 8 9 0 1
BITMAP
18
3C
7E
FF
FF
7E
18
18
3C
ENDCHAR
STARTCHAR U+2665
ENCODING 9829
SWIDTH 1000 0
DWIDTH 8 0
BBX 7 8 0 1
BITMAP
6C
FE
FE
FE
FE
7C
38
10
ENDCHAR
STARTCHAR U+2666
ENCODING 9830
SWIDTH 1000 0
DWIDTH 8 0
BBX 7 7 0 2
BITMAP
10
38
7C
FE
7C
38
10
ENDCHAR
STARTCHAR U+2667
ENCODING 9831
SWIDTH 1000 0
DWIDTH 8 0
BBX 8 9 0 2
BITMAP
18
3C
3C
E7
E7
E7
18
18
3C
ENDCHAR
STARTCHAR U+266A
ENCODING 9834
SWIDTH 1000 0
DWIDTH 8 0
BBX 7 12 0 1
BITMAP
30
38
3C
36
32
32
30
30
30
70
F0
E0
ENDCHAR
STARTCHAR U+266B
ENCODING 9835
SWIDTH 1000 0
DWIDTH 8 0
BBX 8 13 0 0
BITMAP
1F
7F
73
67
7B
63
63
63
63
67
E7
E6
C0
ENDCHAR
ENDFONT
