STARTFONT 2.1
FONT -Trithemius8x16-Normal-R-Normal--16-16-75-75-c-80-iso10646-1
SIZE 16 75 75
FONTBOUNDINGBOX 10 26 0 -13
STARTPROPERTIES 9
FAMILY_NAME "Trithemius8x16"
WEIGHT_NAME "Normal"
FONT_VERSION "001.000"
FOUNDRY "JorquinBernays"
FONT_ASCENT 13
FONT_DESCENT 3
POINT_SIZE 16
X_HEIGHT 6
CAP_HEIGHT 11
ENDPROPERTIES
CHARS 645
STARTCHAR U+0000
ENCODING 0
SWIDTH 900 0
DWIDTH 9 0
BBX 0 0 0 0
BITMAP
ENDCHAR
STARTCHAR U+0001
ENCODING 1
SWIDTH 800 0
DWIDTH 8 0
BBX 8 13 0 -2
BITMAP
3C
42
81
A5
A5
A5
81
81
99
A5
81
42
3C
ENDCHAR
STARTCHAR U+0002
ENCODING 2
SWIDTH 800 0
DWIDTH 8 0
BBX 8 13 0 -2
BITMAP
3C
7E
FF
DB
DB
DB
FF
FF
E7
DB
FF
7E
3C
ENDCHAR
STARTCHAR U+0004
ENCODING 4
SWIDTH 800 0
DWIDTH 8 0
BBX 8 14 0 -2
BITMAP
18
18
3C
3C
7E
7E
FF
FF
7E
7E
3C
3C
18
18
ENDCHAR
STARTCHAR U+0005
ENCODING 5
SWIDTH 800 0
DWIDTH 8 0
BBX 8 11 0 -1
BITMAP
18
3C
3C
7E
DB
FF
FF
5A
18
3C
7E
ENDCHAR
STARTCHAR U+0006
ENCODING 6
SWIDTH 800 0
DWIDTH 8 0
BBX 8 11 0 -1
BITMAP
18
3C
7E
FF
FF
FF
FF
66
18
18
3C
ENDCHAR
STARTCHAR U+0007
ENCODING 7
SWIDTH 800 0
DWIDTH 8 0
BBX 8 8 0 1
BITMAP
3C
7E
FF
FF
FF
FF
7E
3C
ENDCHAR
STARTCHAR U+0008
ENCODING 8
SWIDTH 800 0
DWIDTH 8 0
BBX 8 16 0 -3
BITMAP
FF
FF
FF
FF
FF
E7
C3
81
81
C3
E7
FF
FF
FF
FF
FF
ENDCHAR
STARTCHAR U+0009
ENCODING 9
SWIDTH 800 0
DWIDTH 8 0
BBX 8 8 0 1
BITMAP
3C
42
C3
C3
C3
C3
42
3C
ENDCHAR
STARTCHAR U+000A
ENCODING 10
SWIDTH 800 0
DWIDTH 8 0
BBX 8 16 0 -3
BITMAP
FF
FF
FF
FF
FF
C3
99
BD
BD
99
C3
FF
FF
FF
FF
FF
ENDCHAR
STARTCHAR U+000B
ENCODING 11
SWIDTH 800 0
DWIDTH 8 0
BBX 8 11 0 -1
BITMAP
0F
07
0F
3D
44
C6
C6
C6
C6
44
38
ENDCHAR
STARTCHAR U+000C
ENCODING 12
SWIDTH 800 0
DWIDTH 8 0
BBX 7 13 0 -1
BITMAP
38
44
C6
C6
C6
C6
44
38
10
10
7C
10
10
ENDCHAR
STARTCHAR U+000D
ENCODING 13
SWIDTH 800 0
DWIDTH 8 0
BBX 7 13 0 -2
BITMAP
10
18
1C
16
12
12
10
10
10
10
70
F0
E0
ENDCHAR
STARTCHAR U+000E
ENCODING 14
SWIDTH 800 0
DWIDTH 8 0
BBX 7 13 0 -2
BITMAP
3E
3E
22
3E
22
22
22
22
22
62
E6
CE
0C
ENDCHAR
STARTCHAR U+000F
ENCODING 15
SWIDTH 800 0
DWIDTH 8 0
BBX 8 9 0 1
BITMAP
18
18
DB
24
E7
24
DB
18
18
ENDCHAR
STARTCHAR U+0010
ENCODING 16
SWIDTH 800 0
DWIDTH 8 0
BBX 7 14 0 -2
BITMAP
80
C0
E0
F0
F8
FC
FE
FE
FC
F8
F0
E0
C0
80
ENDCHAR
STARTCHAR U+0011
ENCODING 17
SWIDTH 800 0
DWIDTH 8 0
BBX 7 14 1 -2
BITMAP
02
06
0E
1E
3E
7E
FE
FE
7E
3E
1E
0E
06
02
ENDCHAR
STARTCHAR U+0012
ENCODING 18
SWIDTH 800 0
DWIDTH 8 0
BBX 7 14 0 -2
BITMAP
10
38
7C
FE
38
38
38
38
38
38
FE
7C
38
10
ENDCHAR
STARTCHAR U+0013
ENCODING 19
SWIDTH 800 0
DWIDTH 8 0
BBX 6 13 1 -1
BITMAP
CC
CC
CC
CC
CC
CC
CC
CC
CC
00
CC
CC
CC
ENDCHAR
STARTCHAR U+0014
ENCODING 20
SWIDTH 800 0
DWIDTH 8 0
BBX 7 13 0 -2
BITMAP
7E
B6
B6
B6
B6
B6
76
16
16
16
16
16
16
ENDCHAR
STARTCHAR U+0015
ENCODING 21
SWIDTH 800 0
DWIDTH 8 0
BBX 7 14 0 -2
BITMAP
7C
C6
C0
78
6C
C6
C6
C6
C6
6C
3C
06
C6
7C
ENDCHAR
STARTCHAR U+0016
ENCODING 22
SWIDTH 800 0
DWIDTH 8 0
BBX 7 3 0 -2
BITMAP
FE
FE
FE
ENDCHAR
STARTCHAR U+0017
ENCODING 23
SWIDTH 800 0
DWIDTH 8 0
BBX 7 14 0 -2
BITMAP
10
38
7C
FE
38
38
38
38
38
38
FE
7C
38
FE
ENDCHAR
STARTCHAR U+0018
ENCODING 24
SWIDTH 800 0
DWIDTH 8 0
BBX 7 14 0 -2
BITMAP
10
38
7C
FE
38
38
38
38
38
38
38
38
38
38
ENDCHAR
STARTCHAR U+0019
ENCODING 25
SWIDTH 800 0
DWIDTH 8 0
BBX 7 14 0 -2
BITMAP
38
38
38
38
38
38
38
38
38
38
FE
7C
38
10
ENDCHAR
STARTCHAR U+001A
ENCODING 26
SWIDTH 800 0
DWIDTH 8 0
BBX 8 9 0 0
BITMAP
10
18
FC
FE
FF
FE
FC
18
10
ENDCHAR
STARTCHAR U+001B
ENCODING 27
SWIDTH 800 0
DWIDTH 8 0
BBX 8 9 0 0
BITMAP
08
18
3F
7F
FF
7F
3F
18
08
ENDCHAR
STARTCHAR U+001C
ENCODING 28
SWIDTH 800 0
DWIDTH 8 0
BBX 7 4 0 2
BITMAP
C0
C0
C0
FE
ENDCHAR
STARTCHAR U+001D
ENCODING 29
SWIDTH 800 0
DWIDTH 8 0
BBX 8 6 0 1
BITMAP
24
66
FF
FF
66
24
ENDCHAR
STARTCHAR U+001E
ENCODING 30
SWIDTH 800 0
DWIDTH 8 0
BBX 7 11 0 -1
BITMAP
10
10
38
38
7C
7C
FE
FE
FE
FE
FE
ENDCHAR
STARTCHAR U+001F
ENCODING 31
SWIDTH 800 0
DWIDTH 8 0
BBX 7 11 0 -1
BITMAP
FE
FE
FE
FE
FE
7C
7C
38
38
10
10
ENDCHAR
STARTCHAR U+0020
ENCODING 32
SWIDTH 900 0
DWIDTH 9 0
BBX 0 0 0 0
BITMAP
ENDCHAR
STARTCHAR U+0021
ENCODING 33
SWIDTH 800 0
DWIDTH 8 0
BBX 4 13 2 -2
BITMAP
60
F0
F0
F0
F0
F0
F0
60
60
60
00
60
60
ENDCHAR
STARTCHAR U+0022
ENCODING 34
SWIDTH 800 0
DWIDTH 8 0
BBX 7 5 0 8
BITMAP
EE
EE
EE
CC
66
ENDCHAR
STARTCHAR U+0023
ENCODING 35
SWIDTH 800 0
DWIDTH 8 0
BBX 7 12 0 -1
BITMAP
6C
6C
6C
FE
FE
6C
6C
FE
FE
6C
6C
6C
ENDCHAR
STARTCHAR U+0024
ENCODING 36
SWIDTH 800 0
DWIDTH 8 0
BBX 7 16 0 -3
BITMAP
10
10
7C
D6
D0
D0
D0
7C
16
16
16
16
D6
7C
10
10
ENDCHAR
STARTCHAR U+0025
ENCODING 37
SWIDTH 800 0
DWIDTH 8 0
BBX 8 14 0 -3
BITMAP
03
73
56
76
0C
0C
18
18
30
30
6E
6A
CE
C0
ENDCHAR
STARTCHAR U+0026
ENCODING 38
SWIDTH 800 0
DWIDTH 8 0
BBX 8 13 0 -2
BITMAP
3C
66
66
66
66
3C
3B
6E
C6
C6
C6
C6
7B
ENDCHAR
STARTCHAR U+0027
ENCODING 39
SWIDTH 800 0
DWIDTH 8 0
BBX 3 4 2 9
BITMAP
60
60
60
C0
ENDCHAR
STARTCHAR U+0028
ENCODING 40
SWIDTH 800 0
DWIDTH 8 0
BBX 5 14 1 -2
BITMAP
38
60
C0
C0
C0
C0
C0
C0
C0
C0
C0
C0
60
38
ENDCHAR
STARTCHAR U+0029
ENCODING 41
SWIDTH 800 0
DWIDTH 8 0
BBX 5 14 1 -2
BITMAP
E0
30
18
18
18
18
18
18
18
18
18
18
30
E0
ENDCHAR
STARTCHAR U+002A
ENCODING 42
SWIDTH 800 0
DWIDTH 8 0
BBX 8 10 0 0
BITMAP
66
66
3C
3C
FF
FF
3C
3C
66
66
ENDCHAR
STARTCHAR U+002B
ENCODING 43
SWIDTH 800 0
DWIDTH 8 0
BBX 8 8 0 1
BITMAP
18
18
18
FF
FF
18
18
18
ENDCHAR
STARTCHAR U+002C
ENCODING 44
SWIDTH 800 0
DWIDTH 8 0
BBX 3 5 2 -3
BITMAP
60
60
60
60
C0
ENDCHAR
STARTCHAR U+002D
ENCODING 45
SWIDTH 800 0
DWIDTH 8 0
BBX 7 2 0 3
BITMAP
FE
FE
ENDCHAR
STARTCHAR U+002E
ENCODING 46
SWIDTH 800 0
DWIDTH 8 0
BBX 3 3 2 -2
BITMAP
E0
E0
E0
ENDCHAR
STARTCHAR U+002F
ENCODING 47
SWIDTH 800 0
DWIDTH 8 0
BBX 8 15 0 -2
BITMAP
01
03
02
06
04
0C
08
18
10
30
20
60
40
C0
80
ENDCHAR
STARTCHAR U+0030
ENCODING 48
SWIDTH 800 0
DWIDTH 8 0
BBX 7 13 0 -2
BITMAP
7C
C6
C6
CE
CE
DE
D6
F6
E6
E6
C6
C6
7C
ENDCHAR
STARTCHAR U+0031
ENCODING 49
SWIDTH 800 0
DWIDTH 8 0
BBX 6 13 1 -2
BITMAP
30
70
F0
30
30
30
30
30
30
30
30
30
FC
ENDCHAR
STARTCHAR U+0032
ENCODING 50
SWIDTH 800 0
DWIDTH 8 0
BBX 7 13 0 -2
BITMAP
7C
C6
C6
06
06
06
0C
18
30
60
C0
C0
FE
ENDCHAR
STARTCHAR U+0033
ENCODING 51
SWIDTH 800 0
DWIDTH 8 0
BBX 7 13 0 -2
BITMAP
7C
C6
06
06
06
3C
06
06
06
06
06
C6
7C
ENDCHAR
STARTCHAR U+0034
ENCODING 52
SWIDTH 800 0
DWIDTH 8 0
BBX 7 13 0 -2
BITMAP
0C
1C
1C
3C
2C
6C
4C
CC
FE
FE
0C
0C
0C
ENDCHAR
STARTCHAR U+0035
ENCODING 53
SWIDTH 800 0
DWIDTH 8 0
BBX 7 13 0 -2
BITMAP
FE
C0
C0
C0
C0
FC
06
06
06
06
06
C6
7C
ENDCHAR
STARTCHAR U+0036
ENCODING 54
SWIDTH 800 0
DWIDTH 8 0
BBX 7 13 0 -2
BITMAP
3C
60
C0
C0
C0
DC
E6
C6
C6
C6
C6
C6
7C
ENDCHAR
STARTCHAR U+0037
ENCODING 55
SWIDTH 800 0
DWIDTH 8 0
BBX 7 13 0 -2
BITMAP
FE
C6
06
0C
0C
18
18
30
30
30
60
60
60
ENDCHAR
STARTCHAR U+0038
ENCODING 56
SWIDTH 800 0
DWIDTH 8 0
BBX 7 13 0 -2
BITMAP
7C
C6
C6
C6
C6
C6
7C
C6
C6
C6
C6
C6
7C
ENDCHAR
STARTCHAR U+0039
ENCODING 57
SWIDTH 800 0
DWIDTH 8 0
BBX 7 13 0 -2
BITMAP
7C
C6
C6
C6
C6
C6
C6
7E
06
06
06
C6
7C
ENDCHAR
STARTCHAR U+003A
ENCODING 58
SWIDTH 800 0
DWIDTH 8 0
BBX 2 11 3 -1
BITMAP
C0
C0
C0
C0
00
00
00
C0
C0
C0
C0
ENDCHAR
STARTCHAR U+003B
ENCODING 59
SWIDTH 800 0
DWIDTH 8 0
BBX 3 12 2 -2
BITMAP
60
60
60
60
00
00
00
60
60
60
60
C0
ENDCHAR
STARTCHAR U+003C
ENCODING 60
SWIDTH 800 0
DWIDTH 8 0
BBX 7 11 0 -1
BITMAP
06
0C
18
30
60
C0
60
30
18
0C
06
ENDCHAR
STARTCHAR U+003D
ENCODING 61
SWIDTH 800 0
DWIDTH 8 0
BBX 7 4 0 3
BITMAP
FE
00
00
FE
ENDCHAR
STARTCHAR U+003E
ENCODING 62
SWIDTH 800 0
DWIDTH 8 0
BBX 7 11 0 -1
BITMAP
C0
60
30
18
0C
06
0C
18
30
60
C0
ENDCHAR
STARTCHAR U+003F
ENCODING 63
SWIDTH 800 0
DWIDTH 8 0
BBX 7 13 0 -2
BITMAP
7C
C6
C6
C6
06
0C
18
30
30
30
00
30
30
ENDCHAR
STARTCHAR U+0040
ENCODING 64
SWIDTH 800 0
DWIDTH 8 0
BBX 7 12 0 -1
BITMAP
7C
C6
D6
D6
D6
D6
D6
D6
D6
DC
C0
7E
ENDCHAR
STARTCHAR U+0041
ENCODING 65
SWIDTH 800 0
DWIDTH 8 0
BBX 7 13 0 -2
BITMAP
10
38
6C
C6
C6
C6
C6
FE
C6
C6
C6
C6
C6
ENDCHAR
STARTCHAR U+0042
ENCODING 66
SWIDTH 800 0
DWIDTH 8 0
BBX 7 13 0 -2
BITMAP
FC
C6
C6
C6
C6
FC
C6
C6
C6
C6
C6
C6
FC
ENDCHAR
STARTCHAR U+0043
ENCODING 67
SWIDTH 800 0
DWIDTH 8 0
BBX 7 13 0 -2
BITMAP
3C
66
C2
C0
C0
C0
C0
C0
C0
C0
C2
66
3C
ENDCHAR
STARTCHAR U+0044
ENCODING 68
SWIDTH 800 0
DWIDTH 8 0
BBX 7 13 0 -2
BITMAP
F8
CC
C6
C6
C6
C6
C6
C6
C6
C6
C6
CC
F8
ENDCHAR
STARTCHAR U+0045
ENCODING 69
SWIDTH 800 0
DWIDTH 8 0
BBX 7 13 0 -2
BITMAP
FE
C6
C2
C0
C0
C4
FC
C4
C0
C0
C2
C6
FE
ENDCHAR
STARTCHAR U+0046
ENCODING 70
SWIDTH 800 0
DWIDTH 8 0
BBX 7 13 0 -2
BITMAP
FE
C6
C2
C0
C0
C4
FC
C4
C0
C0
C0
C0
C0
ENDCHAR
STARTCHAR U+0047
ENCODING 71
SWIDTH 800 0
DWIDTH 8 0
BBX 7 13 0 -2
BITMAP
3C
46
C6
C0
C0
C0
CE
C6
C6
C6
C6
46
3A
ENDCHAR
STARTCHAR U+0048
ENCODING 72
SWIDTH 800 0
DWIDTH 8 0
BBX 7 13 0 -2
BITMAP
C6
C6
C6
C6
C6
C6
FE
C6
C6
C6
C6
C6
C6
ENDCHAR
STARTCHAR U+0049
ENCODING 73
SWIDTH 800 0
DWIDTH 8 0
BBX 6 13 1 -2
BITMAP
FC
30
30
30
30
30
30
30
30
30
30
30
FC
ENDCHAR
STARTCHAR U+004A
ENCODING 74
SWIDTH 800 0
DWIDTH 8 0
BBX 7 13 0 -2
BITMAP
1E
06
06
06
06
06
06
06
06
C6
C6
C4
78
ENDCHAR
STARTCHAR U+004B
ENCODING 75
SWIDTH 800 0
DWIDTH 8 0
BBX 7 13 0 -2
BITMAP
C6
C6
C6
CC
CC
F8
F8
CC
CE
C6
C6
C6
C6
ENDCHAR
STARTCHAR U+004C
ENCODING 76
SWIDTH 800 0
DWIDTH 8 0
BBX 7 13 0 -2
BITMAP
E0
C0
C0
C0
C0
C0
C0
C0
C0
C0
C2
C6
FE
ENDCHAR
STARTCHAR U+004D
ENCODING 77
SWIDTH 800 0
DWIDTH 8 0
BBX 7 13 0 -2
BITMAP
C6
C6
EE
EE
FE
FE
D6
D6
C6
C6
C6
C6
C6
ENDCHAR
STARTCHAR U+004E
ENCODING 78
SWIDTH 800 0
DWIDTH 8 0
BBX 7 13 0 -2
BITMAP
C6
C6
E6
E6
F6
D6
DE
CE
CE
C6
C6
C6
C6
ENDCHAR
STARTCHAR U+004F
ENCODING 79
SWIDTH 800 0
DWIDTH 8 0
BBX 7 13 0 -2
BITMAP
7C
C6
C6
C6
C6
C6
C6
C6
C6
C6
C6
C6
7C
ENDCHAR
STARTCHAR U+0050
ENCODING 80
SWIDTH 800 0
DWIDTH 8 0
BBX 7 13 0 -2
BITMAP
FC
C6
C6
C6
C6
C6
FC
C0
C0
C0
C0
C0
C0
ENDCHAR
STARTCHAR U+0051
ENCODING 81
SWIDTH 800 0
DWIDTH 8 0
BBX 7 14 0 -3
BITMAP
7C
C6
C6
C6
C6
C6
C6
C6
C6
F6
D6
DE
7C
0E
ENDCHAR
STARTCHAR U+0052
ENCODING 82
SWIDTH 800 0
DWIDTH 8 0
BBX 7 13 0 -2
BITMAP
FC
C6
C6
C6
C6
C4
FC
C6
C6
C6
C6
C6
C6
ENDCHAR
STARTCHAR U+0053
ENCODING 83
SWIDTH 800 0
DWIDTH 8 0
BBX 7 13 0 -2
BITMAP
7C
C6
C6
C0
C0
60
38
0C
06
06
C6
C6
7C
ENDCHAR
STARTCHAR U+0054
ENCODING 84
SWIDTH 800 0
DWIDTH 8 0
BBX 8 13 0 -2
BITMAP
FF
DB
99
18
18
18
18
18
18
18
18
18
18
ENDCHAR
STARTCHAR U+0055
ENCODING 85
SWIDTH 800 0
DWIDTH 8 0
BBX 7 13 0 -2
BITMAP
C6
C6
C6
C6
C6
C6
C6
C6
C6
C6
C6
C6
7C
ENDCHAR
STARTCHAR U+0056
ENCODING 86
SWIDTH 800 0
DWIDTH 8 0
BBX 7 13 0 -2
BITMAP
C6
C6
C6
C6
C6
C6
C6
44
6C
6C
28
38
10
ENDCHAR
STARTCHAR U+0057
ENCODING 87
SWIDTH 800 0
DWIDTH 8 0
BBX 7 13 0 -2
BITMAP
C6
C6
C6
C6
C6
C6
C6
D6
D6
D6
FE
6C
6C
ENDCHAR
STARTCHAR U+0058
ENCODING 88
SWIDTH 800 0
DWIDTH 8 0
BBX 7 13 0 -2
BITMAP
C6
C6
C6
6C
6C
38
38
28
6C
6C
C6
C6
C6
ENDCHAR
STARTCHAR U+0059
ENCODING 89
SWIDTH 800 0
DWIDTH 8 0
BBX 8 13 0 -2
BITMAP
C3
C3
C3
66
66
66
3C
3C
18
18
18
18
18
ENDCHAR
STARTCHAR U+005A
ENCODING 90
SWIDTH 800 0
DWIDTH 8 0
BBX 7 13 0 -2
BITMAP
FE
C6
86
0C
0C
18
18
30
60
60
C2
C6
FE
ENDCHAR
STARTCHAR U+005B
ENCODING 91
SWIDTH 800 0
DWIDTH 8 0
BBX 5 14 1 -2
BITMAP
F8
C0
C0
C0
C0
C0
C0
C0
C0
C0
C0
C0
C0
F8
ENDCHAR
STARTCHAR U+005C
ENCODING 92
SWIDTH 800 0
DWIDTH 8 0
BBX 8 15 0 -2
BITMAP
80
C0
40
60
20
30
10
18
08
0C
04
06
02
03
01
ENDCHAR
STARTCHAR U+005D
ENCODING 93
SWIDTH 800 0
DWIDTH 8 0
BBX 5 14 1 -2
BITMAP
F8
18
18
18
18
18
18
18
18
18
18
18
18
F8
ENDCHAR
STARTCHAR U+005E
ENCODING 94
SWIDTH 800 0
DWIDTH 8 0
BBX 7 6 0 6
BITMAP
10
38
28
6C
44
C6
ENDCHAR
STARTCHAR U+005F
ENCODING 95
SWIDTH 800 0
DWIDTH 8 0
BBX 7 1 0 -3
BITMAP
FE
ENDCHAR
STARTCHAR U+0060
ENCODING 96
SWIDTH 800 0
DWIDTH 8 0
BBX 3 5 3 8
BITMAP
C0
C0
C0
C0
60
ENDCHAR
STARTCHAR U+0061
ENCODING 97
SWIDTH 800 0
DWIDTH 8 0
BBX 7 9 0 -2
BITMAP
7C
06
06
7E
C6
C6
C6
C6
7A
ENDCHAR
STARTCHAR U+0062
ENCODING 98
SWIDTH 800 0
DWIDTH 8 0
BBX 7 13 0 -2
BITMAP
C0
C0
C0
C0
F8
C4
C6
C6
C6
C6
C6
C6
FC
ENDCHAR
STARTCHAR U+0063
ENCODING 99
SWIDTH 800 0
DWIDTH 8 0
BBX 7 9 0 -2
BITMAP
7C
C6
C0
C0
C0
C0
C0
C6
7C
ENDCHAR
STARTCHAR U+0064
ENCODING 100
SWIDTH 800 0
DWIDTH 8 0
BBX 7 13 0 -2
BITMAP
0E
06
06
06
3E
46
C6
C6
C6
C6
C6
C6
7A
ENDCHAR
STARTCHAR U+0065
ENCODING 101
SWIDTH 800 0
DWIDTH 8 0
BBX 7 9 0 -2
BITMAP
7C
C6
C6
C6
FE
C0
C0
C6
7C
ENDCHAR
STARTCHAR U+0066
ENCODING 102
SWIDTH 800 0
DWIDTH 8 0
BBX 7 13 0 -2
BITMAP
3C
66
60
60
60
60
FC
60
60
60
60
60
F0
ENDCHAR
STARTCHAR U+0067
ENCODING 103
SWIDTH 800 0
DWIDTH 8 0
BBX 8 10 0 -3
BITMAP
7B
C6
C6
C6
C6
C6
7E
06
C6
7C
ENDCHAR
STARTCHAR U+0068
ENCODING 104
SWIDTH 800 0
DWIDTH 8 0
BBX 7 13 0 -2
BITMAP
C0
C0
C0
C0
DC
E6
C6
C6
C6
C6
C6
C6
C6
ENDCHAR
STARTCHAR U+0069
ENCODING 105
SWIDTH 800 0
DWIDTH 8 0
BBX 6 12 0 -2
BITMAP
30
30
00
70
30
30
30
30
30
30
30
FC
ENDCHAR
STARTCHAR U+006A
ENCODING 106
SWIDTH 800 0
DWIDTH 8 0
BBX 6 13 1 -3
BITMAP
0C
0C
00
1C
0C
0C
0C
0C
0C
0C
0C
CC
78
ENDCHAR
STARTCHAR U+006B
ENCODING 107
SWIDTH 800 0
DWIDTH 8 0
BBX 7 11 0 -2
BITMAP
C0
C0
C6
C6
CC
F8
CC
CC
C6
C6
C6
ENDCHAR
STARTCHAR U+006C
ENCODING 108
SWIDTH 800 0
DWIDTH 8 0
BBX 4 13 2 -2
BITMAP
E0
60
60
60
60
60
60
60
60
60
60
60
F0
ENDCHAR
STARTCHAR U+006D
ENCODING 109
SWIDTH 800 0
DWIDTH 8 0
BBX 7 9 0 -2
BITMAP
BC
D6
D6
D6
D6
D6
D6
D6
D6
ENDCHAR
STARTCHAR U+006E
ENCODING 110
SWIDTH 800 0
DWIDTH 8 0
BBX 7 9 0 -2
BITMAP
DC
66
66
66
66
66
66
66
66
ENDCHAR
STARTCHAR U+006F
ENCODING 111
SWIDTH 800 0
DWIDTH 8 0
BBX 7 9 0 -2
BITMAP
7C
C6
C6
C6
C6
C6
C6
C6
7C
ENDCHAR
STARTCHAR U+0070
ENCODING 112
SWIDTH 800 0
DWIDTH 8 0
BBX 7 10 0 -3
BITMAP
BC
C6
C6
C6
C6
C6
FC
C0
C0
C0
ENDCHAR
STARTCHAR U+0071
ENCODING 113
SWIDTH 800 0
DWIDTH 8 0
BBX 8 10 0 -3
BITMAP
7B
C6
C6
C6
C6
CE
CE
76
0F
06
ENDCHAR
STARTCHAR U+0072
ENCODING 114
SWIDTH 800 0
DWIDTH 8 0
BBX 7 9 0 -2
BITMAP
DC
66
66
60
60
60
60
60
F0
ENDCHAR
STARTCHAR U+0073
ENCODING 115
SWIDTH 800 0
DWIDTH 8 0
BBX 7 9 0 -2
BITMAP
7C
C6
C0
C0
7C
06
06
C6
7C
ENDCHAR
STARTCHAR U+0074
ENCODING 116
SWIDTH 800 0
DWIDTH 8 0
BBX 5 13 1 -2
BITMAP
20
60
60
F8
60
60
60
60
60
60
60
60
38
ENDCHAR
STARTCHAR U+0075
ENCODING 117
SWIDTH 900 0
DWIDTH 9 0
BBX 8 9 0 -2
BITMAP
C6
C6
C6
C6
C6
C6
C6
CE
77
ENDCHAR
STARTCHAR U+0076
ENCODING 118
SWIDTH 800 0
DWIDTH 8 0
BBX 7 9 0 -2
BITMAP
C6
C6
C6
C6
C6
C6
6C
38
10
ENDCHAR
STARTCHAR U+0077
ENCODING 119
SWIDTH 800 0
DWIDTH 8 0
BBX 7 9 0 -2
BITMAP
C6
C6
C6
D6
D6
D6
D6
FE
6C
ENDCHAR
STARTCHAR U+0078
ENCODING 120
SWIDTH 800 0
DWIDTH 8 0
BBX 7 9 0 -2
BITMAP
C6
C6
6C
38
10
38
6C
C6
C6
ENDCHAR
STARTCHAR U+0079
ENCODING 121
SWIDTH 800 0
DWIDTH 8 0
BBX 7 10 0 -3
BITMAP
C6
C6
C6
C6
C6
CE
76
06
0C
78
ENDCHAR
STARTCHAR U+007A
ENCODING 122
SWIDTH 800 0
DWIDTH 8 0
BBX 7 9 0 -2
BITMAP
FE
C6
8C
18
38
30
62
C6
FE
ENDCHAR
STARTCHAR U+007B
ENCODING 123
SWIDTH 800 0
DWIDTH 8 0
BBX 7 14 0 -2
BITMAP
0E
18
30
30
30
30
E0
30
30
30
30
30
18
0E
ENDCHAR
STARTCHAR U+007C
ENCODING 124
SWIDTH 800 0
DWIDTH 8 0
BBX 2 14 3 -2
BITMAP
C0
C0
C0
C0
C0
C0
C0
C0
C0
C0
C0
C0
C0
C0
ENDCHAR
STARTCHAR U+007D
ENCODING 125
SWIDTH 800 0
DWIDTH 8 0
BBX 7 14 0 -2
BITMAP
E0
30
18
18
18
18
0E
18
18
18
18
18
30
E0
ENDCHAR
STARTCHAR U+007E
ENCODING 126
SWIDTH 800 0
DWIDTH 8 0
BBX 8 3 0 3
BITMAP
73
DB
CE
ENDCHAR
STARTCHAR U+007F
ENCODING 127
SWIDTH 800 0
DWIDTH 8 0
BBX 7 7 0 1
BITMAP
10
38
6C
C6
C6
C6
FE
ENDCHAR
STARTCHAR U+0099
ENCODING 153
SWIDTH 800 0
DWIDTH 8 0
BBX 7 7 0 1
BITMAP
7C
82
BA
A2
BA
82
7C
ENDCHAR
STARTCHAR U+00A1
ENCODING 161
SWIDTH 800 0
DWIDTH 8 0
BBX 4 12 2 -1
BITMAP
60
60
00
60
60
60
F0
F0
F0
F0
F0
60
ENDCHAR
STARTCHAR U+00A2
ENCODING 162
SWIDTH 800 0
DWIDTH 8 0
BBX 8 14 0 -2
BITMAP
18
18
18
7E
C3
C0
C0
C0
C0
C3
7E
18
18
18
ENDCHAR
STARTCHAR U+00A3
ENCODING 163
SWIDTH 800 0
DWIDTH 8 0
BBX 7 12 0 -1
BITMAP
3C
66
60
60
60
F8
60
60
60
C0
C0
FE
ENDCHAR
STARTCHAR U+00A4
ENCODING 164
SWIDTH 800 0
DWIDTH 8 0
BBX 6 6 1 2
BITMAP
84
78
48
48
78
84
ENDCHAR
STARTCHAR U+00A5
ENCODING 165
SWIDTH 800 0
DWIDTH 8 0
BBX 6 13 1 -2
BITMAP
CC
CC
CC
CC
CC
78
30
FC
30
FC
30
30
30
ENDCHAR
STARTCHAR U+00A6
ENCODING 166
SWIDTH 800 0
DWIDTH 8 0
BBX 2 13 3 -2
BITMAP
C0
C0
C0
C0
C0
C0
00
C0
C0
C0
C0
C0
C0
ENDCHAR
STARTCHAR U+00A7
ENCODING 167
SWIDTH 900 0
DWIDTH 9 0
BBX 7 12 1 -1
BITMAP
7C
C6
60
38
6C
C6
C6
6C
38
0C
C6
7C
ENDCHAR
STARTCHAR U+00A8
ENCODING 168
SWIDTH 800 0
DWIDTH 8 0
BBX 6 4 1 9
BITMAP
CC
CC
CC
CC
ENDCHAR
STARTCHAR U+00A9
ENCODING 169
SWIDTH 800 0
DWIDTH 8 0
BBX 8 4 0 4
BITMAP
FF
C0
C0
C0
ENDCHAR
STARTCHAR U+00AA
ENCODING 170
SWIDTH 800 0
DWIDTH 8 0
BBX 6 6 1 7
BITMAP
78
D8
D8
7C
00
FC
ENDCHAR
STARTCHAR U+00AB
ENCODING 171
SWIDTH 800 0
DWIDTH 8 0
BBX 7 5 0 2
BITMAP
36
6C
D8
6C
36
ENDCHAR
STARTCHAR U+00AC
ENCODING 172
SWIDTH 800 0
DWIDTH 8 0
BBX 8 4 0 4
BITMAP
FF
03
03
03
ENDCHAR
STARTCHAR U+00AD
ENCODING 173
SWIDTH 800 0
DWIDTH 8 0
BBX 4 13 2 -1
BITMAP
60
60
00
60
60
60
F0
F0
F0
F0
F0
F0
60
ENDCHAR
STARTCHAR U+00AE
ENCODING 174
SWIDTH 900 0
DWIDTH 9 0
BBX 7 5 1 2
BITMAP
36
6C
D8
6C
36
ENDCHAR
STARTCHAR U+00AF
ENCODING 175
SWIDTH 800 0
DWIDTH 8 0
BBX 4 1 2 11
BITMAP
F0
ENDCHAR
STARTCHAR U+00B0
ENCODING 176
SWIDTH 800 0
DWIDTH 8 0
BBX 6 5 1 8
BITMAP
78
CC
CC
CC
78
ENDCHAR
STARTCHAR U+00B1
ENCODING 177
SWIDTH 800 0
DWIDTH 8 0
BBX 5 7 1 2
BITMAP
20
20
F8
20
20
00
F8
ENDCHAR
STARTCHAR U+00B2
ENCODING 178
SWIDTH 800 0
DWIDTH 8 0
BBX 6 7 1 6
BITMAP
78
CC
0C
18
30
60
FC
ENDCHAR
STARTCHAR U+00B3
ENCODING 179
SWIDTH 800 0
DWIDTH 8 0
BBX 6 7 1 6
BITMAP
F8
0C
0C
78
0C
0C
F8
ENDCHAR
STARTCHAR U+00B4
ENCODING 180
SWIDTH 800 0
DWIDTH 8 0
BBX 5 4 1 9
BITMAP
18
30
60
C0
ENDCHAR
STARTCHAR U+00B5
ENCODING 181
SWIDTH 800 0
DWIDTH 8 0
BBX 8 10 0 -3
BITMAP
63
63
63
63
63
63
63
7E
60
C0
ENDCHAR
STARTCHAR U+00B6
ENCODING 182
SWIDTH 800 0
DWIDTH 8 0
BBX 7 13 0 -2
BITMAP
7E
B6
B6
B6
B6
B6
76
16
16
16
16
16
16
ENDCHAR
STARTCHAR U+00B7
ENCODING 183
SWIDTH 800 0
DWIDTH 8 0
BBX 3 3 2 4
BITMAP
E0
E0
E0
ENDCHAR
STARTCHAR U+00B8
ENCODING 184
SWIDTH 800 0
DWIDTH 8 0
BBX 3 2 2 -2
BITMAP
20
E0
ENDCHAR
STARTCHAR U+00B9
ENCODING 185
SWIDTH 800 0
DWIDTH 8 0
BBX 4 8 1 5
BITMAP
30
70
F0
30
30
30
30
30
ENDCHAR
STARTCHAR U+00BA
ENCODING 186
SWIDTH 800 0
DWIDTH 8 0
BBX 6 7 1 6
BITMAP
78
CC
CC
CC
78
00
FC
ENDCHAR
STARTCHAR U+00BB
ENCODING 187
SWIDTH 900 0
DWIDTH 9 0
BBX 7 5 1 2
BITMAP
D8
6C
36
6C
D8
ENDCHAR
STARTCHAR U+00BC
ENCODING 188
SWIDTH 800 0
DWIDTH 8 0
BBX 7 13 0 -1
BITMAP
C0
40
40
42
44
08
10
20
44
8C
14
1E
04
ENDCHAR
STARTCHAR U+00BD
ENCODING 189
SWIDTH 800 0
DWIDTH 8 0
BBX 7 14 0 -2
BITMAP
C0
40
40
42
44
08
10
20
40
8C
12
04
08
1E
ENDCHAR
STARTCHAR U+00BE
ENCODING 190
SWIDTH 800 0
DWIDTH 8 0
BBX 7 13 0 -1
BITMAP
E0
30
E0
32
E4
08
10
20
44
8C
14
1E
04
ENDCHAR
STARTCHAR U+00BF
ENCODING 191
SWIDTH 800 0
DWIDTH 8 0
BBX 7 13 1 -1
BITMAP
18
18
00
18
18
18
30
60
C0
C6
C6
C6
7C
ENDCHAR
STARTCHAR U+00C4
ENCODING 196
SWIDTH 800 0
DWIDTH 8 0
BBX 7 15 0 -2
BITMAP
C6
C6
10
38
6C
C6
C6
C6
C6
FE
C6
C6
C6
C6
C6
ENDCHAR
STARTCHAR U+00C5
ENCODING 197
SWIDTH 800 0
DWIDTH 8 0
BBX 7 15 0 -2
BITMAP
38
28
38
10
38
6C
C6
C6
C6
C6
FE
C6
C6
C6
C6
ENDCHAR
STARTCHAR U+00C6
ENCODING 198
SWIDTH 800 0
DWIDTH 8 0
BBX 8 13 0 -2
BITMAP
3F
6C
CC
CC
CC
CC
FF
CC
CC
CC
CC
CC
CF
ENDCHAR
STARTCHAR U+00C7
ENCODING 199
SWIDTH 800 0
DWIDTH 8 0
BBX 8 14 0 -3
BITMAP
3E
63
C1
C0
C0
C0
C0
C0
C0
C1
63
3E
06
7C
ENDCHAR
STARTCHAR U+00C9
ENCODING 201
SWIDTH 800 0
DWIDTH 8 0
BBX 7 15 0 -2
BITMAP
0C
18
30
FE
C6
C2
C0
C4
FC
C4
C0
C0
C2
C6
FE
ENDCHAR
STARTCHAR U+00D0
ENCODING 208
SWIDTH 800 0
DWIDTH 8 0
BBX 8 13 0 -2
BITMAP
FC
66
63
63
63
FB
63
63
63
63
63
66
FC
ENDCHAR
STARTCHAR U+00D1
ENCODING 209
SWIDTH 800 0
DWIDTH 8 0
BBX 7 15 0 -2
BITMAP
66
FE
D8
C6
E6
E6
F6
D6
DE
CE
CE
C6
C6
C6
C6
ENDCHAR
STARTCHAR U+00D6
ENCODING 214
SWIDTH 800 0
DWIDTH 8 0
BBX 7 15 0 -2
BITMAP
6C
6C
00
7C
C6
C6
C6
C6
C6
C6
C6
C6
C6
C6
7C
ENDCHAR
STARTCHAR U+00D7
ENCODING 215
SWIDTH 900 0
DWIDTH 9 0
BBX 7 6 1 2
BITMAP
C6
6C
38
38
6C
C6
ENDCHAR
STARTCHAR U+00D8
ENCODING 216
SWIDTH 800 0
DWIDTH 8 0
BBX 8 14 0 -2
BITMAP
01
7F
C6
C6
CE
CE
DE
D6
F6
E6
E6
C6
C6
FC
ENDCHAR
STARTCHAR U+00DC
ENCODING 220
SWIDTH 800 0
DWIDTH 8 0
BBX 7 15 0 -2
BITMAP
C6
C6
00
C6
C6
C6
C6
C6
C6
C6
C6
C6
C6
C6
7C
ENDCHAR
STARTCHAR U+00DF
ENCODING 223
SWIDTH 800 0
DWIDTH 8 0
BBX 8 13 0 -2
BITMAP
7C
C6
C6
C6
C6
D8
CE
C3
C3
C3
C3
C3
CE
ENDCHAR
STARTCHAR U+00E0
ENCODING 224
SWIDTH 800 0
DWIDTH 8 0
BBX 7 13 0 -2
BITMAP
60
30
18
00
7C
06
06
7E
C6
C6
C6
C6
7A
ENDCHAR
STARTCHAR U+00E1
ENCODING 225
SWIDTH 800 0
DWIDTH 8 0
BBX 7 13 0 -2
BITMAP
0C
18
30
00
7C
06
06
7E
C6
C6
C6
C6
7A
ENDCHAR
STARTCHAR U+00E2
ENCODING 226
SWIDTH 800 0
DWIDTH 8 0
BBX 7 13 0 -2
BITMAP
10
28
6C
00
7C
06
06
7E
C6
C6
C6
C6
7A
ENDCHAR
STARTCHAR U+00E3
ENCODING 227
SWIDTH 800 0
DWIDTH 8 0
BBX 7 12 0 -2
BITMAP
76
DC
00
7C
06
06
7E
C6
C6
C6
C6
7A
ENDCHAR
STARTCHAR U+00E4
ENCODING 228
SWIDTH 800 0
DWIDTH 8 0
BBX 7 13 0 -2
BITMAP
66
66
00
00
7C
06
06
7E
C6
C6
C6
C6
7A
ENDCHAR
STARTCHAR U+00E5
ENCODING 229
SWIDTH 800 0
DWIDTH 8 0
BBX 7 13 0 -2
BITMAP
38
44
38
00
7C
06
06
7E
C6
C6
C6
C6
7A
ENDCHAR
STARTCHAR U+00E6
ENCODING 230
SWIDTH 800 0
DWIDTH 8 0
BBX 8 8 0 -1
BITMAP
6E
99
19
7F
D8
D8
D8
77
ENDCHAR
STARTCHAR U+00E7
ENCODING 231
SWIDTH 800 0
DWIDTH 8 0
BBX 7 10 0 -3
BITMAP
7C
C6
C0
C0
C0
C0
C6
7C
0C
78
ENDCHAR
STARTCHAR U+00E8
ENCODING 232
SWIDTH 800 0
DWIDTH 8 0
BBX 7 13 0 -2
BITMAP
60
30
18
00
7C
C6
C6
C6
FE
C0
C0
C6
7C
ENDCHAR
STARTCHAR U+00E9
ENCODING 233
SWIDTH 800 0
DWIDTH 8 0
BBX 7 13 0 -2
BITMAP
0C
18
30
00
7C
C6
C6
C6
FE
C0
C0
C6
7C
ENDCHAR
STARTCHAR U+00EA
ENCODING 234
SWIDTH 800 0
DWIDTH 8 0
BBX 7 13 0 -2
BITMAP
10
28
6C
00
7C
C6
C6
C6
FE
C0
C0
C6
7C
ENDCHAR
STARTCHAR U+00EB
ENCODING 235
SWIDTH 800 0
DWIDTH 8 0
BBX 7 13 0 -2
BITMAP
66
66
00
00
7C
C6
C6
C6
FE
C0
C0
C6
7C
ENDCHAR
STARTCHAR U+00EC
ENCODING 236
SWIDTH 800 0
DWIDTH 8 0
BBX 6 13 0 -2
BITMAP
C0
60
30
00
70
30
30
30
30
30
30
30
FC
ENDCHAR
STARTCHAR U+00ED
ENCODING 237
SWIDTH 800 0
DWIDTH 8 0
BBX 6 13 0 -2
BITMAP
0C
18
30
00
70
30
30
30
30
30
30
30
FC
ENDCHAR
STARTCHAR U+00EE
ENCODING 238
SWIDTH 800 0
DWIDTH 8 0
BBX 6 13 0 -2
BITMAP
20
50
D8
00
70
30
30
30
30
30
30
30
FC
ENDCHAR
STARTCHAR U+00EF
ENCODING 239
SWIDTH 800 0
DWIDTH 8 0
BBX 6 13 0 -2
BITMAP
CC
CC
00
00
70
30
30
30
30
30
30
30
FC
ENDCHAR
STARTCHAR U+00F1
ENCODING 241
SWIDTH 800 0
DWIDTH 8 0
BBX 7 12 0 -2
BITMAP
76
DC
00
DC
66
66
66
66
66
66
66
66
ENDCHAR
STARTCHAR U+00F2
ENCODING 242
SWIDTH 800 0
DWIDTH 8 0
BBX 7 13 0 -2
BITMAP
60
30
18
00
7C
C6
C6
C6
C6
C6
C6
C6
7C
ENDCHAR
STARTCHAR U+00F3
ENCODING 243
SWIDTH 800 0
DWIDTH 8 0
BBX 7 13 0 -2
BITMAP
0C
18
30
00
7C
C6
C6
C6
C6
C6
C6
C6
7C
ENDCHAR
STARTCHAR U+00F4
ENCODING 244
SWIDTH 800 0
DWIDTH 8 0
BBX 7 13 0 -2
BITMAP
10
28
6C
00
7C
C6
C6
C6
C6
C6
C6
C6
7C
ENDCHAR
STARTCHAR U+00F5
ENCODING 245
SWIDTH 800 0
DWIDTH 8 0
BBX 7 12 0 -2
BITMAP
76
DC
00
7C
C6
C6
C6
C6
C6
C6
C6
7C
ENDCHAR
STARTCHAR U+00F6
ENCODING 246
SWIDTH 800 0
DWIDTH 8 0
BBX 7 13 0 -2
BITMAP
6C
6C
00
00
7C
C6
C6
C6
C6
C6
C6
C6
7C
ENDCHAR
STARTCHAR U+00F7
ENCODING 247
SWIDTH 800 0
DWIDTH 8 0
BBX 7 11 0 0
BITMAP
38
38
38
00
00
FE
00
00
38
38
38
ENDCHAR
STARTCHAR U+00F8
ENCODING 248
SWIDTH 800 0
DWIDTH 8 0
BBX 8 11 0 -3
BITMAP
01
7E
C6
CE
CE
D6
D6
E6
E6
7C
80
ENDCHAR
STARTCHAR U+00F9
ENCODING 249
SWIDTH 900 0
DWIDTH 9 0
BBX 8 13 0 -2
BITMAP
60
30
18
00
C6
C6
C6
C6
C6
C6
C6
CE
77
ENDCHAR
STARTCHAR U+00FA
ENCODING 250
SWIDTH 900 0
DWIDTH 9 0
BBX 8 13 0 -2
BITMAP
0C
18
30
00
C6
C6
C6
C6
C6
C6
C6
CE
77
ENDCHAR
STARTCHAR U+00FB
ENCODING 251
SWIDTH 900 0
DWIDTH 9 0
BBX 8 13 0 -2
BITMAP
10
28
6C
00
C6
C6
C6
C6
C6
C6
C6
CE
77
ENDCHAR
STARTCHAR U+00FC
ENCODING 252
SWIDTH 900 0
DWIDTH 9 0
BBX 8 13 0 -2
BITMAP
C6
C6
00
00
C6
C6
C6
C6
C6
C6
C6
CE
77
ENDCHAR
STARTCHAR U+00FD
ENCODING 253
SWIDTH 800 0
DWIDTH 8 0
BBX 7 14 0 -3
BITMAP
0C
18
30
00
C6
C6
C6
C6
C6
CE
76
06
0C
78
ENDCHAR
STARTCHAR U+00FE
ENCODING 254
SWIDTH 800 0
DWIDTH 8 0
BBX 6 12 1 -1
BITMAP
C0
C0
C0
F8
CC
CC
CC
CC
F8
C0
C0
C0
ENDCHAR
STARTCHAR U+00FF
ENCODING 255
SWIDTH 800 0
DWIDTH 8 0
BBX 7 14 0 -3
BITMAP
C6
C6
00
00
C6
C6
C6
C6
C6
CE
76
06
0C
78
ENDCHAR
STARTCHAR U+0101
ENCODING 257
SWIDTH 800 0
DWIDTH 8 0
BBX 7 12 0 -2
BITMAP
FE
00
00
7C
06
06
7E
C6
C6
C6
C6
7A
ENDCHAR
STARTCHAR U+0103
ENCODING 259
SWIDTH 800 0
DWIDTH 8 0
BBX 7 13 0 -2
BITMAP
6C
28
10
00
7C
06
06
7E
C6
C6
C6
C6
7A
ENDCHAR
STARTCHAR U+010B
ENCODING 267
SWIDTH 800 0
DWIDTH 8 0
BBX 7 13 0 -2
BITMAP
30
30
00
00
7C
C6
C0
C0
C0
C0
C0
C6
7C
ENDCHAR
STARTCHAR U+0113
ENCODING 275
SWIDTH 800 0
DWIDTH 8 0
BBX 7 12 0 -2
BITMAP
FE
00
00
7C
C6
C6
C6
FE
C0
C0
C6
7C
ENDCHAR
STARTCHAR U+0115
ENCODING 277
SWIDTH 800 0
DWIDTH 8 0
BBX 7 13 0 -2
BITMAP
6C
28
10
00
7C
C6
C6
C6
FE
C0
C0
C6
7C
ENDCHAR
STARTCHAR U+0117
ENCODING 279
SWIDTH 800 0
DWIDTH 8 0
BBX 7 13 0 -2
BITMAP
30
30
00
00
7C
C6
C6
C6
FE
C0
C0
C6
7C
ENDCHAR
STARTCHAR U+011F
ENCODING 287
SWIDTH 800 0
DWIDTH 8 0
BBX 8 14 0 -3
BITMAP
6C
28
10
00
7B
C6
C6
C6
C6
C6
7E
06
C6
7C
ENDCHAR
STARTCHAR U+0121
ENCODING 289
SWIDTH 800 0
DWIDTH 8 0
BBX 8 14 0 -3
BITMAP
18
18
00
00
7B
C6
C6
C6
C6
C6
7E
06
C6
7C
ENDCHAR
STARTCHAR U+0122
ENCODING 290
SWIDTH 800 0
DWIDTH 8 0
BBX 7 14 0 -3
BITMAP
3C
46
C6
C0
C0
C0
CE
C6
C6
C6
46
3A
0C
78
ENDCHAR
STARTCHAR U+0123
ENCODING 291
SWIDTH 800 0
DWIDTH 8 0
BBX 8 14 0 -3
BITMAP
06
0C
18
00
7B
C6
C6
C6
C6
C6
7E
06
C6
7C
ENDCHAR
STARTCHAR U+0132
ENCODING 306
SWIDTH 800 0
DWIDTH 8 0
BBX 8 12 0 -1
BITMAP
F7
63
63
63
63
63
63
63
63
63
63
F6
ENDCHAR
STARTCHAR U+0166
ENCODING 358
SWIDTH 800 0
DWIDTH 8 0
BBX 8 13 0 -2
BITMAP
FF
DB
99
18
18
18
7E
18
18
18
18
18
18
ENDCHAR
STARTCHAR U+0172
ENCODING 370
SWIDTH 800 0
DWIDTH 8 0
BBX 7 14 0 -3
BITMAP
C6
C6
C6
C6
C6
C6
C6
C6
C6
C6
C6
7C
0C
78
ENDCHAR
STARTCHAR U+0178
ENCODING 376
SWIDTH 800 0
DWIDTH 8 0
BBX 8 15 0 -2
BITMAP
66
66
00
C3
C3
66
66
66
3C
3C
18
18
18
18
18
ENDCHAR
STARTCHAR U+017A
ENCODING 378
SWIDTH 800 0
DWIDTH 8 0
BBX 7 13 0 -2
BITMAP
0C
18
30
00
FE
C6
8C
18
38
30
62
C6
FE
ENDCHAR
STARTCHAR U+0180
ENCODING 384
SWIDTH 800 0
DWIDTH 8 0
BBX 8 13 0 -2
BITMAP
E0
60
F0
60
7C
62
63
63
63
63
63
63
7E
ENDCHAR
STARTCHAR U+0192
ENCODING 402
SWIDTH 800 0
DWIDTH 8 0
BBX 8 13 0 -2
BITMAP
0E
1B
18
18
18
7E
18
18
18
18
18
D8
70
ENDCHAR
STARTCHAR U+0195
ENCODING 405
SWIDTH 800 0
DWIDTH 8 0
BBX 7 13 0 -2
BITMAP
80
80
80
80
80
A2
D2
92
92
92
92
92
0C
ENDCHAR
STARTCHAR U+01B5
ENCODING 437
SWIDTH 800 0
DWIDTH 8 0
BBX 7 13 0 -2
BITMAP
FE
C6
86
0C
0C
18
FE
30
60
60
C2
C6
FE
ENDCHAR
STARTCHAR U+0234
ENCODING 564
SWIDTH 800 0
DWIDTH 8 0
BBX 6 11 0 -2
BITMAP
20
20
20
20
20
20
20
20
38
74
D8
ENDCHAR
STARTCHAR U+0238
ENCODING 568
SWIDTH 800 0
DWIDTH 8 0
BBX 8 13 0 -2
BITMAP
18
18
18
18
18
18
18
7E
DB
DB
DB
DB
7E
ENDCHAR
STARTCHAR U+0239
ENCODING 569
SWIDTH 800 0
DWIDTH 8 0
BBX 8 13 0 -2
BITMAP
7E
DB
DB
DB
DB
7E
18
18
18
18
18
18
18
ENDCHAR
STARTCHAR U+0268
ENCODING 616
SWIDTH 900 0
DWIDTH 9 0
BBX 7 8 1 1
BITMAP
38
44
C6
C6
C6
C6
44
38
ENDCHAR
STARTCHAR U+0269
ENCODING 617
SWIDTH 900 0
DWIDTH 9 0
BBX 8 16 0 -3
BITMAP
FF
FF
FF
FF
FF
C3
99
BD
BD
99
C3
FF
FF
FF
FF
FF
ENDCHAR
STARTCHAR U+026A
ENCODING 618
SWIDTH 800 0
DWIDTH 8 0
BBX 8 11 0 -1
BITMAP
0F
07
0F
3D
44
C6
C6
C6
C6
44
38
ENDCHAR
STARTCHAR U+026B
ENCODING 619
SWIDTH 800 0
DWIDTH 8 0
BBX 8 15 0 -2
BITMAP
3C
42
C3
C3
C3
C3
C3
42
3C
18
18
18
7E
18
18
ENDCHAR
STARTCHAR U+026C
ENCODING 620
SWIDTH 900 0
DWIDTH 9 0
BBX 7 12 1 -1
BITMAP
10
18
1C
16
12
10
10
10
10
70
F0
60
ENDCHAR
STARTCHAR U+0288
ENCODING 648
SWIDTH 900 0
DWIDTH 9 0
BBX 4 9 3 -2
BITMAP
40
E0
40
40
40
40
40
40
30
ENDCHAR
STARTCHAR U+02C4
ENCODING 708
SWIDTH 800 0
DWIDTH 8 0
BBX 7 8 0 1
BITMAP
10
10
28
28
44
44
82
82
ENDCHAR
STARTCHAR U+02C5
ENCODING 709
SWIDTH 800 0
DWIDTH 8 0
BBX 7 8 0 1
BITMAP
82
82
44
44
28
28
10
10
ENDCHAR
STARTCHAR U+02C6
ENCODING 710
SWIDTH 800 0
DWIDTH 8 0
BBX 8 3 0 10
BITMAP
3C
42
81
ENDCHAR
STARTCHAR U+02C7
ENCODING 711
SWIDTH 800 0
DWIDTH 8 0
BBX 8 3 0 10
BITMAP
81
42
3C
ENDCHAR
STARTCHAR U+02C9
ENCODING 713
SWIDTH 800 0
DWIDTH 8 0
BBX 6 1 1 11
BITMAP
FC
ENDCHAR
STARTCHAR U+02CA
ENCODING 714
SWIDTH 800 0
DWIDTH 8 0
BBX 5 4 1 9
BITMAP
18
30
60
C0
ENDCHAR
STARTCHAR U+02CB
ENCODING 715
SWIDTH 800 0
DWIDTH 8 0
BBX 5 4 2 9
BITMAP
C0
60
30
18
ENDCHAR
STARTCHAR U+02D8
ENCODING 728
SWIDTH 800 0
DWIDTH 8 0
BBX 7 2 0 10
BITMAP
C6
7C
ENDCHAR
STARTCHAR U+02D9
ENCODING 729
SWIDTH 800 0
DWIDTH 8 0
BBX 2 2 3 10
BITMAP
C0
C0
ENDCHAR
STARTCHAR U+02DA
ENCODING 730
SWIDTH 800 0
DWIDTH 8 0
BBX 6 6 1 7
BITMAP
78
CC
CC
CC
CC
78
ENDCHAR
STARTCHAR U+02DB
ENCODING 731
SWIDTH 900 0
DWIDTH 9 0
BBX 4 3 2 -2
BITMAP
80
80
F0
ENDCHAR
STARTCHAR U+02DC
ENCODING 732
SWIDTH 800 0
DWIDTH 8 0
BBX 8 3 0 10
BITMAP
73
DB
CE
ENDCHAR
STARTCHAR U+02DD
ENCODING 733
SWIDTH 900 0
DWIDTH 9 0
BBX 8 3 0 10
BITMAP
33
66
CC
ENDCHAR
STARTCHAR U+02DF
ENCODING 735
SWIDTH 900 0
DWIDTH 9 0
BBX 5 5 2 8
BITMAP
88
50
20
50
88
ENDCHAR
STARTCHAR U+02ED
ENCODING 749
SWIDTH 800 0
DWIDTH 8 0
BBX 4 3 2 10
BITMAP
F0
00
F0
ENDCHAR
STARTCHAR U+02F7
ENCODING 759
SWIDTH 800 0
DWIDTH 8 0
BBX 8 3 0 -3
BITMAP
73
DB
CE
ENDCHAR
STARTCHAR U+0371
ENCODING 881
SWIDTH 800 0
DWIDTH 8 0
BBX 6 7 1 -2
BITMAP
E0
20
20
3C
20
20
20
ENDCHAR
STARTCHAR U+0372
ENCODING 882
SWIDTH 800 0
DWIDTH 8 0
BBX 7 12 0 -1
BITMAP
FE
92
92
92
10
10
10
10
10
10
10
10
ENDCHAR
STARTCHAR U+0387
ENCODING 903
SWIDTH 800 0
DWIDTH 8 0
BBX 2 3 3 5
BITMAP
C0
C0
C0
ENDCHAR
STARTCHAR U+0391
ENCODING 913
SWIDTH 900 0
DWIDTH 9 0
BBX 7 2 1 -2
BITMAP
C6
7C
ENDCHAR
STARTCHAR U+0393
ENCODING 915
SWIDTH 800 0
DWIDTH 8 0
BBX 7 13 0 -2
BITMAP
FE
C6
C6
C6
C0
C0
C0
C0
C0
C0
C0
C0
C0
ENDCHAR
STARTCHAR U+0398
ENCODING 920
SWIDTH 800 0
DWIDTH 8 0
BBX 8 13 0 -2
BITMAP
3C
42
C3
C3
C3
C3
FF
C3
C3
C3
C3
42
3C
ENDCHAR
STARTCHAR U+03A3
ENCODING 931
SWIDTH 800 0
DWIDTH 8 0
BBX 8 13 0 -2
BITMAP
FF
C3
63
30
18
0C
0C
18
30
60
C3
C3
FF
ENDCHAR
STARTCHAR U+03A6
ENCODING 934
SWIDTH 800 0
DWIDTH 8 0
BBX 8 14 0 -2
BITMAP
FF
18
18
3C
7E
C3
C3
C3
C3
7E
3C
18
18
FF
ENDCHAR
STARTCHAR U+03A8
ENCODING 936
SWIDTH 800 0
DWIDTH 8 0
BBX 7 13 0 -2
BITMAP
D6
D6
D6
D6
D6
D6
D6
D6
7C
10
10
10
38
ENDCHAR
STARTCHAR U+03A9
ENCODING 937
SWIDTH 800 0
DWIDTH 8 0
BBX 8 12 0 -1
BITMAP
3C
66
C3
C3
C3
C3
C3
C3
42
66
66
E7
ENDCHAR
STARTCHAR U+03B1
ENCODING 945
SWIDTH 800 0
DWIDTH 8 0
BBX 8 8 0 -2
BITMAP
73
DE
CC
CC
CC
CC
CE
7B
ENDCHAR
STARTCHAR U+03B4
ENCODING 948
SWIDTH 800 0
DWIDTH 8 0
BBX 7 13 0 -2
BITMAP
1C
30
30
18
0C
7E
C6
C6
C6
C6
C6
C6
7C
ENDCHAR
STARTCHAR U+03B5
ENCODING 949
SWIDTH 800 0
DWIDTH 8 0
BBX 7 13 0 -2
BITMAP
3E
60
C0
C0
C0
C0
FE
C0
C0
C0
C0
60
3E
ENDCHAR
STARTCHAR U+03C0
ENCODING 960
SWIDTH 900 0
DWIDTH 9 0
BBX 9 10 0 -2
BITMAP
FF80
6300
6300
6300
6300
6300
6300
6300
6300
6300
ENDCHAR
STARTCHAR U+03C3
ENCODING 963
SWIDTH 800 0
DWIDTH 8 0
BBX 8 9 0 -2
BITMAP
7F
CC
CC
CC
CC
CC
CC
CC
78
ENDCHAR
STARTCHAR U+03C4
ENCODING 964
SWIDTH 700 0
DWIDTH 7 0
BBX 7 10 0 -2
BITMAP
76
DC
18
18
18
18
18
18
18
18
ENDCHAR
STARTCHAR U+03C6
ENCODING 966
SWIDTH 900 0
DWIDTH 9 0
BBX 7 12 1 -2
BITMAP
4C
DE
D6
D6
D6
D6
D6
7C
10
10
10
10
ENDCHAR
STARTCHAR U+03C8
ENCODING 968
SWIDTH 900 0
DWIDTH 9 0
BBX 7 12 1 -2
BITMAP
C6
D6
D6
D6
D6
D6
D6
7C
10
10
10
10
ENDCHAR
STARTCHAR U+040A
ENCODING 1034
SWIDTH 800 0
DWIDTH 8 0
BBX 8 13 0 -2
BITMAP
D8
D8
D8
D8
D8
FE
DB
DB
DB
DB
DB
DB
DE
ENDCHAR
STARTCHAR U+040B
ENCODING 1035
SWIDTH 800 0
DWIDTH 8 0
BBX 8 13 0 -2
BITMAP
FE
62
60
60
6E
73
63
63
63
63
63
63
E3
ENDCHAR
STARTCHAR U+0416
ENCODING 1046
SWIDTH 800 0
DWIDTH 8 0
BBX 7 13 0 -2
BITMAP
D6
D6
D6
D6
D6
7C
38
7C
D6
D6
D6
D6
D6
ENDCHAR
STARTCHAR U+0424
ENCODING 1060
SWIDTH 800 0
DWIDTH 8 0
BBX 7 13 0 -2
BITMAP
7C
10
10
7C
D6
D6
D6
D6
D6
7C
10
10
7C
ENDCHAR
STARTCHAR U+0427
ENCODING 1063
SWIDTH 800 0
DWIDTH 8 0
BBX 8 13 0 -2
BITMAP
C3
C3
C3
C3
C3
C3
C7
7B
03
03
03
03
03
ENDCHAR
STARTCHAR U+0428
ENCODING 1064
SWIDTH 800 0
DWIDTH 8 0
BBX 7 13 0 -2
BITMAP
C6
D6
D6
D6
D6
D6
D6
D6
D6
D6
D6
FE
FE
ENDCHAR
STARTCHAR U+0466
ENCODING 1126
SWIDTH 800 0
DWIDTH 8 0
BBX 8 10 0 -1
BITMAP
18
18
24
24
7E
5A
99
99
99
99
ENDCHAR
STARTCHAR U+046A
ENCODING 1130
SWIDTH 900 0
DWIDTH 9 0
BBX 9 11 0 0
BITMAP
7F00
4100
2200
1400
0800
3E00
4900
8880
8880
8880
8880
ENDCHAR
STARTCHAR U+05F0
ENCODING 1520
SWIDTH 800 0
DWIDTH 8 0
BBX 7 11 0 -1
BITMAP
CC
66
66
66
66
66
66
66
66
66
22
ENDCHAR
STARTCHAR U+05F1
ENCODING 1521
SWIDTH 800 0
DWIDTH 8 0
BBX 7 11 0 -1
BITMAP
CC
66
66
66
66
66
26
06
06
06
02
ENDCHAR
STARTCHAR U+05F2
ENCODING 1522
SWIDTH 800 0
DWIDTH 8 0
BBX 7 7 0 3
BITMAP
CC
66
66
66
66
66
22
ENDCHAR
STARTCHAR U+066F
ENCODING 1647
SWIDTH 800 0
DWIDTH 8 0
BBX 8 6 0 1
BITMAP
06
09
89
87
41
3E
ENDCHAR
STARTCHAR U+0E37
ENCODING 3639
SWIDTH 700 0
DWIDTH 7 0
BBX 5 3 0 10
BITMAP
28
78
F8
ENDCHAR
STARTCHAR U+0E39
ENCODING 3641
SWIDTH 700 0
DWIDTH 7 0
BBX 4 4 0 -3
BITMAP
D0
D0
50
70
ENDCHAR
STARTCHAR U+0E49
ENCODING 3657
SWIDTH 700 0
DWIDTH 7 0
BBX 4 3 0 9
BITMAP
D0
E0
40
ENDCHAR
STARTCHAR U+16EF
ENCODING 5871
SWIDTH 800 0
DWIDTH 8 0
BBX 7 13 0 -2
BITMAP
92
92
92
92
7C
10
10
10
7C
92
92
92
92
ENDCHAR
STARTCHAR U+1CC0
ENCODING 7360
SWIDTH 800 0
DWIDTH 8 0
BBX 8 13 0 -2
BITMAP
24
18
18
24
24
A5
66
A5
24
24
18
18
24
ENDCHAR
STARTCHAR U+1DC5
ENCODING 7621
SWIDTH 800 0
DWIDTH 8 0
BBX 6 2 1 11
BITMAP
C0
7C
ENDCHAR
STARTCHAR U+1DC9
ENCODING 7625
SWIDTH 800 0
DWIDTH 8 0
BBX 5 2 3 11
BITMAP
E8
B8
ENDCHAR
STARTCHAR U+1E84
ENCODING 7812
SWIDTH 800 0
DWIDTH 8 0
BBX 7 15 0 -2
BITMAP
6C
6C
00
C6
C6
C6
C6
C6
C6
D6
D6
D6
FE
6C
6C
ENDCHAR
STARTCHAR U+1E85
ENCODING 7813
SWIDTH 800 0
DWIDTH 8 0
BBX 7 13 0 -2
BITMAP
6C
6C
00
00
C6
C6
C6
D6
D6
D6
D6
FE
6C
ENDCHAR
STARTCHAR U+2013
ENCODING 8211
SWIDTH 800 0
DWIDTH 8 0
BBX 5 1 1 5
BITMAP
F8
ENDCHAR
STARTCHAR U+2014
ENCODING 8212
SWIDTH 800 0
DWIDTH 8 0
BBX 8 1 0 5
BITMAP
FF
ENDCHAR
STARTCHAR U+2015
ENCODING 8213
SWIDTH 900 0
DWIDTH 9 0
BBX 7 1 1 5
BITMAP
FE
ENDCHAR
STARTCHAR U+2017
ENCODING 8215
SWIDTH 800 0
DWIDTH 8 0
BBX 6 3 1 -3
BITMAP
FC
00
FC
ENDCHAR
STARTCHAR U+2018
ENCODING 8216
SWIDTH 800 0
DWIDTH 8 0
BBX 3 5 2 8
BITMAP
60
C0
C0
C0
C0
ENDCHAR
STARTCHAR U+2019
ENCODING 8217
SWIDTH 800 0
DWIDTH 8 0
BBX 3 5 2 8
BITMAP
60
60
60
60
C0
ENDCHAR
STARTCHAR U+201A
ENCODING 8218
SWIDTH 800 0
DWIDTH 8 0
BBX 3 5 2 -3
BITMAP
60
60
60
60
C0
ENDCHAR
STARTCHAR U+201B
ENCODING 8219
SWIDTH 800 0
DWIDTH 8 0
BBX 3 5 3 8
BITMAP
C0
C0
C0
C0
60
ENDCHAR
STARTCHAR U+201C
ENCODING 8220
SWIDTH 800 0
DWIDTH 8 0
BBX 6 4 1 9
BITMAP
D8
D8
D8
6C
ENDCHAR
STARTCHAR U+201D
ENCODING 8221
SWIDTH 800 0
DWIDTH 8 0
BBX 6 4 1 9
BITMAP
6C
6C
6C
D8
ENDCHAR
STARTCHAR U+201E
ENCODING 8222
SWIDTH 800 0
DWIDTH 8 0
BBX 6 4 1 -3
BITMAP
6C
6C
6C
D8
ENDCHAR
STARTCHAR U+2020
ENCODING 8224
SWIDTH 800 0
DWIDTH 8 0
BBX 7 12 0 -1
BITMAP
10
10
10
FE
10
10
10
10
10
10
10
10
ENDCHAR
STARTCHAR U+2021
ENCODING 8225
SWIDTH 800 0
DWIDTH 8 0
BBX 7 12 0 -1
BITMAP
10
10
10
FE
10
10
10
10
FE
10
10
10
ENDCHAR
STARTCHAR U+2022
ENCODING 8226
SWIDTH 800 0
DWIDTH 8 0
BBX 4 4 2 3
BITMAP
60
F0
F0
60
ENDCHAR
STARTCHAR U+2026
ENCODING 8230
SWIDTH 800 0
DWIDTH 8 0
BBX 8 2 0 -2
BITMAP
DB
DB
ENDCHAR
STARTCHAR U+2030
ENCODING 8240
SWIDTH 800 0
DWIDTH 8 0
BBX 8 12 0 -1
BITMAP
C6
C6
0C
0C
18
18
30
30
60
60
DB
DB
ENDCHAR
STARTCHAR U+2032
ENCODING 8242
SWIDTH 800 0
DWIDTH 8 0
BBX 3 4 2 9
BITMAP
60
60
60
C0
ENDCHAR
STARTCHAR U+2033
ENCODING 8243
SWIDTH 800 0
DWIDTH 8 0
BBX 6 4 1 8
BITMAP
6C
6C
6C
D8
ENDCHAR
STARTCHAR U+2038
ENCODING 8248
SWIDTH 900 0
DWIDTH 9 0
BBX 9 3 0 -3
BITMAP
3E00
4100
8080
ENDCHAR
STARTCHAR U+2039
ENCODING 8249
SWIDTH 800 0
DWIDTH 8 0
BBX 5 7 1 2
BITMAP
18
30
60
C0
60
30
18
ENDCHAR
STARTCHAR U+203A
ENCODING 8250
SWIDTH 800 0
DWIDTH 8 0
BBX 5 7 1 2
BITMAP
C0
60
30
18
30
60
C0
ENDCHAR
STARTCHAR U+203C
ENCODING 8252
SWIDTH 800 0
DWIDTH 8 0
BBX 6 13 1 -1
BITMAP
CC
CC
CC
CC
CC
CC
CC
CC
CC
00
CC
CC
CC
ENDCHAR
STARTCHAR U+203E
ENCODING 8254
SWIDTH 900 0
DWIDTH 9 0
BBX 5 1 2 11
BITMAP
F8
ENDCHAR
STARTCHAR U+2042
ENCODING 8258
SWIDTH 800 0
DWIDTH 8 0
BBX 7 7 0 2
BITMAP
10
38
10
00
44
EE
44
ENDCHAR
STARTCHAR U+2047
ENCODING 8263
SWIDTH 800 0
DWIDTH 8 0
BBX 8 11 0 -1
BITMAP
66
99
11
11
22
44
44
44
44
00
44
ENDCHAR
STARTCHAR U+204B
ENCODING 8267
SWIDTH 800 0
DWIDTH 8 0
BBX 7 13 1 -2
BITMAP
FC
DA
DA
DA
DA
DA
DC
D0
D0
D0
D0
D0
D0
ENDCHAR
STARTCHAR U+204E
ENCODING 8270
SWIDTH 800 0
DWIDTH 8 0
BBX 8 10 0 -3
BITMAP
66
66
3C
3C
FF
FF
3C
3C
66
66
ENDCHAR
STARTCHAR U+2050
ENCODING 8272
SWIDTH 800 0
DWIDTH 8 0
BBX 8 16 0 -3
BITMAP
3C
66
81
00
00
00
00
00
00
00
00
00
00
81
66
3C
ENDCHAR
STARTCHAR U+2051
ENCODING 8273
SWIDTH 800 0
DWIDTH 8 0
BBX 7 13 0 -2
BITMAP
6C
38
FE
38
6C
00
00
00
6C
38
FE
38
6C
ENDCHAR
STARTCHAR U+205C
ENCODING 8284
SWIDTH 800 0
DWIDTH 8 0
BBX 7 7 0 2
BITMAP
D6
D6
10
FE
10
D6
D6
ENDCHAR
STARTCHAR U+205D
ENCODING 8285
SWIDTH 800 0
DWIDTH 8 0
BBX 2 13 3 -2
BITMAP
C0
C0
C0
00
00
C0
C0
C0
00
00
C0
C0
C0
ENDCHAR
STARTCHAR U+2071
ENCODING 8305
SWIDTH 800 0
DWIDTH 8 0
BBX 4 9 2 4
BITMAP
60
60
00
E0
60
60
60
60
F0
ENDCHAR
STARTCHAR U+2072
ENCODING 8306
SWIDTH 800 0
DWIDTH 8 0
BBX 6 8 1 5
BITMAP
78
CC
0C
18
30
60
C0
FC
ENDCHAR
STARTCHAR U+2073
ENCODING 8307
SWIDTH 800 0
DWIDTH 8 0
BBX 6 8 1 5
BITMAP
F8
0C
0C
78
0C
0C
0C
F8
ENDCHAR
STARTCHAR U+2074
ENCODING 8308
SWIDTH 800 0
DWIDTH 8 0
BBX 6 8 1 5
BITMAP
18
38
78
D8
D8
FC
18
18
ENDCHAR
STARTCHAR U+2075
ENCODING 8309
SWIDTH 800 0
DWIDTH 8 0
BBX 6 8 1 5
BITMAP
FC
C0
C0
F8
0C
0C
0C
F8
ENDCHAR
STARTCHAR U+2076
ENCODING 8310
SWIDTH 800 0
DWIDTH 8 0
BBX 6 8 1 5
BITMAP
78
C0
C0
F8
CC
CC
CC
78
ENDCHAR
STARTCHAR U+2077
ENCODING 8311
SWIDTH 800 0
DWIDTH 8 0
BBX 6 8 1 5
BITMAP
FC
0C
08
18
10
30
30
30
ENDCHAR
STARTCHAR U+2078
ENCODING 8312
SWIDTH 800 0
DWIDTH 8 0
BBX 6 8 1 5
BITMAP
78
CC
CC
78
CC
CC
CC
78
ENDCHAR
STARTCHAR U+2079
ENCODING 8313
SWIDTH 800 0
DWIDTH 8 0
BBX 6 8 1 5
BITMAP
78
CC
CC
CC
7C
0C
0C
78
ENDCHAR
STARTCHAR U+207A
ENCODING 8314
SWIDTH 800 0
DWIDTH 8 0
BBX 5 5 1 7
BITMAP
20
20
F8
20
20
ENDCHAR
STARTCHAR U+207B
ENCODING 8315
SWIDTH 800 0
DWIDTH 8 0
BBX 5 1 1 9
BITMAP
F8
ENDCHAR
STARTCHAR U+207C
ENCODING 8316
SWIDTH 800 0
DWIDTH 8 0
BBX 6 3 1 10
BITMAP
FC
00
FC
ENDCHAR
STARTCHAR U+207F
ENCODING 8319
SWIDTH 800 0
DWIDTH 8 0
BBX 7 7 0 6
BITMAP
DC
66
66
66
66
66
66
ENDCHAR
STARTCHAR U+2081
ENCODING 8321
SWIDTH 800 0
DWIDTH 8 0
BBX 4 8 1 -3
BITMAP
30
70
F0
30
30
30
30
30
ENDCHAR
STARTCHAR U+2082
ENCODING 8322
SWIDTH 800 0
DWIDTH 8 0
BBX 6 8 1 -3
BITMAP
78
CC
0C
18
30
60
C0
FC
ENDCHAR
STARTCHAR U+2083
ENCODING 8323
SWIDTH 800 0
DWIDTH 8 0
BBX 6 8 1 -3
BITMAP
F8
0C
0C
78
0C
0C
0C
F8
ENDCHAR
STARTCHAR U+2084
ENCODING 8324
SWIDTH 800 0
DWIDTH 8 0
BBX 6 8 1 -3
BITMAP
18
38
78
D8
D8
FC
18
18
ENDCHAR
STARTCHAR U+2085
ENCODING 8325
SWIDTH 800 0
DWIDTH 8 0
BBX 6 8 1 -3
BITMAP
FC
C0
C0
F8
0C
0C
0C
F8
ENDCHAR
STARTCHAR U+2086
ENCODING 8326
SWIDTH 800 0
DWIDTH 8 0
BBX 6 8 1 -3
BITMAP
78
C0
C0
F8
CC
CC
CC
78
ENDCHAR
STARTCHAR U+2087
ENCODING 8327
SWIDTH 800 0
DWIDTH 8 0
BBX 6 8 1 -3
BITMAP
FC
0C
08
18
10
30
30
30
ENDCHAR
STARTCHAR U+2088
ENCODING 8328
SWIDTH 800 0
DWIDTH 8 0
BBX 6 8 1 -3
BITMAP
78
CC
CC
78
CC
CC
CC
78
ENDCHAR
STARTCHAR U+2089
ENCODING 8329
SWIDTH 800 0
DWIDTH 8 0
BBX 6 8 1 -3
BITMAP
78
CC
CC
CC
7C
0C
0C
78
ENDCHAR
STARTCHAR U+208A
ENCODING 8330
SWIDTH 800 0
DWIDTH 8 0
BBX 5 5 1 -2
BITMAP
20
20
F8
20
20
ENDCHAR
STARTCHAR U+208B
ENCODING 8331
SWIDTH 800 0
DWIDTH 8 0
BBX 5 1 1 0
BITMAP
F8
ENDCHAR
STARTCHAR U+208C
ENCODING 8332
SWIDTH 800 0
DWIDTH 8 0
BBX 6 3 1 -3
BITMAP
FC
00
FC
ENDCHAR
STARTCHAR U+2098
ENCODING 8344
SWIDTH 800 0
DWIDTH 8 0
BBX 8 7 0 -3
BITMAP
B6
DB
DB
DB
DB
DB
DB
ENDCHAR
STARTCHAR U+2099
ENCODING 8345
SWIDTH 800 0
DWIDTH 8 0
BBX 7 7 0 -3
BITMAP
DC
66
66
66
66
66
66
ENDCHAR
STARTCHAR U+20A3
ENCODING 8355
SWIDTH 800 0
DWIDTH 8 0
BBX 8 13 0 -2
BITMAP
FF
63
61
60
64
7C
64
60
60
60
F0
60
40
ENDCHAR
STARTCHAR U+20A4
ENCODING 8356
SWIDTH 900 0
DWIDTH 9 0
BBX 7 12 1 -1
BITMAP
3C
66
60
60
60
FC
60
FC
60
60
60
FE
ENDCHAR
STARTCHAR U+20A6
ENCODING 8358
SWIDTH 800 0
DWIDTH 8 0
BBX 8 13 0 -2
BITMAP
C6
C6
E6
FF
F6
D6
DE
CE
FF
C6
C6
C6
C6
ENDCHAR
STARTCHAR U+20A7
ENCODING 8359
SWIDTH 800 0
DWIDTH 8 0
BBX 8 13 0 -2
BITMAP
FC
66
66
66
7C
62
66
6F
66
66
66
66
F3
ENDCHAR
STARTCHAR U+20AC
ENCODING 8364
SWIDTH 800 0
DWIDTH 8 0
BBX 7 10 0 -1
BITMAP
1C
32
60
FC
60
FC
60
60
32
1C
ENDCHAR
STARTCHAR U+20F0
ENCODING 8432
SWIDTH 800 0
DWIDTH 8 0
BBX 5 4 3 8
BITMAP
A8
70
70
A8
ENDCHAR
STARTCHAR U+2105
ENCODING 8453
SWIDTH 800 0
DWIDTH 8 0
BBX 7 13 0 -1
BITMAP
60
90
80
92
64
08
10
20
4C
92
12
12
0C
ENDCHAR
STARTCHAR U+2122
ENCODING 8482
SWIDTH 800 0
DWIDTH 8 0
BBX 8 4 0 8
BITMAP
F1
5B
55
55
ENDCHAR
STARTCHAR U+2126
ENCODING 8486
SWIDTH 800 0
DWIDTH 8 0
BBX 8 12 0 -1
BITMAP
3C
66
C3
C3
C3
C3
C3
C3
42
66
66
E7
ENDCHAR
STARTCHAR U+2159
ENCODING 8537
SWIDTH 800 0
DWIDTH 8 0
BBX 7 14 0 -2
BITMAP
C0
40
40
42
44
08
10
20
40
8E
08
04
02
0C
ENDCHAR
STARTCHAR U+215B
ENCODING 8539
SWIDTH 800 0
DWIDTH 8 0
BBX 7 14 0 -2
BITMAP
C0
40
40
42
44
08
10
20
40
8C
12
0C
12
0C
ENDCHAR
STARTCHAR U+215C
ENCODING 8540
SWIDTH 800 0
DWIDTH 8 0
BBX 7 14 0 -2
BITMAP
C0
20
C0
22
C4
08
10
20
40
8C
12
04
08
1E
ENDCHAR
STARTCHAR U+215D
ENCODING 8541
SWIDTH 800 0
DWIDTH 8 0
BBX 7 14 0 -2
BITMAP
E0
80
40
22
C4
08
10
20
40
8C
12
04
08
1E
ENDCHAR
STARTCHAR U+215E
ENCODING 8542
SWIDTH 800 0
DWIDTH 8 0
BBX 7 14 0 -2
BITMAP
E0
20
20
42
44
08
10
20
40
8C
12
04
08
1E
ENDCHAR
STARTCHAR U+2190
ENCODING 8592
SWIDTH 800 0
DWIDTH 8 0
BBX 8 9 0 0
BITMAP
08
18
3F
7F
FF
7F
3F
18
08
ENDCHAR
STARTCHAR U+2191
ENCODING 8593
SWIDTH 800 0
DWIDTH 8 0
BBX 7 14 0 -2
BITMAP
10
38
7C
FE
38
38
38
38
38
38
38
38
38
38
ENDCHAR
STARTCHAR U+2192
ENCODING 8594
SWIDTH 800 0
DWIDTH 8 0
BBX 8 9 0 0
BITMAP
10
18
FC
FE
FF
FE
FC
18
10
ENDCHAR
STARTCHAR U+2193
ENCODING 8595
SWIDTH 800 0
DWIDTH 8 0
BBX 7 14 0 -2
BITMAP
38
38
38
38
38
38
38
38
38
38
FE
7C
38
10
ENDCHAR
STARTCHAR U+2194
ENCODING 8596
SWIDTH 800 0
DWIDTH 8 0
BBX 8 6 0 1
BITMAP
24
66
FF
FF
66
24
ENDCHAR
STARTCHAR U+2195
ENCODING 8597
SWIDTH 800 0
DWIDTH 8 0
BBX 7 15 0 -3
BITMAP
10
38
7C
FE
38
38
38
38
38
38
38
FE
7C
38
10
ENDCHAR
STARTCHAR U+21A8
ENCODING 8616
SWIDTH 800 0
DWIDTH 8 0
BBX 7 14 0 -2
BITMAP
10
38
7C
FE
38
38
38
38
38
38
FE
7C
38
FE
ENDCHAR
STARTCHAR U+2206
ENCODING 8710
SWIDTH 800 0
DWIDTH 8 0
BBX 7 10 0 0
BITMAP
10
10
28
28
44
44
82
82
82
FE
ENDCHAR
STARTCHAR U+2208
ENCODING 8712
SWIDTH 800 0
DWIDTH 8 0
BBX 7 11 0 -1
BITMAP
3C
42
C0
C0
C0
FE
C0
C0
C0
42
3C
ENDCHAR
STARTCHAR U+220B
ENCODING 8715
SWIDTH 800 0
DWIDTH 8 0
BBX 7 11 0 -1
BITMAP
78
84
06
06
06
FE
06
06
06
84
78
ENDCHAR
STARTCHAR U+220F
ENCODING 8719
SWIDTH 800 0
DWIDTH 8 0
BBX 8 13 0 -2
BITMAP
FF
C3
C3
C3
C3
C3
C3
C3
C3
C3
C3
C3
C3
ENDCHAR
STARTCHAR U+2211
ENCODING 8721
SWIDTH 800 0
DWIDTH 8 0
BBX 8 13 0 -2
BITMAP
FF
C3
63
30
18
0C
0C
18
30
60
C3
C3
FF
ENDCHAR
STARTCHAR U+2212
ENCODING 8722
SWIDTH 900 0
DWIDTH 9 0
BBX 7 1 1 4
BITMAP
FE
ENDCHAR
STARTCHAR U+2215
ENCODING 8725
SWIDTH 800 0
DWIDTH 8 0
BBX 8 14 0 -2
BITMAP
03
03
06
06
0C
0C
18
18
30
30
60
60
C0
C0
ENDCHAR
STARTCHAR U+2218
ENCODING 8728
SWIDTH 800 0
DWIDTH 8 0
BBX 6 6 1 2
BITMAP
30
48
84
84
48
30
ENDCHAR
STARTCHAR U+2219
ENCODING 8729
SWIDTH 800 0
DWIDTH 8 0
BBX 3 3 2 3
BITMAP
E0
E0
E0
ENDCHAR
STARTCHAR U+221A
ENCODING 8730
SWIDTH 800 0
DWIDTH 8 0
BBX 8 12 0 -1
BITMAP
0F
0C
0C
0C
0C
0C
0C
0C
CC
6C
3C
1C
ENDCHAR
STARTCHAR U+221E
ENCODING 8734
SWIDTH 800 0
DWIDTH 8 0
BBX 8 5 0 2
BITMAP
66
99
99
99
66
ENDCHAR
STARTCHAR U+2229
ENCODING 8745
SWIDTH 800 0
DWIDTH 8 0
BBX 8 12 0 -1
BITMAP
7E
C3
C3
C3
C3
C3
C3
C3
C3
C3
C3
C3
ENDCHAR
STARTCHAR U+2248
ENCODING 8776
SWIDTH 800 0
DWIDTH 8 0
BBX 8 7 0 1
BITMAP
73
DB
CE
00
73
DB
CE
ENDCHAR
STARTCHAR U+2260
ENCODING 8800
SWIDTH 800 0
DWIDTH 8 0
BBX 8 13 0 -2
BITMAP
03
02
06
04
FF
08
18
10
FF
20
60
40
C0
ENDCHAR
STARTCHAR U+2261
ENCODING 8801
SWIDTH 800 0
DWIDTH 8 0
BBX 7 7 0 1
BITMAP
FE
00
00
FE
00
00
FE
ENDCHAR
STARTCHAR U+2264
ENCODING 8804
SWIDTH 800 0
DWIDTH 8 0
BBX 7 10 0 0
BITMAP
18
30
60
C0
60
30
18
00
00
FE
ENDCHAR
STARTCHAR U+2265
ENCODING 8805
SWIDTH 800 0
DWIDTH 8 0
BBX 7 10 1 0
BITMAP
30
18
0C
06
0C
18
30
00
00
FE
ENDCHAR
STARTCHAR U+2295
ENCODING 8853
SWIDTH 800 0
DWIDTH 8 0
BBX 7 7 0 1
BITMAP
38
54
92
FE
92
54
38
ENDCHAR
STARTCHAR U+2296
ENCODING 8854
SWIDTH 800 0
DWIDTH 8 0
BBX 7 7 0 1
BITMAP
38
44
82
FE
82
44
38
ENDCHAR
STARTCHAR U+2299
ENCODING 8857
SWIDTH 800 0
DWIDTH 8 0
BBX 7 7 0 1
BITMAP
38
44
82
92
82
44
38
ENDCHAR
STARTCHAR U+2302
ENCODING 8962
SWIDTH 800 0
DWIDTH 8 0
BBX 7 7 0 1
BITMAP
10
38
6C
C6
C6
C6
FE
ENDCHAR
STARTCHAR U+2303
ENCODING 8963
SWIDTH 800 0
DWIDTH 8 0
BBX 7 6 0 6
BITMAP
10
38
28
6C
44
C6
ENDCHAR
STARTCHAR U+2304
ENCODING 8964
SWIDTH 800 0
DWIDTH 8 0
BBX 7 6 0 -2
BITMAP
C6
44
6C
28
38
10
ENDCHAR
STARTCHAR U+2308
ENCODING 8968
SWIDTH 800 0
DWIDTH 8 0
BBX 6 9 1 3
BITMAP
FC
C0
C0
C0
C0
C0
C0
C0
C0
ENDCHAR
STARTCHAR U+2309
ENCODING 8969
SWIDTH 800 0
DWIDTH 8 0
BBX 6 9 1 3
BITMAP
FC
0C
0C
0C
0C
0C
0C
0C
0C
ENDCHAR
STARTCHAR U+230A
ENCODING 8970
SWIDTH 800 0
DWIDTH 8 0
BBX 6 9 1 -3
BITMAP
C0
C0
C0
C0
C0
C0
C0
C0
FC
ENDCHAR
STARTCHAR U+230B
ENCODING 8971
SWIDTH 800 0
DWIDTH 8 0
BBX 6 9 1 -3
BITMAP
0C
0C
0C
0C
0C
0C
0C
0C
FC
ENDCHAR
STARTCHAR U+2310
ENCODING 8976
SWIDTH 800 0
DWIDTH 8 0
BBX 8 4 0 3
BITMAP
FF
C0
C0
C0
ENDCHAR
STARTCHAR U+231C
ENCODING 8988
SWIDTH 800 0
DWIDTH 8 0
BBX 6 6 1 6
BITMAP
FC
80
80
80
80
80
ENDCHAR
STARTCHAR U+231D
ENCODING 8989
SWIDTH 800 0
DWIDTH 8 0
BBX 6 6 1 6
BITMAP
FC
04
04
04
04
04
ENDCHAR
STARTCHAR U+231E
ENCODING 8990
SWIDTH 800 0
DWIDTH 8 0
BBX 6 6 1 -3
BITMAP
80
80
80
80
80
FC
ENDCHAR
STARTCHAR U+231F
ENCODING 8991
SWIDTH 800 0
DWIDTH 8 0
BBX 6 6 1 -3
BITMAP
04
04
04
04
04
FC
ENDCHAR
STARTCHAR U+2320
ENCODING 8992
SWIDTH 800 0
DWIDTH 8 0
BBX 5 13 3 -3
BITMAP
70
D8
D8
D8
C0
C0
C0
C0
C0
C0
C0
C0
C0
ENDCHAR
STARTCHAR U+2321
ENCODING 8993
SWIDTH 800 0
DWIDTH 8 0
BBX 5 13 0 0
BITMAP
18
18
18
18
18
18
18
18
18
D8
D8
D8
70
ENDCHAR
STARTCHAR U+232B
ENCODING 9003
SWIDTH 800 0
DWIDTH 8 0
BBX 8 5 0 2
BITMAP
3F
55
89
55
3F
ENDCHAR
STARTCHAR U+239B
ENCODING 9115
SWIDTH 800 0
DWIDTH 8 0
BBX 4 12 2 -1
BITMAP
30
40
40
80
80
80
80
80
80
80
80
80
ENDCHAR
STARTCHAR U+239D
ENCODING 9117
SWIDTH 800 0
DWIDTH 8 0
BBX 4 12 2 -1
BITMAP
80
80
80
80
80
80
80
80
80
40
40
30
ENDCHAR
STARTCHAR U+239E
ENCODING 9118
SWIDTH 800 0
DWIDTH 8 0
BBX 4 12 2 -1
BITMAP
C0
20
20
10
10
10
10
10
10
10
10
10
ENDCHAR
STARTCHAR U+23A0
ENCODING 9120
SWIDTH 800 0
DWIDTH 8 0
BBX 4 12 2 -1
BITMAP
10
10
10
10
10
10
10
10
10
20
20
C0
ENDCHAR
STARTCHAR U+23B2
ENCODING 9138
SWIDTH 800 0
DWIDTH 8 0
BBX 7 13 0 -2
BITMAP
FE
82
80
40
40
20
20
10
10
08
08
04
04
ENDCHAR
STARTCHAR U+23B3
ENCODING 9139
SWIDTH 800 0
DWIDTH 8 0
BBX 7 13 0 -1
BITMAP
04
04
08
08
10
10
20
20
40
40
80
82
FE
ENDCHAR
STARTCHAR U+23B4
ENCODING 9140
SWIDTH 800 0
DWIDTH 8 0
BBX 7 3 0 8
BITMAP
FE
80
80
ENDCHAR
STARTCHAR U+23B8
ENCODING 9144
SWIDTH 800 0
DWIDTH 8 0
BBX 7 7 0 2
BITMAP
10
10
10
FE
10
10
10
ENDCHAR
STARTCHAR U+23B9
ENCODING 9145
SWIDTH 800 0
DWIDTH 8 0
BBX 7 1 0 5
BITMAP
FE
ENDCHAR
STARTCHAR U+23CE
ENCODING 9166
SWIDTH 800 0
DWIDTH 8 0
BBX 7 9 0 0
BITMAP
06
06
06
26
66
FE
FE
60
20
ENDCHAR
STARTCHAR U+23DC
ENCODING 9180
SWIDTH 800 0
DWIDTH 8 0
BBX 8 3 0 -3
BITMAP
3C
42
81
ENDCHAR
STARTCHAR U+23DD
ENCODING 9181
SWIDTH 800 0
DWIDTH 8 0
BBX 8 3 0 10
BITMAP
81
42
3C
ENDCHAR
STARTCHAR U+23F3
ENCODING 9203
SWIDTH 800 0
DWIDTH 8 0
BBX 7 14 0 -2
BITMAP
FE
FE
82
82
44
28
10
10
28
44
82
82
FE
FE
ENDCHAR
STARTCHAR U+23F4
ENCODING 9204
SWIDTH 800 0
DWIDTH 8 0
BBX 5 9 1 1
BITMAP
08
18
38
78
F8
78
38
18
08
ENDCHAR
STARTCHAR U+23F5
ENCODING 9205
SWIDTH 800 0
DWIDTH 8 0
BBX 5 9 1 1
BITMAP
80
C0
E0
F0
F8
F0
E0
C0
80
ENDCHAR
STARTCHAR U+23F6
ENCODING 9206
SWIDTH 800 0
DWIDTH 8 0
BBX 7 4 0 3
BITMAP
FE
7C
38
10
ENDCHAR
STARTCHAR U+23F7
ENCODING 9207
SWIDTH 800 0
DWIDTH 8 0
BBX 7 4 0 3
BITMAP
10
38
7C
FE
ENDCHAR
STARTCHAR U+2423
ENCODING 9251
SWIDTH 800 0
DWIDTH 8 0
BBX 8 3 0 -3
BITMAP
81
81
FF
ENDCHAR
STARTCHAR U+2500
ENCODING 9472
SWIDTH 800 0
DWIDTH 8 0
BBX 8 2 0 4
BITMAP
FF
FF
ENDCHAR
STARTCHAR U+2502
ENCODING 9474
SWIDTH 800 0
DWIDTH 8 0
BBX 2 16 3 -3
BITMAP
C0
C0
C0
C0
C0
C0
C0
C0
C0
C0
C0
C0
C0
C0
C0
C0
ENDCHAR
STARTCHAR U+250C
ENCODING 9484
SWIDTH 800 0
DWIDTH 8 0
BBX 5 9 3 -3
BITMAP
F8
F8
C0
C0
C0
C0
C0
C0
C0
ENDCHAR
STARTCHAR U+2510
ENCODING 9488
SWIDTH 800 0
DWIDTH 8 0
BBX 5 9 0 -3
BITMAP
F8
F8
18
18
18
18
18
18
18
ENDCHAR
STARTCHAR U+2514
ENCODING 9492
SWIDTH 800 0
DWIDTH 8 0
BBX 5 9 3 4
BITMAP
C0
C0
C0
C0
C0
C0
C0
F8
F8
ENDCHAR
STARTCHAR U+2518
ENCODING 9496
SWIDTH 800 0
DWIDTH 8 0
BBX 5 9 0 4
BITMAP
18
18
18
18
18
18
18
F8
F8
ENDCHAR
STARTCHAR U+251C
ENCODING 9500
SWIDTH 800 0
DWIDTH 8 0
BBX 5 16 3 -3
BITMAP
C0
C0
C0
C0
C0
C0
C0
F8
F8
C0
C0
C0
C0
C0
C0
C0
ENDCHAR
STARTCHAR U+2524
ENCODING 9508
SWIDTH 800 0
DWIDTH 8 0
BBX 5 16 0 -3
BITMAP
18
18
18
18
18
18
18
F8
F8
18
18
18
18
18
18
18
ENDCHAR
STARTCHAR U+252C
ENCODING 9516
SWIDTH 800 0
DWIDTH 8 0
BBX 8 9 0 -3
BITMAP
FF
FF
18
18
18
18
18
18
18
ENDCHAR
STARTCHAR U+2534
ENCODING 9524
SWIDTH 800 0
DWIDTH 8 0
BBX 8 9 0 4
BITMAP
18
18
18
18
18
18
18
FF
FF
ENDCHAR
STARTCHAR U+253C
ENCODING 9532
SWIDTH 800 0
DWIDTH 8 0
BBX 8 16 0 -3
BITMAP
18
18
18
18
18
18
18
FF
FF
18
18
18
18
18
18
18
ENDCHAR
STARTCHAR U+2550
ENCODING 9552
SWIDTH 800 0
DWIDTH 8 0
BBX 8 6 0 2
BITMAP
FF
FF
00
00
FF
FF
ENDCHAR
STARTCHAR U+2551
ENCODING 9553
SWIDTH 800 0
DWIDTH 8 0
BBX 5 16 2 -3
BITMAP
D8
D8
D8
D8
D8
D8
D8
D8
D8
D8
D8
D8
D8
D8
D8
D8
ENDCHAR
STARTCHAR U+2552
ENCODING 9554
SWIDTH 800 0
DWIDTH 8 0
BBX 5 11 3 -3
BITMAP
F8
F8
C0
C0
F8
F8
C0
C0
C0
C0
C0
ENDCHAR
STARTCHAR U+2553
ENCODING 9555
SWIDTH 800 0
DWIDTH 8 0
BBX 6 9 2 -3
BITMAP
FC
FC
D8
D8
D8
D8
D8
D8
D8
ENDCHAR
STARTCHAR U+2554
ENCODING 9556
SWIDTH 800 0
DWIDTH 8 0
BBX 6 11 2 -3
BITMAP
FC
FC
C0
C0
DC
DC
D8
D8
D8
D8
D8
ENDCHAR
STARTCHAR U+2555
ENCODING 9557
SWIDTH 800 0
DWIDTH 8 0
BBX 5 11 0 -3
BITMAP
F8
F8
18
18
F8
F8
18
18
18
18
18
ENDCHAR
STARTCHAR U+2556
ENCODING 9558
SWIDTH 800 0
DWIDTH 8 0
BBX 7 9 0 -3
BITMAP
FE
FE
36
36
36
36
36
36
36
ENDCHAR
STARTCHAR U+2557
ENCODING 9559
SWIDTH 800 0
DWIDTH 8 0
BBX 7 11 0 -3
BITMAP
FE
FE
06
06
F6
F6
36
36
36
36
36
ENDCHAR
STARTCHAR U+2558
ENCODING 9560
SWIDTH 800 0
DWIDTH 8 0
BBX 5 11 3 2
BITMAP
C0
C0
C0
C0
C0
F8
F8
C0
C0
F8
F8
ENDCHAR
STARTCHAR U+2559
ENCODING 9561
SWIDTH 800 0
DWIDTH 8 0
BBX 6 9 2 4
BITMAP
D8
D8
D8
D8
D8
D8
D8
FC
FC
ENDCHAR
STARTCHAR U+255A
ENCODING 9562
SWIDTH 800 0
DWIDTH 8 0
BBX 6 11 2 2
BITMAP
D8
D8
D8
D8
D8
DC
DC
C0
C0
FC
FC
ENDCHAR
STARTCHAR U+255B
ENCODING 9563
SWIDTH 800 0
DWIDTH 8 0
BBX 5 11 0 2
BITMAP
18
18
18
18
18
F8
F8
18
18
F8
F8
ENDCHAR
STARTCHAR U+255C
ENCODING 9564
SWIDTH 800 0
DWIDTH 8 0
BBX 7 9 0 4
BITMAP
36
36
36
36
36
36
36
FE
FE
ENDCHAR
STARTCHAR U+255D
ENCODING 9565
SWIDTH 800 0
DWIDTH 8 0
BBX 7 11 0 2
BITMAP
36
36
36
36
36
F6
F6
06
06
FE
FE
ENDCHAR
STARTCHAR U+255E
ENCODING 9566
SWIDTH 800 0
DWIDTH 8 0
BBX 5 16 3 -3
BITMAP
C0
C0
C0
C0
C0
F8
F8
C0
C0
F8
F8
C0
C0
C0
C0
C0
ENDCHAR
STARTCHAR U+255F
ENCODING 9567
SWIDTH 800 0
DWIDTH 8 0
BBX 6 16 2 -3
BITMAP
D8
D8
D8
D8
D8
D8
D8
DC
DC
D8
D8
D8
D8
D8
D8
D8
ENDCHAR
STARTCHAR U+2560
ENCODING 9568
SWIDTH 800 0
DWIDTH 8 0
BBX 6 16 2 -3
BITMAP
D8
D8
D8
D8
D8
DC
DC
C0
C0
DC
DC
D8
D8
D8
D8
D8
ENDCHAR
STARTCHAR U+2561
ENCODING 9569
SWIDTH 800 0
DWIDTH 8 0
BBX 5 16 0 -3
BITMAP
18
18
18
18
18
F8
F8
18
18
F8
F8
18
18
18
18
18
ENDCHAR
STARTCHAR U+2562
ENCODING 9570
SWIDTH 800 0
DWIDTH 8 0
BBX 7 16 0 -3
BITMAP
36
36
36
36
36
36
36
F6
F6
36
36
36
36
36
36
36
ENDCHAR
STARTCHAR U+2563
ENCODING 9571
SWIDTH 800 0
DWIDTH 8 0
BBX 7 16 0 -3
BITMAP
36
36
36
36
36
F6
F6
06
06
F6
F6
36
36
36
36
36
ENDCHAR
STARTCHAR U+2564
ENCODING 9572
SWIDTH 800 0
DWIDTH 8 0
BBX 8 11 0 -3
BITMAP
FF
FF
00
00
FF
FF
18
18
18
18
18
ENDCHAR
STARTCHAR U+2565
ENCODING 9573
SWIDTH 800 0
DWIDTH 8 0
BBX 8 9 0 -3
BITMAP
FF
FF
36
36
36
36
36
36
36
ENDCHAR
STARTCHAR U+2566
ENCODING 9574
SWIDTH 800 0
DWIDTH 8 0
BBX 8 11 0 -3
BITMAP
FF
FF
00
00
F7
F7
36
36
36
36
36
ENDCHAR
STARTCHAR U+2567
ENCODING 9575
SWIDTH 800 0
DWIDTH 8 0
BBX 8 11 0 2
BITMAP
18
18
18
18
18
FF
FF
00
00
FF
FF
ENDCHAR
STARTCHAR U+2568
ENCODING 9576
SWIDTH 800 0
DWIDTH 8 0
BBX 8 9 0 4
BITMAP
36
36
36
36
36
36
36
FF
FF
ENDCHAR
STARTCHAR U+2569
ENCODING 9577
SWIDTH 800 0
DWIDTH 8 0
BBX 8 11 0 2
BITMAP
36
36
36
36
36
F7
F7
00
00
FF
FF
ENDCHAR
STARTCHAR U+256A
ENCODING 9578
SWIDTH 800 0
DWIDTH 8 0
BBX 8 16 0 -3
BITMAP
18
18
18
18
18
FF
FF
18
18
FF
FF
18
18
18
18
18
ENDCHAR
STARTCHAR U+256B
ENCODING 9579
SWIDTH 800 0
DWIDTH 8 0
BBX 8 16 0 -3
BITMAP
36
36
36
36
36
36
36
FF
FF
36
36
36
36
36
36
36
ENDCHAR
STARTCHAR U+256C
ENCODING 9580
SWIDTH 800 0
DWIDTH 8 0
BBX 8 16 0 -3
BITMAP
36
36
36
36
36
F7
F7
00
00
F7
F7
36
36
36
36
36
ENDCHAR
STARTCHAR U+2580
ENCODING 9600
SWIDTH 800 0
DWIDTH 8 0
BBX 8 8 0 5
BITMAP
FF
FF
FF
FF
FF
FF
FF
FF
ENDCHAR
STARTCHAR U+2584
ENCODING 9604
SWIDTH 800 0
DWIDTH 8 0
BBX 8 5 0 -3
BITMAP
FF
FF
FF
FF
FF
ENDCHAR
STARTCHAR U+2587
ENCODING 9607
SWIDTH 800 0
DWIDTH 8 0
BBX 8 8 0 -3
BITMAP
FF
FF
FF
FF
FF
FF
FF
FF
ENDCHAR
STARTCHAR U+2588
ENCODING 9608
SWIDTH 800 0
DWIDTH 8 0
BBX 8 16 0 -3
BITMAP
FF
FF
FF
FF
FF
FF
FF
FF
FF
FF
FF
FF
FF
FF
FF
FF
ENDCHAR
STARTCHAR U+258C
ENCODING 9612
SWIDTH 800 0
DWIDTH 8 0
BBX 4 16 0 -3
BITMAP
F0
F0
F0
F0
F0
F0
F0
F0
F0
F0
F0
F0
F0
F0
F0
F0
ENDCHAR
STARTCHAR U+2590
ENCODING 9616
SWIDTH 800 0
DWIDTH 8 0
BBX 4 16 4 -3
BITMAP
F0
F0
F0
F0
F0
F0
F0
F0
F0
F0
F0
F0
F0
F0
F0
F0
ENDCHAR
STARTCHAR U+2591
ENCODING 9617
SWIDTH 800 0
DWIDTH 8 0
BBX 7 15 1 -3
BITMAP
22
88
22
88
22
88
22
88
22
88
22
88
22
88
22
ENDCHAR
STARTCHAR U+2592
ENCODING 9618
SWIDTH 800 0
DWIDTH 8 0
BBX 8 16 0 -3
BITMAP
AA
55
AA
55
AA
55
AA
55
AA
55
AA
55
AA
55
AA
55
ENDCHAR
STARTCHAR U+2593
ENCODING 9619
SWIDTH 800 0
DWIDTH 8 0
BBX 8 16 0 -3
BITMAP
77
DD
77
DD
77
DD
77
DD
77
DD
77
DD
77
DD
77
DD
ENDCHAR
STARTCHAR U+2595
ENCODING 9621
SWIDTH 800 0
DWIDTH 8 0
BBX 1 16 7 -3
BITMAP
80
80
80
80
80
80
80
80
80
80
80
80
80
80
80
80
ENDCHAR
STARTCHAR U+2596
ENCODING 9622
SWIDTH 800 0
DWIDTH 8 0
BBX 4 4 0 -2
BITMAP
F0
F0
F0
F0
ENDCHAR
STARTCHAR U+2597
ENCODING 9623
SWIDTH 800 0
DWIDTH 8 0
BBX 4 4 4 -2
BITMAP
F0
F0
F0
F0
ENDCHAR
STARTCHAR U+2598
ENCODING 9624
SWIDTH 800 0
DWIDTH 8 0
BBX 4 4 0 2
BITMAP
F0
F0
F0
F0
ENDCHAR
STARTCHAR U+2599
ENCODING 9625
SWIDTH 800 0
DWIDTH 8 0
BBX 8 8 0 -2
BITMAP
F0
F0
F0
F0
FF
FF
FF
FF
ENDCHAR
STARTCHAR U+259A
ENCODING 9626
SWIDTH 800 0
DWIDTH 8 0
BBX 8 8 0 -2
BITMAP
F0
F0
F0
F0
0F
0F
0F
0F
ENDCHAR
STARTCHAR U+259B
ENCODING 9627
SWIDTH 800 0
DWIDTH 8 0
BBX 8 8 0 -2
BITMAP
F0
F0
F0
F0
FF
FF
FF
FF
ENDCHAR
STARTCHAR U+259C
ENCODING 9628
SWIDTH 800 0
DWIDTH 8 0
BBX 8 8 0 -2
BITMAP
FF
FF
FF
FF
0F
0F
0F
0F
ENDCHAR
STARTCHAR U+259D
ENCODING 9629
SWIDTH 800 0
DWIDTH 8 0
BBX 4 4 4 2
BITMAP
F0
F0
F0
F0
ENDCHAR
STARTCHAR U+259E
ENCODING 9630
SWIDTH 800 0
DWIDTH 8 0
BBX 8 8 0 -2
BITMAP
0F
0F
0F
0F
F0
F0
F0
F0
ENDCHAR
STARTCHAR U+259F
ENCODING 9631
SWIDTH 800 0
DWIDTH 8 0
BBX 8 8 0 -2
BITMAP
0F
0F
0F
0F
FF
FF
FF
FF
ENDCHAR
STARTCHAR U+25A0
ENCODING 9632
SWIDTH 800 0
DWIDTH 8 0
BBX 8 8 0 -2
BITMAP
FF
FF
FF
FF
FF
FF
FF
FF
ENDCHAR
STARTCHAR U+25A1
ENCODING 9633
SWIDTH 800 0
DWIDTH 8 0
BBX 8 8 0 -2
BITMAP
FF
81
81
81
81
81
81
FF
ENDCHAR
STARTCHAR U+25A3
ENCODING 9635
SWIDTH 800 0
DWIDTH 8 0
BBX 8 8 0 0
BITMAP
FF
81
BD
BD
BD
BD
81
FF
ENDCHAR
STARTCHAR U+25AA
ENCODING 9642
SWIDTH 800 0
DWIDTH 8 0
BBX 4 4 2 2
BITMAP
F0
F0
F0
F0
ENDCHAR
STARTCHAR U+25AB
ENCODING 9643
SWIDTH 800 0
DWIDTH 8 0
BBX 4 4 2 2
BITMAP
F0
90
90
F0
ENDCHAR
STARTCHAR U+25AC
ENCODING 9644
SWIDTH 900 0
DWIDTH 9 0
BBX 5 2 2 4
BITMAP
F8
F8
ENDCHAR
STARTCHAR U+25B2
ENCODING 9650
SWIDTH 800 0
DWIDTH 8 0
BBX 7 11 0 -1
BITMAP
10
10
38
38
7C
7C
FE
FE
FE
FE
FE
ENDCHAR
STARTCHAR U+25BA
ENCODING 9658
SWIDTH 800 0
DWIDTH 8 0
BBX 7 14 0 -2
BITMAP
80
C0
E0
F0
F8
FC
FE
FE
FC
F8
F0
E0
C0
80
ENDCHAR
STARTCHAR U+25BC
ENCODING 9660
SWIDTH 800 0
DWIDTH 8 0
BBX 7 11 0 -1
BITMAP
FE
FE
FE
FE
FE
7C
7C
38
38
10
10
ENDCHAR
STARTCHAR U+25C4
ENCODING 9668
SWIDTH 800 0
DWIDTH 8 0
BBX 7 14 1 -2
BITMAP
02
06
0E
1E
3E
7E
FE
FE
7E
3E
1E
0E
06
02
ENDCHAR
STARTCHAR U+25C6
ENCODING 9670
SWIDTH 800 0
DWIDTH 8 0
BBX 7 7 0 2
BITMAP
10
38
7C
FE
7C
38
10
ENDCHAR
STARTCHAR U+25C7
ENCODING 9671
SWIDTH 800 0
DWIDTH 8 0
BBX 7 7 0 2
BITMAP
10
28
44
82
44
28
10
ENDCHAR
STARTCHAR U+25C8
ENCODING 9672
SWIDTH 800 0
DWIDTH 8 0
BBX 7 7 0 2
BITMAP
10
28
54
BA
54
28
10
ENDCHAR
STARTCHAR U+25C9
ENCODING 9673
SWIDTH 800 0
DWIDTH 8 0
BBX 8 8 0 1
BITMAP
3C
42
99
BD
BD
99
42
3C
ENDCHAR
STARTCHAR U+25CA
ENCODING 9674
SWIDTH 800 0
DWIDTH 8 0
BBX 7 13 0 -2
BITMAP
10
10
28
28
44
44
82
44
44
28
28
10
10
ENDCHAR
STARTCHAR U+25CB
ENCODING 9675
SWIDTH 800 0
DWIDTH 8 0
BBX 8 8 0 1
BITMAP
3C
42
81
81
81
81
42
3C
ENDCHAR
STARTCHAR U+25CC
ENCODING 9676
SWIDTH 800 0
DWIDTH 8 0
BBX 8 8 0 1
BITMAP
24
00
81
00
00
81
00
24
ENDCHAR
STARTCHAR U+25CE
ENCODING 9678
SWIDTH 800 0
DWIDTH 8 0
BBX 8 8 0 1
BITMAP
3C
42
99
A5
A5
99
42
3C
ENDCHAR
STARTCHAR U+25CF
ENCODING 9679
SWIDTH 800 0
DWIDTH 8 0
BBX 8 8 0 1
BITMAP
3C
7E
FF
FF
FF
FF
7E
3C
ENDCHAR
STARTCHAR U+25D0
ENCODING 9680
SWIDTH 800 0
DWIDTH 8 0
BBX 8 8 0 1
BITMAP
3C
72
F1
F1
F1
F1
72
3C
ENDCHAR
STARTCHAR U+25D1
ENCODING 9681
SWIDTH 800 0
DWIDTH 8 0
BBX 8 8 0 1
BITMAP
3C
4E
8F
8F
8F
8F
4E
3C
ENDCHAR
STARTCHAR U+25D2
ENCODING 9682
SWIDTH 800 0
DWIDTH 8 0
BBX 8 8 0 1
BITMAP
3C
42
81
81
FF
FF
7E
3C
ENDCHAR
STARTCHAR U+25D3
ENCODING 9683
SWIDTH 800 0
DWIDTH 8 0
BBX 8 8 0 1
BITMAP
3C
7E
FF
FF
81
81
42
3C
ENDCHAR
STARTCHAR U+25D4
ENCODING 9684
SWIDTH 800 0
DWIDTH 8 0
BBX 8 8 0 1
BITMAP
3C
4E
8F
8F
81
81
42
3C
ENDCHAR
STARTCHAR U+25D5
ENCODING 9685
SWIDTH 800 0
DWIDTH 8 0
BBX 8 8 0 1
BITMAP
3C
72
F1
F1
81
81
42
3C
ENDCHAR
STARTCHAR U+25D6
ENCODING 9686
SWIDTH 800 0
DWIDTH 8 0
BBX 4 8 0 1
BITMAP
30
70
F0
F0
F0
F0
70
30
ENDCHAR
STARTCHAR U+25D7
ENCODING 9687
SWIDTH 800 0
DWIDTH 8 0
BBX 4 8 4 1
BITMAP
C0
E0
F0
F0
F0
F0
E0
C0
ENDCHAR
STARTCHAR U+25E2
ENCODING 9698
SWIDTH 800 0
DWIDTH 8 0
BBX 6 6 1 2
BITMAP
04
0C
1C
3C
7C
FC
ENDCHAR
STARTCHAR U+25E3
ENCODING 9699
SWIDTH 800 0
DWIDTH 8 0
BBX 6 6 1 2
BITMAP
80
C0
E0
F0
F8
FC
ENDCHAR
STARTCHAR U+25E4
ENCODING 9700
SWIDTH 800 0
DWIDTH 8 0
BBX 6 6 1 2
BITMAP
FC
F8
F0
E0
C0
80
ENDCHAR
STARTCHAR U+25E5
ENCODING 9701
SWIDTH 800 0
DWIDTH 8 0
BBX 6 6 1 2
BITMAP
FC
7C
3C
1C
0C
04
ENDCHAR
STARTCHAR U+25E6
ENCODING 9702
SWIDTH 800 0
DWIDTH 8 0
BBX 4 4 2 3
BITMAP
F0
90
90
F0
ENDCHAR
STARTCHAR U+25E7
ENCODING 9703
SWIDTH 800 0
DWIDTH 8 0
BBX 6 6 1 2
BITMAP
FC
E4
E4
E4
E4
FC
ENDCHAR
STARTCHAR U+25E8
ENCODING 9704
SWIDTH 800 0
DWIDTH 8 0
BBX 6 6 1 2
BITMAP
FC
9C
9C
9C
9C
FC
ENDCHAR
STARTCHAR U+25E9
ENCODING 9705
SWIDTH 800 0
DWIDTH 8 0
BBX 7 7 0 2
BITMAP
FE
FE
FA
F2
E2
C2
FE
ENDCHAR
STARTCHAR U+25EA
ENCODING 9706
SWIDTH 800 0
DWIDTH 8 0
BBX 7 7 0 2
BITMAP
FE
86
8E
9E
BE
FE
FE
ENDCHAR
STARTCHAR U+25EB
ENCODING 9707
SWIDTH 800 0
DWIDTH 8 0
BBX 7 7 0 2
BITMAP
FE
92
92
92
92
92
FE
ENDCHAR
STARTCHAR U+25EC
ENCODING 9708
SWIDTH 800 0
DWIDTH 8 0
BBX 7 10 0 0
BITMAP
10
10
38
38
54
54
54
92
92
FE
ENDCHAR
STARTCHAR U+25ED
ENCODING 9709
SWIDTH 800 0
DWIDTH 8 0
BBX 7 10 0 0
BITMAP
10
10
38
38
74
74
74
F2
F2
FE
ENDCHAR
STARTCHAR U+25EE
ENCODING 9710
SWIDTH 800 0
DWIDTH 8 0
BBX 7 10 0 0
BITMAP
10
10
38
38
5C
5C
5C
9E
9E
FE
ENDCHAR
STARTCHAR U+2600
ENCODING 9728
SWIDTH 800 0
DWIDTH 8 0
BBX 7 9 0 1
BITMAP
10
92
44
38
BA
38
44
92
10
ENDCHAR
STARTCHAR U+2605
ENCODING 9733
SWIDTH 800 0
DWIDTH 8 0
BBX 7 9 0 4
BITMAP
10
38
FE
7C
38
38
7C
EE
44
ENDCHAR
STARTCHAR U+2629
ENCODING 9769
SWIDTH 800 0
DWIDTH 8 0
BBX 7 9 0 1
BITMAP
38
10
10
92
FE
92
10
10
38
ENDCHAR
STARTCHAR U+262A
ENCODING 9770
SWIDTH 800 0
DWIDTH 8 0
BBX 8 9 0 1
BITMAP
3C
60
C0
C2
C7
C2
C0
60
3C
ENDCHAR
STARTCHAR U+263A
ENCODING 9786
SWIDTH 800 0
DWIDTH 8 0
BBX 8 13 0 -2
BITMAP
3C
42
81
A5
A5
A5
81
81
99
A5
81
42
3C
ENDCHAR
STARTCHAR U+263B
ENCODING 9787
SWIDTH 800 0
DWIDTH 8 0
BBX 8 13 0 -2
BITMAP
3C
7E
FF
DB
DB
DB
FF
FF
E7
DB
FF
7E
3C
ENDCHAR
STARTCHAR U+263C
ENCODING 9788
SWIDTH 800 0
DWIDTH 8 0
BBX 7 9 0 1
BITMAP
10
92
7C
44
C6
44
7C
92
10
ENDCHAR
STARTCHAR U+263D
ENCODING 9789
SWIDTH 800 0
DWIDTH 8 0
BBX 7 12 0 -1
BITMAP
0E
34
48
48
90
90
90
90
48
48
34
0E
ENDCHAR
STARTCHAR U+263E
ENCODING 9790
SWIDTH 800 0
DWIDTH 8 0
BBX 7 12 0 -1
BITMAP
E0
58
24
24
12
12
12
12
24
24
58
E0
ENDCHAR
STARTCHAR U+2640
ENCODING 9792
SWIDTH 800 0
DWIDTH 8 0
BBX 7 13 0 -1
BITMAP
38
44
C6
C6
C6
C6
44
38
10
10
7C
10
10
ENDCHAR
STARTCHAR U+2641
ENCODING 9793
SWIDTH 800 0
DWIDTH 8 0
BBX 7 13 0 -2
BITMAP
10
10
7C
10
10
38
44
C6
C6
C6
C6
44
38
ENDCHAR
STARTCHAR U+2642
ENCODING 9794
SWIDTH 800 0
DWIDTH 8 0
BBX 8 11 0 -1
BITMAP
0F
07
0F
3D
44
C6
C6
C6
C6
44
38
ENDCHAR
STARTCHAR U+2660
ENCODING 9824
SWIDTH 800 0
DWIDTH 8 0
BBX 8 11 0 -1
BITMAP
18
3C
7E
FF
FF
FF
FF
66
18
18
3C
ENDCHAR
STARTCHAR U+2663
ENCODING 9827
SWIDTH 800 0
DWIDTH 8 0
BBX 8 11 0 -1
BITMAP
18
3C
3C
7E
DB
FF
FF
5A
18
3C
7E
ENDCHAR
STARTCHAR U+2665
ENCODING 9829
SWIDTH 800 0
DWIDTH 8 0
BBX 8 11 0 -1
BITMAP
66
FF
FF
FF
FF
7E
7E
3C
3C
18
18
ENDCHAR
STARTCHAR U+2666
ENCODING 9830
SWIDTH 800 0
DWIDTH 8 0
BBX 8 14 0 -2
BITMAP
18
18
3C
3C
7E
7E
FF
FF
7E
7E
3C
3C
18
18
ENDCHAR
STARTCHAR U+266A
ENCODING 9834
SWIDTH 800 0
DWIDTH 8 0
BBX 7 13 0 -2
BITMAP
10
18
1C
16
12
12
10
10
10
10
70
F0
E0
ENDCHAR
STARTCHAR U+266B
ENCODING 9835
SWIDTH 800 0
DWIDTH 8 0
BBX 7 13 0 -2
BITMAP
3E
3E
22
3E
22
22
22
22
22
62
E6
CE
0C
ENDCHAR
STARTCHAR U+2720
ENCODING 10016
SWIDTH 800 0
DWIDTH 8 0
BBX 7 9 0 1
BITMAP
7C
38
92
D6
FE
D6
92
38
7C
ENDCHAR
STARTCHAR U+2724
ENCODING 10020
SWIDTH 800 0
DWIDTH 8 0
BBX 7 9 0 1
BITMAP
38
38
10
D6
FE
D6
10
38
38
ENDCHAR
STARTCHAR U+2725
ENCODING 10021
SWIDTH 800 0
DWIDTH 8 0
BBX 7 9 0 1
BITMAP
10
38
10
54
FE
54
10
38
10
ENDCHAR
STARTCHAR U+27D3
ENCODING 10195
SWIDTH 800 0
DWIDTH 8 0
BBX 7 7 0 2
BITMAP
02
02
02
12
02
02
FE
ENDCHAR
STARTCHAR U+27D4
ENCODING 10196
SWIDTH 800 0
DWIDTH 8 0
BBX 7 7 0 1
BITMAP
FE
80
80
90
80
80
80
ENDCHAR
STARTCHAR U+2847
ENCODING 10311
SWIDTH 800 0
DWIDTH 8 0
BBX 2 11 1 -1
BITMAP
C0
C0
00
C0
C0
00
C0
C0
00
C0
C0
ENDCHAR
STARTCHAR U+28B8
ENCODING 10424
SWIDTH 800 0
DWIDTH 8 0
BBX 2 11 5 -1
BITMAP
C0
C0
00
C0
C0
00
C0
C0
00
C0
C0
ENDCHAR
STARTCHAR U+28FF
ENCODING 10495
SWIDTH 800 0
DWIDTH 8 0
BBX 6 11 1 -1
BITMAP
CC
CC
00
CC
CC
00
CC
CC
00
CC
CC
ENDCHAR
STARTCHAR U+29EA
ENCODING 10730
SWIDTH 800 0
DWIDTH 8 0
BBX 7 10 0 0
BITMAP
10
38
7C
FE
7C
38
10
10
38
10
ENDCHAR
STARTCHAR U+29EE
ENCODING 10734
SWIDTH 800 0
DWIDTH 8 0
BBX 7 12 0 -1
BITMAP
FE
10
10
FE
82
82
82
82
FE
10
10
FE
ENDCHAR
STARTCHAR U+29EF
ENCODING 10735
SWIDTH 800 0
DWIDTH 8 0
BBX 7 12 0 -1
BITMAP
FE
10
10
FE
FE
FE
FE
FE
FE
10
10
FE
ENDCHAR
STARTCHAR U+29F0
ENCODING 10736
SWIDTH 800 0
DWIDTH 8 0
BBX 7 13 0 -2
BITMAP
FE
10
10
10
28
44
82
44
28
10
10
10
FE
ENDCHAR
STARTCHAR U+29F1
ENCODING 10737
SWIDTH 800 0
DWIDTH 8 0
BBX 7 13 0 -2
BITMAP
FE
10
10
10
38
7C
FE
7C
38
10
10
10
FE
ENDCHAR
STARTCHAR U+29F2
ENCODING 10738
SWIDTH 800 0
DWIDTH 8 0
BBX 7 13 0 -2
BITMAP
FE
10
10
38
44
82
82
82
44
38
10
10
FE
ENDCHAR
STARTCHAR U+2B66
ENCODING 11110
SWIDTH 800 0
DWIDTH 8 0
BBX 8 8 0 0
BITMAP
E0
C0
A0
10
08
04
02
01
ENDCHAR
STARTCHAR U+2B67
ENCODING 11111
SWIDTH 800 0
DWIDTH 8 0
BBX 8 8 0 0
BITMAP
07
03
05
08
10
20
40
80
ENDCHAR
STARTCHAR U+2B68
ENCODING 11112
SWIDTH 800 0
DWIDTH 8 0
BBX 8 8 0 1
BITMAP
80
40
20
10
08
05
03
07
ENDCHAR
STARTCHAR U+2B69
ENCODING 11113
SWIDTH 800 0
DWIDTH 8 0
BBX 8 8 0 1
BITMAP
01
02
04
08
10
A0
C0
E0
ENDCHAR
STARTCHAR U+2B6E
ENCODING 11118
SWIDTH 800 0
DWIDTH 8 0
BBX 8 10 0 0
BITMAP
70
30
50
82
81
81
81
81
42
3C
ENDCHAR
STARTCHAR U+2B6F
ENCODING 11119
SWIDTH 800 0
DWIDTH 8 0
BBX 8 10 0 0
BITMAP
0E
0C
0A
41
81
81
81
81
42
3C
ENDCHAR
STARTCHAR U+2B76
ENCODING 11126
SWIDTH 800 0
DWIDTH 8 0
BBX 8 9 0 1
BITMAP
F0
00
70
60
50
08
04
02
01
ENDCHAR
STARTCHAR U+2B77
ENCODING 11127
SWIDTH 800 0
DWIDTH 8 0
BBX 8 9 0 1
BITMAP
0F
00
0E
06
0A
10
20
40
80
ENDCHAR
STARTCHAR U+2B78
ENCODING 11128
SWIDTH 800 0
DWIDTH 8 0
BBX 8 9 0 -1
BITMAP
80
40
20
10
0A
06
0E
00
0F
ENDCHAR
STARTCHAR U+2B79
ENCODING 11129
SWIDTH 800 0
DWIDTH 8 0
BBX 8 9 0 -1
BITMAP
01
02
04
08
50
60
70
00
F0
ENDCHAR
STARTCHAR U+2B7E
ENCODING 11134
SWIDTH 800 0
DWIDTH 8 0
BBX 8 11 0 -1
BITMAP
90
B0
FF
B0
90
00
09
0D
FF
0D
09
ENDCHAR
STARTCHAR U+2B7F
ENCODING 11135
SWIDTH 900 0
DWIDTH 9 0
BBX 8 11 1 -1
BITMAP
F8
20
74
FC
24
24
24
3F
2E
04
1F
ENDCHAR
STARTCHAR U+2BCA
ENCODING 11210
SWIDTH 800 0
DWIDTH 8 0
BBX 7 4 0 5
BITMAP
38
7C
FE
FE
ENDCHAR
STARTCHAR U+2BCB
ENCODING 11211
SWIDTH 800 0
DWIDTH 8 0
BBX 7 4 0 2
BITMAP
FE
FE
7C
38
ENDCHAR
STARTCHAR U+2D44
ENCODING 11588
SWIDTH 900 0
DWIDTH 9 0
BBX 7 11 1 -1
BITMAP
10
10
10
10
10
10
FE
82
82
82
82
ENDCHAR
STARTCHAR U+2E0C
ENCODING 11788
SWIDTH 800 0
DWIDTH 8 0
BBX 5 5 1 8
BITMAP
80
40
20
10
08
ENDCHAR
STARTCHAR U+2E0D
ENCODING 11789
SWIDTH 800 0
DWIDTH 8 0
BBX 5 5 2 8
BITMAP
08
10
20
40
80
ENDCHAR
STARTCHAR U+2E0E
ENCODING 11790
SWIDTH 800 0
DWIDTH 8 0
BBX 7 15 0 -3
BITMAP
10
10
00
38
00
FE
10
FE
10
FE
00
38
00
10
10
ENDCHAR
STARTCHAR U+2E14
ENCODING 11796
SWIDTH 800 0
DWIDTH 8 0
BBX 8 8 0 0
BITMAP
01
02
04
88
90
A0
40
38
ENDCHAR
STARTCHAR U+2E15
ENCODING 11797
SWIDTH 800 0
DWIDTH 8 0
BBX 8 8 0 1
BITMAP
1C
02
05
09
11
20
40
80
ENDCHAR
STARTCHAR U+2E16
ENCODING 11798
SWIDTH 800 0
DWIDTH 8 0
BBX 6 9 1 0
BITMAP
20
80
60
18
04
18
60
80
20
ENDCHAR
STARTCHAR U+2E1B
ENCODING 11803
SWIDTH 800 0
DWIDTH 8 0
BBX 8 8 0 3
BITMAP
18
24
24
18
00
71
99
8E
ENDCHAR
STARTCHAR U+2E1C
ENCODING 11804
SWIDTH 800 0
DWIDTH 8 0
BBX 5 5 2 -3
BITMAP
80
40
20
10
08
ENDCHAR
STARTCHAR U+2E1D
ENCODING 11805
SWIDTH 800 0
DWIDTH 8 0
BBX 5 5 1 -3
BITMAP
08
10
20
40
80
ENDCHAR
STARTCHAR U+2E1E
ENCODING 11806
SWIDTH 800 0
DWIDTH 8 0
BBX 8 6 0 3
BITMAP
18
18
00
71
99
8E
ENDCHAR
STARTCHAR U+2E1F
ENCODING 11807
SWIDTH 800 0
DWIDTH 8 0
BBX 8 6 0 0
BITMAP
71
99
8E
00
18
18
ENDCHAR
STARTCHAR U+2E26
ENCODING 11814
SWIDTH 800 0
DWIDTH 8 0
BBX 7 6 0 1
BITMAP
7E
80
80
80
80
7E
ENDCHAR
STARTCHAR U+2E27
ENCODING 11815
SWIDTH 800 0
DWIDTH 8 0
BBX 7 6 0 1
BITMAP
FC
02
02
02
02
FC
ENDCHAR
STARTCHAR U+2E3F
ENCODING 11839
SWIDTH 800 0
DWIDTH 8 0
BBX 7 13 0 -2
BITMAP
14
3C
56
D4
D4
D4
D4
56
3C
14
14
14
14
ENDCHAR
STARTCHAR U+A530
ENCODING 42288
SWIDTH 800 0
DWIDTH 8 0
BBX 7 9 0 0
BITMAP
10
10
54
10
FE
10
54
10
10
ENDCHAR
STARTCHAR U+E16C
ENCODING 57708
SWIDTH 800 0
DWIDTH 8 0
BBX 7 12 0 -1
BITMAP
70
8A
8A
AA
AA
AA
AA
AA
AA
92
84
78
ENDCHAR
STARTCHAR U+E1F6
ENCODING 57846
SWIDTH 900 0
DWIDTH 9 0
BBX 8 11 0 -1
BITMAP
18
24
42
42
42
42
FF
FF
FF
FF
FF
ENDCHAR
STARTCHAR U+E1F7
ENCODING 57847
SWIDTH 900 0
DWIDTH 9 0
BBX 8 12 0 -1
BITMAP
18
24
42
42
42
02
02
FF
FF
FF
FF
FF
ENDCHAR
STARTCHAR U+E390
ENCODING 58256
SWIDTH 800 0
DWIDTH 8 0
BBX 3 9 5 1
BITMAP
80
40
20
20
20
20
20
40
80
ENDCHAR
STARTCHAR U+E391
ENCODING 58257
SWIDTH 800 0
DWIDTH 8 0
BBX 4 9 4 1
BITMAP
C0
60
30
30
30
30
30
60
C0
ENDCHAR
STARTCHAR U+E392
ENCODING 58258
SWIDTH 800 0
DWIDTH 8 0
BBX 5 9 3 1
BITMAP
E0
70
38
38
38
38
38
70
E0
ENDCHAR
STARTCHAR U+E393
ENCODING 58259
SWIDTH 800 0
DWIDTH 8 0
BBX 5 9 3 1
BITMAP
E0
70
78
78
78
78
78
70
E0
ENDCHAR
STARTCHAR U+E394
ENCODING 58260
SWIDTH 800 0
DWIDTH 8 0
BBX 5 9 3 1
BITMAP
E0
F0
F8
F8
F8
F8
F8
F0
E0
ENDCHAR
STARTCHAR U+E395
ENCODING 58261
SWIDTH 800 0
DWIDTH 8 0
BBX 6 9 2 1
BITMAP
70
F8
FC
FC
FC
FC
FC
F8
70
ENDCHAR
STARTCHAR U+E396
ENCODING 58262
SWIDTH 800 0
DWIDTH 8 0
BBX 8 9 0 1
BITMAP
3C
7E
7F
FF
FF
FF
7F
7E
3C
ENDCHAR
STARTCHAR U+E39B
ENCODING 58267
SWIDTH 800 0
DWIDTH 8 0
BBX 8 9 0 1
BITMAP
3C
7E
FF
FF
FF
FF
FF
7E
3C
ENDCHAR
STARTCHAR U+E39C
ENCODING 58268
SWIDTH 800 0
DWIDTH 8 0
BBX 8 9 0 1
BITMAP
3C
7E
FE
FF
FF
FF
FE
7E
3C
ENDCHAR
STARTCHAR U+E39D
ENCODING 58269
SWIDTH 800 0
DWIDTH 8 0
BBX 6 9 0 1
BITMAP
38
7C
FC
FC
FC
FC
FC
7C
38
ENDCHAR
STARTCHAR U+E39E
ENCODING 58270
SWIDTH 800 0
DWIDTH 8 0
BBX 5 9 0 1
BITMAP
38
78
F8
F8
F8
F8
F8
78
38
ENDCHAR
STARTCHAR U+E39F
ENCODING 58271
SWIDTH 800 0
DWIDTH 8 0
BBX 5 9 0 1
BITMAP
38
70
F0
F0
F0
F0
F0
70
38
ENDCHAR
STARTCHAR U+E3A0
ENCODING 58272
SWIDTH 800 0
DWIDTH 8 0
BBX 5 9 0 1
BITMAP
38
70
E0
E0
E0
E0
E0
70
38
ENDCHAR
STARTCHAR U+E3A1
ENCODING 58273
SWIDTH 800 0
DWIDTH 8 0
BBX 4 9 0 1
BITMAP
30
60
C0
C0
C0
C0
C0
60
30
ENDCHAR
STARTCHAR U+E3A2
ENCODING 58274
SWIDTH 800 0
DWIDTH 8 0
BBX 3 9 0 1
BITMAP
20
40
80
80
80
80
80
40
20
ENDCHAR
STARTCHAR U+FE85
ENCODING 65157
SWIDTH 800 0
DWIDTH 8 0
BBX 5 9 1 1
BITMAP
20
20
20
F8
20
F8
20
20
20
ENDCHAR
STARTCHAR U+FE8B
ENCODING 65163
SWIDTH 800 0
DWIDTH 8 0
BBX 7 14 0 -2
BITMAP
10
92
54
38
92
54
38
92
54
38
92
FE
92
10
ENDCHAR
STARTCHAR U+FE8D
ENCODING 65165
SWIDTH 800 0
DWIDTH 8 0
BBX 10 21 0 -13
BITMAP
8700
C700
E700
B100
9900
8D00
8700
8300
8100
0000
0000
0000
0000
0000
0000
0000
0000
0000
0000
0000
0040
ENDCHAR
STARTCHAR U+FE91
ENCODING 65169
SWIDTH 800 0
DWIDTH 8 0
BBX 8 9 0 0
BITMAP
C0
C0
68
A4
A2
92
88
47
38
ENDCHAR
STARTCHAR U+FE93
ENCODING 65171
SWIDTH 900 0
DWIDTH 9 0
BBX 9 8 0 0
BITMAP
0100
0D00
1100
2280
0480
3880
E100
DE00
ENDCHAR
STARTCHAR U+FE97
ENCODING 65175
SWIDTH 900 0
DWIDTH 9 0
BBX 9 8 0 0
BITMAP
3D80
4380
8E00
9000
A200
4400
5800
4000
ENDCHAR
STARTCHAR U+FE9B
ENCODING 65179
SWIDTH 800 0
DWIDTH 8 0
BBX 8 9 0 0
BITMAP
1C
E2
11
49
45
25
16
03
03
ENDCHAR
STARTCHAR U+FE9F
ENCODING 65183
SWIDTH 900 0
DWIDTH 9 0
BBX 9 8 0 0
BITMAP
DE00
E100
3880
0480
2280
1100
0D00
0100
ENDCHAR
STARTCHAR U+FEA3
ENCODING 65187
SWIDTH 800 0
DWIDTH 8 0
BBX 8 9 0 0
BITMAP
38
47
88
92
A2
A4
68
C0
C0
ENDCHAR
STARTCHAR U+FEA7
ENCODING 65191
SWIDTH 800 0
DWIDTH 8 0
BBX 8 9 0 0
BITMAP
03
03
16
25
45
49
11
E2
1C
ENDCHAR
STARTCHAR U+FEA9
ENCODING 65193
SWIDTH 900 0
DWIDTH 9 0
BBX 9 8 0 1
BITMAP
4000
5800
4400
A200
9000
8E00
4380
3D80
ENDCHAR
STARTCHAR U+FEAB
ENCODING 65195
SWIDTH 900 0
DWIDTH 9 0
BBX 9 7 0 1
BITMAP
0E00
1000
2F00
F080
C600
2200
1C00
ENDCHAR
STARTCHAR U+FEAD
ENCODING 65197
SWIDTH 900 0
DWIDTH 9 0
BBX 9 7 0 1
BITMAP
1C00
2200
C600
F080
2F00
1000
0E00
ENDCHAR
STARTCHAR U+FEAF
ENCODING 65199
SWIDTH 900 0
DWIDTH 9 0
BBX 9 7 0 1
BITMAP
3800
0400
7A00
8780
3180
2200
1C00
ENDCHAR
STARTCHAR U+FEB3
ENCODING 65203
SWIDTH 900 0
DWIDTH 9 0
BBX 9 7 0 1
BITMAP
1C00
2200
3180
8780
7A00
0400
3800
ENDCHAR
STARTCHAR U+FEB7
ENCODING 65207
SWIDTH 800 0
DWIDTH 8 0
BBX 8 7 0 1
BITMAP
04
02
D9
B1
61
D1
8E
ENDCHAR
STARTCHAR U+FEBB
ENCODING 65211
SWIDTH 900 0
DWIDTH 9 0
BBX 8 7 0 1
BITMAP
8E
D1
61
B1
D9
02
04
ENDCHAR
STARTCHAR U+FEBF
ENCODING 65215
SWIDTH 800 0
DWIDTH 8 0
BBX 8 7 0 1
BITMAP
20
40
9B
8D
86
8B
71
ENDCHAR
STARTCHAR U+FEC1
ENCODING 65217
SWIDTH 900 0
DWIDTH 9 0
BBX 8 7 1 1
BITMAP
71
8B
86
8D
9B
40
20
ENDCHAR
STARTCHAR U+FEC5
ENCODING 65221
SWIDTH 800 0
DWIDTH 8 0
BBX 7 9 0 1
BITMAP
38
10
10
92
FE
92
10
10
38
ENDCHAR
STARTCHAR U+FECA
ENCODING 65226
SWIDTH 800 0
DWIDTH 8 0
BBX 7 12 0 -1
BITMAP
10
92
54
38
92
54
38
92
54
38
10
10
ENDCHAR
STARTCHAR U+FECB
ENCODING 65227
SWIDTH 800 0
DWIDTH 8 0
BBX 7 9 0 0
BITMAP
38
10
54
92
FE
92
54
10
38
ENDCHAR
STARTCHAR U+FECF
ENCODING 65231
SWIDTH 800 0
DWIDTH 8 0
BBX 8 5 0 2
BITMAP
04
0A
12
21
C1
ENDCHAR
STARTCHAR U+FF1A
ENCODING 65306
SWIDTH 800 0
DWIDTH 8 0
BBX 2 11 1 -1
BITMAP
C0
C0
C0
C0
00
00
00
C0
C0
C0
C0
ENDCHAR
STARTCHAR U+FF1B
ENCODING 65307
SWIDTH 800 0
DWIDTH 8 0
BBX 3 12 0 -2
BITMAP
60
60
60
60
00
00
00
60
60
60
60
C0
ENDCHAR
STARTCHAR U+10602
ENCODING 67074
SWIDTH 800 0
DWIDTH 8 0
BBX 5 9 1 1
BITMAP
20
20
20
F8
20
F8
20
20
20
ENDCHAR
STARTCHAR U+10603
ENCODING 67075
SWIDTH 800 0
DWIDTH 8 0
BBX 7 12 0 -1
BITMAP
10
92
54
38
92
54
38
92
54
38
10
10
ENDCHAR
STARTCHAR U+10760
ENCODING 67424
SWIDTH 800 0
DWIDTH 8 0
BBX 7 14 0 -2
BITMAP
10
92
54
38
92
54
38
92
54
38
92
FE
92
10
ENDCHAR
STARTCHAR U+1D1D9
ENCODING 119257
SWIDTH 800 0
DWIDTH 8 0
BBX 10 21 0 -13
BITMAP
8700
C700
E700
B100
9900
8D00
8700
8300
8100
0000
0000
0000
0000
0000
0000
0000
0000
0000
0000
0000
0040
ENDCHAR
STARTCHAR U+1F650
ENCODING 128592
SWIDTH 800 0
DWIDTH 8 0
BBX 8 9 0 0
BITMAP
C0
C0
68
A4
A2
92
88
47
38
ENDCHAR
STARTCHAR U+1F651
ENCODING 128593
SWIDTH 900 0
DWIDTH 9 0
BBX 9 8 0 0
BITMAP
0100
0D00
1100
2280
0480
3880
E100
DE00
ENDCHAR
STARTCHAR U+1F652
ENCODING 128594
SWIDTH 900 0
DWIDTH 9 0
BBX 9 8 0 0
BITMAP
3D80
4380
8E00
9000
A200
4400
5800
4000
ENDCHAR
STARTCHAR U+1F653
ENCODING 128595
SWIDTH 800 0
DWIDTH 8 0
BBX 8 9 0 0
BITMAP
1C
E2
11
49
45
25
16
03
03
ENDCHAR
STARTCHAR U+1F654
ENCODING 128596
SWIDTH 900 0
DWIDTH 9 0
BBX 9 8 0 0
BITMAP
DE00
E100
3880
0480
2280
1100
0D00
0100
ENDCHAR
STARTCHAR U+1F655
ENCODING 128597
SWIDTH 800 0
DWIDTH 8 0
BBX 8 9 0 0
BITMAP
38
47
88
92
A2
A4
68
C0
C0
ENDCHAR
STARTCHAR U+1F656
ENCODING 128598
SWIDTH 800 0
DWIDTH 8 0
BBX 8 9 0 0
BITMAP
03
03
16
25
45
49
11
E2
1C
ENDCHAR
STARTCHAR U+1F657
ENCODING 128599
SWIDTH 900 0
DWIDTH 9 0
BBX 9 8 0 1
BITMAP
4000
5800
4400
A200
9000
8E00
4380
3D80
ENDCHAR
STARTCHAR U+1F658
ENCODING 128600
SWIDTH 900 0
DWIDTH 9 0
BBX 9 7 0 1
BITMAP
0E00
1000
2F00
F080
C600
2200
1C00
ENDCHAR
STARTCHAR U+1F659
ENCODING 128601
SWIDTH 900 0
DWIDTH 9 0
BBX 9 7 0 1
BITMAP
1C00
2200
C600
F080
2F00
1000
0E00
ENDCHAR
STARTCHAR U+1F65A
ENCODING 128602
SWIDTH 900 0
DWIDTH 9 0
BBX 9 7 0 1
BITMAP
3800
0400
7A00
8780
3180
2200
1C00
ENDCHAR
STARTCHAR U+1F65B
ENCODING 128603
SWIDTH 900 0
DWIDTH 9 0
BBX 9 7 0 1
BITMAP
1C00
2200
3180
8780
7A00
0400
3800
ENDCHAR
STARTCHAR U+1F660
ENCODING 128608
SWIDTH 800 0
DWIDTH 8 0
BBX 8 7 0 1
BITMAP
04
02
D9
B1
61
D1
8E
ENDCHAR
STARTCHAR U+1F661
ENCODING 128609
SWIDTH 900 0
DWIDTH 9 0
BBX 8 7 0 1
BITMAP
8E
D1
61
B1
D9
02
04
ENDCHAR
STARTCHAR U+1F662
ENCODING 128610
SWIDTH 800 0
DWIDTH 8 0
BBX 8 7 0 1
BITMAP
20
40
9B
8D
86
8B
71
ENDCHAR
STARTCHAR U+1F663
ENCODING 128611
SWIDTH 900 0
DWIDTH 9 0
BBX 8 7 1 1
BITMAP
71
8B
86
8D
9B
40
20
ENDCHAR
STARTCHAR U+1F70A
ENCODING 128778
SWIDTH 800 0
DWIDTH 8 0
BBX 7 9 0 1
BITMAP
38
10
10
92
FE
92
10
10
38
ENDCHAR
STARTCHAR U+1F70B
ENCODING 128779
SWIDTH 800 0
DWIDTH 8 0
BBX 7 9 0 0
BITMAP
38
10
54
92
FE
92
54
10
38
ENDCHAR
STARTCHAR U+1F760
ENCODING 128864
SWIDTH 800 0
DWIDTH 8 0
BBX 8 5 0 2
BITMAP
04
0A
12
21
C1
ENDCHAR
ENDFONT
