STARTFONT 2.1
FONT -Trithemius6x9-Regular-R-Regular--9-9-75-75-c-80-iso10646-1
SIZE 9 75 75
FONTBOUNDINGBOX 6 9 0 0
STARTPROPERTIES 9
FAMILY_NAME "Trithemius6x9"
WEIGHT_NAME "Regular"
FONT_VERSION "Version 1.0"
FOUNDRY "Made with Bits'n'Picas by Kreative Software"
FONT_ASCENT 9
FONT_DESCENT 0
POINT_SIZE 9
X_HEIGHT 0
CAP_HEIGHT 5
ENDPROPERTIES
CHARS 264
STARTCHAR U+0021
ENCODING 33
SWIDTH 1000 0
DWIDTH 6 0
BBX 1 8 2 1
BITMAP
80
80
80
80
80
80
00
80
ENDCHAR
STARTCHAR U+0022
ENCODING 34
SWIDTH 1000 0
DWIDTH 6 0
BBX 3 2 1 7
BITMAP
A0
A0
ENDCHAR
STARTCHAR U+0023
ENCODING 35
SWIDTH 1000 0
DWIDTH 6 0
BBX 5 7 0 1
BITMAP
50
50
F8
50
F8
50
50
ENDCHAR
STARTCHAR U+0024
ENCODING 36
SWIDTH 1000 0
DWIDTH 6 0
BBX 5 9 0 0
BITMAP
20
70
A8
A0
70
28
A8
70
20
ENDCHAR
STARTCHAR U+0025
ENCODING 37
SWIDTH 1000 0
DWIDTH 6 0
BBX 6 8 0 0
BITMAP
48
A8
50
10
20
28
54
48
ENDCHAR
STARTCHAR U+0026
ENCODING 38
SWIDTH 1000 0
DWIDTH 6 0
BBX 6 7 0 1
BITMAP
60
90
60
94
88
88
74
ENDCHAR
STARTCHAR U+0027
ENCODING 39
SWIDTH 1000 0
DWIDTH 6 0
BBX 1 2 2 6
BITMAP
80
80
ENDCHAR
STARTCHAR U+0028
ENCODING 40
SWIDTH 1000 0
DWIDTH 6 0
BBX 2 8 2 1
BITMAP
40
80
80
80
80
80
80
40
ENDCHAR
STARTCHAR U+0029
ENCODING 41
SWIDTH 1000 0
DWIDTH 6 0
BBX 2 8 2 1
BITMAP
80
40
40
40
40
40
40
80
ENDCHAR
STARTCHAR U+002A
ENCODING 42
SWIDTH 1000 0
DWIDTH 6 0
BBX 5 5 0 4
BITMAP
20
A8
70
A8
20
ENDCHAR
STARTCHAR U+002B
ENCODING 43
SWIDTH 1000 0
DWIDTH 6 0
BBX 5 5 0 2
BITMAP
20
20
F8
20
20
ENDCHAR
STARTCHAR U+002C
ENCODING 44
SWIDTH 1000 0
DWIDTH 6 0
BBX 2 3 1 0
BITMAP
40
40
80
ENDCHAR
STARTCHAR U+002D
ENCODING 45
SWIDTH 1000 0
DWIDTH 6 0
BBX 4 1 1 4
BITMAP
F0
ENDCHAR
STARTCHAR U+002E
ENCODING 46
SWIDTH 1000 0
DWIDTH 6 0
BBX 1 1 2 1
BITMAP
80
ENDCHAR
STARTCHAR U+002F
ENCODING 47
SWIDTH 1000 0
DWIDTH 6 0
BBX 4 8 1 1
BITMAP
10
10
20
20
40
40
80
80
ENDCHAR
STARTCHAR U+0030
ENCODING 48
SWIDTH 1000 0
DWIDTH 6 0
BBX 5 8 0 1
BITMAP
70
88
98
A8
C8
88
88
70
ENDCHAR
STARTCHAR U+0031
ENCODING 49
SWIDTH 1000 0
DWIDTH 6 0
BBX 3 8 1 1
BITMAP
40
C0
40
40
40
40
40
E0
ENDCHAR
STARTCHAR U+0032
ENCODING 50
SWIDTH 1000 0
DWIDTH 6 0
BBX 5 8 0 1
BITMAP
70
88
08
10
20
40
80
F8
ENDCHAR
STARTCHAR U+0033
ENCODING 51
SWIDTH 1000 0
DWIDTH 6 0
BBX 5 8 0 1
BITMAP
70
88
08
30
08
08
88
70
ENDCHAR
STARTCHAR U+0034
ENCODING 52
SWIDTH 1000 0
DWIDTH 6 0
BBX 5 8 0 1
BITMAP
18
28
48
88
F8
08
08
08
ENDCHAR
STARTCHAR U+0035
ENCODING 53
SWIDTH 1000 0
DWIDTH 6 0
BBX 5 8 0 1
BITMAP
F8
80
80
F0
08
08
88
70
ENDCHAR
STARTCHAR U+0036
ENCODING 54
SWIDTH 1000 0
DWIDTH 6 0
BBX 5 8 0 1
BITMAP
70
88
80
F0
88
88
88
70
ENDCHAR
STARTCHAR U+0037
ENCODING 55
SWIDTH 1000 0
DWIDTH 6 0
BBX 5 8 0 1
BITMAP
F8
08
10
10
20
20
40
40
ENDCHAR
STARTCHAR U+0038
ENCODING 56
SWIDTH 1000 0
DWIDTH 6 0
BBX 5 8 0 1
BITMAP
70
88
88
70
88
88
88
70
ENDCHAR
STARTCHAR U+0039
ENCODING 57
SWIDTH 1000 0
DWIDTH 6 0
BBX 5 8 0 1
BITMAP
70
88
88
88
78
08
08
70
ENDCHAR
STARTCHAR U+003A
ENCODING 58
SWIDTH 1000 0
DWIDTH 6 0
BBX 1 4 2 3
BITMAP
80
00
00
80
ENDCHAR
STARTCHAR U+003B
ENCODING 59
SWIDTH 1000 0
DWIDTH 6 0
BBX 2 6 1 1
BITMAP
40
00
00
40
40
80
ENDCHAR
STARTCHAR U+003C
ENCODING 60
SWIDTH 1000 0
DWIDTH 6 0
BBX 4 7 1 1
BITMAP
10
20
40
80
40
20
10
ENDCHAR
STARTCHAR U+003D
ENCODING 61
SWIDTH 1000 0
DWIDTH 6 0
BBX 5 3 0 3
BITMAP
F8
00
F8
ENDCHAR
STARTCHAR U+003E
ENCODING 62
SWIDTH 1000 0
DWIDTH 6 0
BBX 4 7 1 1
BITMAP
80
40
20
10
20
40
80
ENDCHAR
STARTCHAR U+003F
ENCODING 63
SWIDTH 1000 0
DWIDTH 6 0
BBX 5 8 0 1
BITMAP
70
88
08
10
20
20
00
20
ENDCHAR
STARTCHAR U+0040
ENCODING 64
SWIDTH 1000 0
DWIDTH 6 0
BBX 5 8 0 1
BITMAP
70
88
B8
A8
A8
B8
80
70
ENDCHAR
STARTCHAR U+0041
ENCODING 65
SWIDTH 1000 0
DWIDTH 6 0
BBX 5 8 0 1
BITMAP
20
50
88
88
F8
88
88
88
ENDCHAR
STARTCHAR U+0042
ENCODING 66
SWIDTH 1000 0
DWIDTH 6 0
BBX 5 8 0 1
BITMAP
F0
88
88
F0
88
88
88
F0
ENDCHAR
STARTCHAR U+0043
ENCODING 67
SWIDTH 1000 0
DWIDTH 6 0
BBX 5 8 0 1
BITMAP
70
88
80
80
80
80
88
70
ENDCHAR
STARTCHAR U+0044
ENCODING 68
SWIDTH 1000 0
DWIDTH 6 0
BBX 5 8 0 1
BITMAP
F0
88
88
88
88
88
88
F0
ENDCHAR
STARTCHAR U+0045
ENCODING 69
SWIDTH 1000 0
DWIDTH 6 0
BBX 5 8 0 1
BITMAP
F8
80
80
F0
80
80
80
F8
ENDCHAR
STARTCHAR U+0046
ENCODING 70
SWIDTH 1000 0
DWIDTH 6 0
BBX 5 8 0 1
BITMAP
F8
80
80
F0
80
80
80
80
ENDCHAR
STARTCHAR U+0047
ENCODING 71
SWIDTH 1000 0
DWIDTH 6 0
BBX 5 8 0 1
BITMAP
70
88
80
80
98
88
88
70
ENDCHAR
STARTCHAR U+0048
ENCODING 72
SWIDTH 1000 0
DWIDTH 6 0
BBX 5 8 0 1
BITMAP
88
88
88
F8
88
88
88
88
ENDCHAR
STARTCHAR U+0049
ENCODING 73
SWIDTH 1000 0
DWIDTH 6 0
BBX 3 8 1 1
BITMAP
E0
40
40
40
40
40
40
E0
ENDCHAR
STARTCHAR U+004A
ENCODING 74
SWIDTH 1000 0
DWIDTH 6 0
BBX 5 8 0 1
BITMAP
78
10
10
10
10
10
90
60
ENDCHAR
STARTCHAR U+004B
ENCODING 75
SWIDTH 1000 0
DWIDTH 6 0
BBX 5 8 0 1
BITMAP
88
88
90
E0
90
88
88
88
ENDCHAR
STARTCHAR U+004C
ENCODING 76
SWIDTH 1000 0
DWIDTH 6 0
BBX 5 8 0 1
BITMAP
80
80
80
80
80
80
80
F8
ENDCHAR
STARTCHAR U+004D
ENCODING 77
SWIDTH 1000 0
DWIDTH 6 0
BBX 5 8 0 1
BITMAP
88
D8
A8
88
88
88
88
88
ENDCHAR
STARTCHAR U+004E
ENCODING 78
SWIDTH 1000 0
DWIDTH 6 0
BBX 5 8 0 1
BITMAP
88
C8
C8
A8
A8
98
98
88
ENDCHAR
STARTCHAR U+004F
ENCODING 79
SWIDTH 1000 0
DWIDTH 6 0
BBX 5 8 0 1
BITMAP
70
88
88
88
88
88
88
70
ENDCHAR
STARTCHAR U+0050
ENCODING 80
SWIDTH 1000 0
DWIDTH 6 0
BBX 5 8 0 1
BITMAP
F0
88
88
88
F0
80
80
80
ENDCHAR
STARTCHAR U+0051
ENCODING 81
SWIDTH 1000 0
DWIDTH 6 0
BBX 5 8 0 1
BITMAP
70
88
88
88
88
A8
90
68
ENDCHAR
STARTCHAR U+0052
ENCODING 82
SWIDTH 1000 0
DWIDTH 6 0
BBX 5 8 0 1
BITMAP
F0
88
88
88
F0
88
88
88
ENDCHAR
STARTCHAR U+0053
ENCODING 83
SWIDTH 1000 0
DWIDTH 6 0
BBX 5 8 0 1
BITMAP
70
88
80
70
08
08
88
70
ENDCHAR
STARTCHAR U+0054
ENCODING 84
SWIDTH 1000 0
DWIDTH 6 0
BBX 5 8 0 1
BITMAP
F8
20
20
20
20
20
20
20
ENDCHAR
STARTCHAR U+0055
ENCODING 85
SWIDTH 1000 0
DWIDTH 6 0
BBX 5 8 0 1
BITMAP
88
88
88
88
88
88
88
70
ENDCHAR
STARTCHAR U+0056
ENCODING 86
SWIDTH 1000 0
DWIDTH 6 0
BBX 5 8 0 1
BITMAP
88
88
88
88
88
50
50
20
ENDCHAR
STARTCHAR U+0057
ENCODING 87
SWIDTH 1000 0
DWIDTH 6 0
BBX 5 8 0 1
BITMAP
88
88
88
88
A8
A8
A8
50
ENDCHAR
STARTCHAR U+0058
ENCODING 88
SWIDTH 1000 0
DWIDTH 6 0
BBX 5 8 0 1
BITMAP
88
88
88
50
20
50
88
88
ENDCHAR
STARTCHAR U+0059
ENCODING 89
SWIDTH 1000 0
DWIDTH 6 0
BBX 5 8 0 1
BITMAP
88
88
50
50
20
20
20
20
ENDCHAR
STARTCHAR U+005A
ENCODING 90
SWIDTH 1000 0
DWIDTH 6 0
BBX 5 8 0 1
BITMAP
F8
08
10
20
40
80
80
F8
ENDCHAR
STARTCHAR U+005B
ENCODING 91
SWIDTH 1000 0
DWIDTH 6 0
BBX 3 8 1 1
BITMAP
E0
80
80
80
80
80
80
E0
ENDCHAR
STARTCHAR U+005C
ENCODING 92
SWIDTH 1000 0
DWIDTH 6 0
BBX 4 8 1 1
BITMAP
80
80
40
40
20
20
10
10
ENDCHAR
STARTCHAR U+005D
ENCODING 93
SWIDTH 1000 0
DWIDTH 6 0
BBX 3 8 1 1
BITMAP
E0
20
20
20
20
20
20
E0
ENDCHAR
STARTCHAR U+005E
ENCODING 94
SWIDTH 1000 0
DWIDTH 6 0
BBX 5 3 0 6
BITMAP
20
50
88
ENDCHAR
STARTCHAR U+005F
ENCODING 95
SWIDTH 1000 0
DWIDTH 6 0
BBX 6 1 0 1
BITMAP
FC
ENDCHAR
STARTCHAR U+0060
ENCODING 96
SWIDTH 1000 0
DWIDTH 6 0
BBX 2 2 1 7
BITMAP
80
40
ENDCHAR
STARTCHAR U+0061
ENCODING 97
SWIDTH 1000 0
DWIDTH 6 0
BBX 5 6 0 1
BITMAP
70
08
78
88
88
70
ENDCHAR
STARTCHAR U+0062
ENCODING 98
SWIDTH 1000 0
DWIDTH 6 0
BBX 5 8 0 1
BITMAP
80
80
80
B0
C8
88
88
F0
ENDCHAR
STARTCHAR U+0063
ENCODING 99
SWIDTH 1000 0
DWIDTH 6 0
BBX 5 6 0 1
BITMAP
70
88
80
80
88
70
ENDCHAR
STARTCHAR U+0064
ENCODING 100
SWIDTH 1000 0
DWIDTH 6 0
BBX 5 8 0 1
BITMAP
08
08
08
78
88
88
88
78
ENDCHAR
STARTCHAR U+0065
ENCODING 101
SWIDTH 1000 0
DWIDTH 6 0
BBX 5 6 0 1
BITMAP
70
88
F8
80
88
70
ENDCHAR
STARTCHAR U+0066
ENCODING 102
SWIDTH 1000 0
DWIDTH 6 0
BBX 4 8 1 0
BITMAP
60
90
80
E0
80
80
80
80
ENDCHAR
STARTCHAR U+0067
ENCODING 103
SWIDTH 1000 0
DWIDTH 6 0
BBX 5 7 0 0
BITMAP
70
88
88
78
08
88
70
ENDCHAR
STARTCHAR U+0068
ENCODING 104
SWIDTH 1000 0
DWIDTH 6 0
BBX 5 8 0 1
BITMAP
80
80
80
F0
88
88
88
88
ENDCHAR
STARTCHAR U+0069
ENCODING 105
SWIDTH 1000 0
DWIDTH 6 0
BBX 1 7 2 1
BITMAP
80
00
80
80
80
80
80
ENDCHAR
STARTCHAR U+006A
ENCODING 106
SWIDTH 1000 0
DWIDTH 6 0
BBX 3 8 0 0
BITMAP
20
00
20
20
20
20
A0
40
ENDCHAR
STARTCHAR U+006B
ENCODING 107
SWIDTH 1000 0
DWIDTH 6 0
BBX 5 7 0 1
BITMAP
80
90
A0
E0
90
88
88
ENDCHAR
STARTCHAR U+006C
ENCODING 108
SWIDTH 1000 0
DWIDTH 6 0
BBX 1 8 2 1
BITMAP
80
80
80
80
80
80
80
80
ENDCHAR
STARTCHAR U+006D
ENCODING 109
SWIDTH 1000 0
DWIDTH 6 0
BBX 5 6 0 1
BITMAP
88
D8
A8
88
88
88
ENDCHAR
STARTCHAR U+006E
ENCODING 110
SWIDTH 1000 0
DWIDTH 6 0
BBX 5 6 0 1
BITMAP
F0
88
88
88
88
88
ENDCHAR
STARTCHAR U+006F
ENCODING 111
SWIDTH 1000 0
DWIDTH 6 0
BBX 5 6 0 1
BITMAP
70
88
88
88
88
70
ENDCHAR
STARTCHAR U+0070
ENCODING 112
SWIDTH 1000 0
DWIDTH 6 0
BBX 5 7 0 0
BITMAP
F0
88
88
88
F0
80
80
ENDCHAR
STARTCHAR U+0071
ENCODING 113
SWIDTH 1000 0
DWIDTH 6 0
BBX 5 7 0 0
BITMAP
78
88
88
88
78
08
08
ENDCHAR
STARTCHAR U+0072
ENCODING 114
SWIDTH 1000 0
DWIDTH 6 0
BBX 5 6 0 1
BITMAP
B8
48
48
40
40
40
ENDCHAR
STARTCHAR U+0073
ENCODING 115
SWIDTH 1000 0
DWIDTH 6 0
BBX 5 6 0 1
BITMAP
70
80
70
08
88
70
ENDCHAR
STARTCHAR U+0074
ENCODING 116
SWIDTH 1000 0
DWIDTH 6 0
BBX 4 7 1 1
BITMAP
40
E0
40
40
40
40
30
ENDCHAR
STARTCHAR U+0075
ENCODING 117
SWIDTH 1000 0
DWIDTH 6 0
BBX 5 6 0 1
BITMAP
88
88
88
88
88
70
ENDCHAR
STARTCHAR U+0076
ENCODING 118
SWIDTH 1000 0
DWIDTH 6 0
BBX 5 6 0 1
BITMAP
88
88
88
88
50
20
ENDCHAR
STARTCHAR U+0077
ENCODING 119
SWIDTH 1000 0
DWIDTH 6 0
BBX 5 6 0 1
BITMAP
88
88
88
88
A8
50
ENDCHAR
STARTCHAR U+0078
ENCODING 120
SWIDTH 1000 0
DWIDTH 6 0
BBX 5 6 0 1
BITMAP
88
50
20
20
50
88
ENDCHAR
STARTCHAR U+0079
ENCODING 121
SWIDTH 1000 0
DWIDTH 6 0
BBX 5 7 0 0
BITMAP
88
88
88
78
08
08
70
ENDCHAR
STARTCHAR U+007A
ENCODING 122
SWIDTH 1000 0
DWIDTH 6 0
BBX 5 6 0 1
BITMAP
F8
08
30
40
80
F8
ENDCHAR
STARTCHAR U+007B
ENCODING 123
SWIDTH 1000 0
DWIDTH 6 0
BBX 4 8 0 1
BITMAP
30
40
40
80
40
40
40
30
ENDCHAR
STARTCHAR U+007C
ENCODING 124
SWIDTH 1000 0
DWIDTH 6 0
BBX 1 9 2 0
BITMAP
80
80
80
80
80
80
80
80
80
ENDCHAR
STARTCHAR U+007D
ENCODING 125
SWIDTH 1000 0
DWIDTH 6 0
BBX 4 8 1 1
BITMAP
C0
20
20
10
20
20
20
C0
ENDCHAR
STARTCHAR U+007E
ENCODING 126
SWIDTH 1000 0
DWIDTH 6 0
BBX 6 2 0 4
BITMAP
64
98
ENDCHAR
STARTCHAR U+00A2
ENCODING 162
SWIDTH 1000 0
DWIDTH 6 0
BBX 5 8 0 0
BITMAP
20
70
A8
A0
A0
A8
70
20
ENDCHAR
STARTCHAR U+00A6
ENCODING 166
SWIDTH 833 0
DWIDTH 5 0
BBX 1 9 2 0
BITMAP
80
80
80
80
00
80
80
80
80
ENDCHAR
STARTCHAR U+00A7
ENCODING 167
SWIDTH 1000 0
DWIDTH 6 0
BBX 4 9 1 0
BITMAP
60
90
80
60
90
60
10
90
60
ENDCHAR
STARTCHAR U+00A9
ENCODING 169
SWIDTH 1000 0
DWIDTH 6 0
BBX 6 7 0 1
BITMAP
78
84
B4
C4
B4
84
78
ENDCHAR
STARTCHAR U+00AA
ENCODING 170
SWIDTH 1000 0
DWIDTH 6 0
BBX 3 5 1 4
BITMAP
E0
20
E0
A0
E0
ENDCHAR
STARTCHAR U+00AB
ENCODING 171
SWIDTH 1000 0
DWIDTH 6 0
BBX 5 5 0 2
BITMAP
28
50
A0
50
28
ENDCHAR
STARTCHAR U+00AC
ENCODING 172
SWIDTH 1000 0
DWIDTH 6 0
BBX 5 3 0 4
BITMAP
F8
08
08
ENDCHAR
STARTCHAR U+00AD
ENCODING 173
SWIDTH 1000 0
DWIDTH 6 0
BBX 1 8 2 0
BITMAP
80
00
80
80
80
80
80
80
ENDCHAR
STARTCHAR U+00AF
ENCODING 175
SWIDTH 1000 0
DWIDTH 6 0
BBX 4 1 1 8
BITMAP
F0
ENDCHAR
STARTCHAR U+00B0
ENCODING 176
SWIDTH 1000 0
DWIDTH 6 0
BBX 4 4 1 5
BITMAP
60
90
90
60
ENDCHAR
STARTCHAR U+00B1
ENCODING 177
SWIDTH 1000 0
DWIDTH 6 0
BBX 5 7 0 1
BITMAP
20
20
F8
20
20
00
F8
ENDCHAR
STARTCHAR U+00B2
ENCODING 178
SWIDTH 1000 0
DWIDTH 6 0
BBX 3 5 1 4
BITMAP
C0
20
40
80
E0
ENDCHAR
STARTCHAR U+00B3
ENCODING 179
SWIDTH 1000 0
DWIDTH 6 0
BBX 3 5 1 4
BITMAP
C0
20
40
20
C0
ENDCHAR
STARTCHAR U+00B4
ENCODING 180
SWIDTH 1000 0
DWIDTH 6 0
BBX 2 2 2 7
BITMAP
40
80
ENDCHAR
STARTCHAR U+00B6
ENCODING 182
SWIDTH 1000 0
DWIDTH 6 0
BBX 5 8 0 1
BITMAP
78
E8
E8
E8
68
28
28
28
ENDCHAR
STARTCHAR U+00B7
ENCODING 183
SWIDTH 1000 0
DWIDTH 6 0
BBX 1 1 2 4
BITMAP
80
ENDCHAR
STARTCHAR U+00B8
ENCODING 184
SWIDTH 1000 0
DWIDTH 6 0
BBX 2 3 2 0
BITMAP
80
40
C0
ENDCHAR
STARTCHAR U+00B9
ENCODING 185
SWIDTH 1000 0
DWIDTH 6 0
BBX 3 5 1 4
BITMAP
40
C0
40
40
E0
ENDCHAR
STARTCHAR U+00BA
ENCODING 186
SWIDTH 1000 0
DWIDTH 6 0
BBX 4 5 1 4
BITMAP
60
90
90
90
60
ENDCHAR
STARTCHAR U+00BB
ENCODING 187
SWIDTH 1000 0
DWIDTH 6 0
BBX 5 5 0 2
BITMAP
A0
50
28
50
A0
ENDCHAR
STARTCHAR U+00BC
ENCODING 188
SWIDTH 1000 0
DWIDTH 6 0
BBX 6 9 0 0
BITMAP
48
C8
50
50
20
24
4C
5C
04
ENDCHAR
STARTCHAR U+00BE
ENCODING 190
SWIDTH 1000 0
DWIDTH 6 0
BBX 6 9 0 0
BITMAP
88
48
D0
50
A0
24
4C
5C
04
ENDCHAR
STARTCHAR U+00BF
ENCODING 191
SWIDTH 1000 0
DWIDTH 6 0
BBX 5 8 0 1
BITMAP
20
00
20
20
40
80
88
70
ENDCHAR
STARTCHAR U+00D7
ENCODING 215
SWIDTH 1000 0
DWIDTH 6 0
BBX 5 5 0 2
BITMAP
88
50
20
50
88
ENDCHAR
STARTCHAR U+00E7
ENCODING 231
SWIDTH 1000 0
DWIDTH 6 0
BBX 4 6 0 0
BITMAP
70
80
80
80
70
10
ENDCHAR
STARTCHAR U+00EC
ENCODING 236
SWIDTH 1000 0
DWIDTH 6 0
BBX 2 8 1 1
BITMAP
80
40
00
40
40
40
40
40
ENDCHAR
STARTCHAR U+00ED
ENCODING 237
SWIDTH 1000 0
DWIDTH 6 0
BBX 2 8 2 1
BITMAP
40
80
00
80
80
80
80
80
ENDCHAR
STARTCHAR U+00EE
ENCODING 238
SWIDTH 1000 0
DWIDTH 6 0
BBX 3 8 1 1
BITMAP
40
A0
00
40
40
40
40
40
ENDCHAR
STARTCHAR U+00EF
ENCODING 239
SWIDTH 1000 0
DWIDTH 6 0
BBX 3 7 1 1
BITMAP
A0
00
40
40
40
40
40
ENDCHAR
STARTCHAR U+00F2
ENCODING 242
SWIDTH 1000 0
DWIDTH 6 0
BBX 5 8 0 1
BITMAP
40
20
70
88
88
88
88
70
ENDCHAR
STARTCHAR U+00F3
ENCODING 243
SWIDTH 1000 0
DWIDTH 6 0
BBX 5 8 0 1
BITMAP
10
20
70
88
88
88
88
70
ENDCHAR
STARTCHAR U+00F6
ENCODING 246
SWIDTH 1000 0
DWIDTH 6 0
BBX 5 8 0 1
BITMAP
50
00
70
88
88
88
88
70
ENDCHAR
STARTCHAR U+00F7
ENCODING 247
SWIDTH 1000 0
DWIDTH 6 0
BBX 5 5 0 2
BITMAP
20
00
F8
00
20
ENDCHAR
STARTCHAR U+00F8
ENCODING 248
SWIDTH 1000 0
DWIDTH 6 0
BBX 6 6 0 1
BITMAP
74
88
98
A8
48
B0
ENDCHAR
STARTCHAR U+00F9
ENCODING 249
SWIDTH 1000 0
DWIDTH 6 0
BBX 5 8 0 1
BITMAP
10
20
88
88
88
88
88
70
ENDCHAR
STARTCHAR U+01DF
ENCODING 479
SWIDTH 0 0
DWIDTH 0 0
BBX 0 0 0 0
BITMAP
ENDCHAR
STARTCHAR U+01FE
ENCODING 510
SWIDTH 1000 0
DWIDTH 6 0
BBX 6 8 0 1
BITMAP
10
20
74
88
98
A8
C8
F0
ENDCHAR
STARTCHAR U+2013
ENCODING 8211
SWIDTH 1000 0
DWIDTH 6 0
BBX 3 1 1 4
BITMAP
E0
ENDCHAR
STARTCHAR U+2014
ENCODING 8212
SWIDTH 1000 0
DWIDTH 6 0
BBX 5 1 0 4
BITMAP
F8
ENDCHAR
STARTCHAR U+2015
ENCODING 8213
SWIDTH 1000 0
DWIDTH 6 0
BBX 4 1 1 4
BITMAP
F0
ENDCHAR
STARTCHAR U+2017
ENCODING 8215
SWIDTH 1000 0
DWIDTH 6 0
BBX 5 3 0 0
BITMAP
F8
00
F8
ENDCHAR
STARTCHAR U+2018
ENCODING 8216
SWIDTH 1000 0
DWIDTH 6 0
BBX 2 3 2 6
BITMAP
80
80
40
ENDCHAR
STARTCHAR U+2019
ENCODING 8217
SWIDTH 1000 0
DWIDTH 6 0
BBX 2 3 1 6
BITMAP
40
40
80
ENDCHAR
STARTCHAR U+201A
ENCODING 8218
SWIDTH 1000 0
DWIDTH 6 0
BBX 2 3 1 0
BITMAP
40
40
80
ENDCHAR
STARTCHAR U+201B
ENCODING 8219
SWIDTH 1000 0
DWIDTH 6 0
BBX 2 3 1 6
BITMAP
40
40
80
ENDCHAR
STARTCHAR U+201C
ENCODING 8220
SWIDTH 1000 0
DWIDTH 6 0
BBX 4 3 1 6
BITMAP
A0
A0
50
ENDCHAR
STARTCHAR U+201D
ENCODING 8221
SWIDTH 1000 0
DWIDTH 6 0
BBX 4 3 0 6
BITMAP
50
50
A0
ENDCHAR
STARTCHAR U+201E
ENCODING 8222
SWIDTH 1000 0
DWIDTH 6 0
BBX 4 3 0 0
BITMAP
50
50
A0
ENDCHAR
STARTCHAR U+2020
ENCODING 8224
SWIDTH 1000 0
DWIDTH 6 0
BBX 5 8 0 1
BITMAP
20
20
F8
20
20
20
20
20
ENDCHAR
STARTCHAR U+2021
ENCODING 8225
SWIDTH 1000 0
DWIDTH 6 0
BBX 5 8 0 1
BITMAP
20
20
F8
20
20
F8
20
20
ENDCHAR
STARTCHAR U+2022
ENCODING 8226
SWIDTH 1000 0
DWIDTH 6 0
BBX 4 4 1 3
BITMAP
60
F0
F0
60
ENDCHAR
STARTCHAR U+2026
ENCODING 8230
SWIDTH 833 0
DWIDTH 5 0
BBX 5 1 0 1
BITMAP
A8
ENDCHAR
STARTCHAR U+203C
ENCODING 8252
SWIDTH 1000 0
DWIDTH 6 0
BBX 3 8 1 1
BITMAP
A0
A0
A0
A0
A0
A0
00
A0
ENDCHAR
STARTCHAR U+203E
ENCODING 8254
SWIDTH 1000 0
DWIDTH 6 0
BBX 4 1 1 8
BITMAP
F0
ENDCHAR
STARTCHAR U+2074
ENCODING 8308
SWIDTH 1000 0
DWIDTH 6 0
BBX 4 5 1 4
BITMAP
60
A0
A0
F0
20
ENDCHAR
STARTCHAR U+2075
ENCODING 8309
SWIDTH 1000 0
DWIDTH 6 0
BBX 3 5 1 4
BITMAP
E0
80
E0
20
E0
ENDCHAR
STARTCHAR U+2076
ENCODING 8310
SWIDTH 1000 0
DWIDTH 6 0
BBX 4 5 1 4
BITMAP
60
80
E0
90
60
ENDCHAR
STARTCHAR U+2077
ENCODING 8311
SWIDTH 1000 0
DWIDTH 6 0
BBX 3 5 1 4
BITMAP
E0
20
20
40
40
ENDCHAR
STARTCHAR U+2078
ENCODING 8312
SWIDTH 1000 0
DWIDTH 6 0
BBX 4 5 1 4
BITMAP
60
90
60
90
60
ENDCHAR
STARTCHAR U+2079
ENCODING 8313
SWIDTH 1000 0
DWIDTH 6 0
BBX 4 5 1 4
BITMAP
60
90
70
10
60
ENDCHAR
STARTCHAR U+207A
ENCODING 8314
SWIDTH 1000 0
DWIDTH 6 0
BBX 5 5 0 4
BITMAP
20
20
F8
20
20
ENDCHAR
STARTCHAR U+207B
ENCODING 8315
SWIDTH 1000 0
DWIDTH 6 0
BBX 5 1 0 6
BITMAP
F8
ENDCHAR
STARTCHAR U+207C
ENCODING 8316
SWIDTH 1000 0
DWIDTH 6 0
BBX 4 3 1 5
BITMAP
F0
00
F0
ENDCHAR
STARTCHAR U+207D
ENCODING 8317
SWIDTH 1000 0
DWIDTH 6 0
BBX 2 5 1 4
BITMAP
40
80
80
80
40
ENDCHAR
STARTCHAR U+207E
ENCODING 8318
SWIDTH 1000 0
DWIDTH 6 0
BBX 1 5 2 4
BITMAP
80
80
80
80
80
ENDCHAR
STARTCHAR U+207F
ENCODING 8319
SWIDTH 1000 0
DWIDTH 6 0
BBX 4 4 1 4
BITMAP
E0
90
90
90
ENDCHAR
STARTCHAR U+2081
ENCODING 8321
SWIDTH 1000 0
DWIDTH 6 0
BBX 3 5 1 0
BITMAP
40
C0
40
40
E0
ENDCHAR
STARTCHAR U+2082
ENCODING 8322
SWIDTH 1000 0
DWIDTH 6 0
BBX 3 5 1 0
BITMAP
C0
20
40
80
E0
ENDCHAR
STARTCHAR U+2083
ENCODING 8323
SWIDTH 1000 0
DWIDTH 6 0
BBX 3 5 1 0
BITMAP
C0
20
40
20
C0
ENDCHAR
STARTCHAR U+2084
ENCODING 8324
SWIDTH 1000 0
DWIDTH 6 0
BBX 4 5 1 0
BITMAP
60
A0
A0
F0
20
ENDCHAR
STARTCHAR U+2085
ENCODING 8325
SWIDTH 1000 0
DWIDTH 6 0
BBX 3 5 1 0
BITMAP
E0
80
E0
20
E0
ENDCHAR
STARTCHAR U+2086
ENCODING 8326
SWIDTH 1000 0
DWIDTH 6 0
BBX 4 5 1 0
BITMAP
60
80
E0
90
60
ENDCHAR
STARTCHAR U+2087
ENCODING 8327
SWIDTH 1000 0
DWIDTH 6 0
BBX 3 5 1 0
BITMAP
E0
20
20
40
40
ENDCHAR
STARTCHAR U+2088
ENCODING 8328
SWIDTH 1000 0
DWIDTH 6 0
BBX 4 5 1 0
BITMAP
60
90
60
90
60
ENDCHAR
STARTCHAR U+2089
ENCODING 8329
SWIDTH 1000 0
DWIDTH 6 0
BBX 4 5 1 0
BITMAP
60
90
70
10
60
ENDCHAR
STARTCHAR U+208A
ENCODING 8330
SWIDTH 1000 0
DWIDTH 6 0
BBX 5 5 0 0
BITMAP
20
20
F8
20
20
ENDCHAR
STARTCHAR U+208B
ENCODING 8331
SWIDTH 1000 0
DWIDTH 6 0
BBX 5 1 0 2
BITMAP
F8
ENDCHAR
STARTCHAR U+208C
ENCODING 8332
SWIDTH 1000 0
DWIDTH 6 0
BBX 4 3 1 1
BITMAP
F0
00
F0
ENDCHAR
STARTCHAR U+208D
ENCODING 8333
SWIDTH 1000 0
DWIDTH 6 0
BBX 2 5 1 0
BITMAP
40
80
80
80
40
ENDCHAR
STARTCHAR U+208E
ENCODING 8334
SWIDTH 1000 0
DWIDTH 6 0
BBX 1 5 2 0
BITMAP
80
80
80
80
80
ENDCHAR
STARTCHAR U+2116
ENCODING 8470
SWIDTH 1000 0
DWIDTH 6 0
BBX 0 0 0 0
BITMAP
ENDCHAR
STARTCHAR U+2122
ENCODING 8482
SWIDTH 1000 0
DWIDTH 6 0
BBX 6 3 0 6
BITMAP
F4
5C
54
ENDCHAR
STARTCHAR U+2126
ENCODING 8486
SWIDTH 1000 0
DWIDTH 6 0
BBX 5 8 0 1
BITMAP
70
88
88
88
88
88
50
D8
ENDCHAR
STARTCHAR U+2162
ENCODING 8546
SWIDTH 1000 0
DWIDTH 6 0
BBX 0 0 0 0
BITMAP
ENDCHAR
STARTCHAR U+2206
ENCODING 8710
SWIDTH 1000 0
DWIDTH 6 0
BBX 5 8 0 1
BITMAP
20
20
50
50
50
88
88
F8
ENDCHAR
STARTCHAR U+220F
ENCODING 8719
SWIDTH 1000 0
DWIDTH 6 0
BBX 5 8 0 1
BITMAP
F8
88
88
88
88
88
88
88
ENDCHAR
STARTCHAR U+2211
ENCODING 8721
SWIDTH 1000 0
DWIDTH 6 0
BBX 5 8 0 1
BITMAP
F8
80
40
30
20
40
80
F8
ENDCHAR
STARTCHAR U+2308
ENCODING 8968
SWIDTH 1000 0
DWIDTH 6 0
BBX 3 5 1 4
BITMAP
E0
80
80
80
80
ENDCHAR
STARTCHAR U+2309
ENCODING 8969
SWIDTH 1000 0
DWIDTH 6 0
BBX 3 5 1 4
BITMAP
E0
20
20
20
20
ENDCHAR
STARTCHAR U+230A
ENCODING 8970
SWIDTH 1000 0
DWIDTH 6 0
BBX 3 5 1 1
BITMAP
80
80
80
80
E0
ENDCHAR
STARTCHAR U+230B
ENCODING 8971
SWIDTH 1000 0
DWIDTH 6 0
BBX 3 5 1 1
BITMAP
20
20
20
20
E0
ENDCHAR
STARTCHAR U+231B
ENCODING 8987
SWIDTH 1000 0
DWIDTH 6 0
BBX 5 8 0 1
BITMAP
F8
F8
F8
70
20
50
88
F8
ENDCHAR
STARTCHAR U+231C
ENCODING 8988
SWIDTH 1000 0
DWIDTH 6 0
BBX 3 3 2 6
BITMAP
E0
80
80
ENDCHAR
STARTCHAR U+231D
ENCODING 8989
SWIDTH 1000 0
DWIDTH 6 0
BBX 3 3 1 6
BITMAP
E0
20
20
ENDCHAR
STARTCHAR U+231E
ENCODING 8990
SWIDTH 1000 0
DWIDTH 6 0
BBX 3 3 2 1
BITMAP
80
80
E0
ENDCHAR
STARTCHAR U+231F
ENCODING 8991
SWIDTH 1000 0
DWIDTH 6 0
BBX 3 3 1 1
BITMAP
20
20
E0
ENDCHAR
STARTCHAR U+23B0
ENCODING 9136
SWIDTH 1000 0
DWIDTH 6 0
BBX 3 8 1 1
BITMAP
20
40
40
40
40
40
40
80
ENDCHAR
STARTCHAR U+23B1
ENCODING 9137
SWIDTH 1000 0
DWIDTH 6 0
BBX 3 8 1 1
BITMAP
80
40
40
40
40
40
40
20
ENDCHAR
STARTCHAR U+23B2
ENCODING 9138
SWIDTH 1000 0
DWIDTH 6 0
BBX 5 8 0 1
BITMAP
F8
80
40
40
20
20
10
10
ENDCHAR
STARTCHAR U+23B3
ENCODING 9139
SWIDTH 1000 0
DWIDTH 6 0
BBX 5 8 0 1
BITMAP
10
10
20
20
40
40
80
F8
ENDCHAR
STARTCHAR U+2500
ENCODING 9472
SWIDTH 1000 0
DWIDTH 6 0
BBX 6 1 0 4
BITMAP
FC
ENDCHAR
STARTCHAR U+2502
ENCODING 9474
SWIDTH 1000 0
DWIDTH 6 0
BBX 1 9 2 0
BITMAP
80
80
80
80
80
80
80
80
80
ENDCHAR
STARTCHAR U+250C
ENCODING 9484
SWIDTH 1000 0
DWIDTH 6 0
BBX 4 5 2 0
BITMAP
F0
80
80
80
80
ENDCHAR
STARTCHAR U+2510
ENCODING 9488
SWIDTH 1000 0
DWIDTH 6 0
BBX 3 5 0 0
BITMAP
E0
20
20
20
20
ENDCHAR
STARTCHAR U+2514
ENCODING 9492
SWIDTH 1000 0
DWIDTH 6 0
BBX 4 5 2 4
BITMAP
80
80
80
80
F0
ENDCHAR
STARTCHAR U+2518
ENCODING 9496
SWIDTH 1000 0
DWIDTH 6 0
BBX 3 5 0 4
BITMAP
20
20
20
20
E0
ENDCHAR
STARTCHAR U+251C
ENCODING 9500
SWIDTH 1000 0
DWIDTH 6 0
BBX 4 9 2 0
BITMAP
80
80
80
80
F0
80
80
80
80
ENDCHAR
STARTCHAR U+2524
ENCODING 9508
SWIDTH 1000 0
DWIDTH 6 0
BBX 3 9 0 0
BITMAP
20
20
20
20
E0
20
20
20
20
ENDCHAR
STARTCHAR U+252C
ENCODING 9516
SWIDTH 1000 0
DWIDTH 6 0
BBX 6 5 0 0
BITMAP
FC
20
20
20
20
ENDCHAR
STARTCHAR U+2534
ENCODING 9524
SWIDTH 1000 0
DWIDTH 6 0
BBX 6 5 0 4
BITMAP
20
20
20
20
FC
ENDCHAR
STARTCHAR U+253C
ENCODING 9532
SWIDTH 1000 0
DWIDTH 6 0
BBX 6 9 0 0
BITMAP
20
20
20
20
FC
20
20
20
20
ENDCHAR
STARTCHAR U+2550
ENCODING 9552
SWIDTH 1000 0
DWIDTH 6 0
BBX 6 3 0 3
BITMAP
FC
00
FC
ENDCHAR
STARTCHAR U+2551
ENCODING 9553
SWIDTH 1000 0
DWIDTH 6 0
BBX 3 9 1 0
BITMAP
A0
A0
A0
A0
A0
A0
A0
A0
A0
ENDCHAR
STARTCHAR U+2552
ENCODING 9554
SWIDTH 1000 0
DWIDTH 6 0
BBX 4 6 2 0
BITMAP
F0
80
F0
80
80
80
ENDCHAR
STARTCHAR U+2553
ENCODING 9555
SWIDTH 1000 0
DWIDTH 6 0
BBX 5 5 1 0
BITMAP
F8
A0
A0
A0
A0
ENDCHAR
STARTCHAR U+2554
ENCODING 9556
SWIDTH 1000 0
DWIDTH 6 0
BBX 5 6 1 0
BITMAP
F8
80
B8
A0
A0
A0
ENDCHAR
STARTCHAR U+2555
ENCODING 9557
SWIDTH 1000 0
DWIDTH 6 0
BBX 3 6 0 0
BITMAP
E0
20
E0
20
20
20
ENDCHAR
STARTCHAR U+2556
ENCODING 9558
SWIDTH 1000 0
DWIDTH 6 0
BBX 4 5 0 0
BITMAP
F0
50
50
50
50
ENDCHAR
STARTCHAR U+2557
ENCODING 9559
SWIDTH 1000 0
DWIDTH 6 0
BBX 4 6 0 0
BITMAP
F0
10
D0
50
50
50
ENDCHAR
STARTCHAR U+2558
ENCODING 9560
SWIDTH 1000 0
DWIDTH 6 0
BBX 4 6 2 3
BITMAP
80
80
80
F0
80
F0
ENDCHAR
STARTCHAR U+2559
ENCODING 9561
SWIDTH 1000 0
DWIDTH 6 0
BBX 5 5 1 4
BITMAP
A0
A0
A0
A0
F8
ENDCHAR
STARTCHAR U+255A
ENCODING 9562
SWIDTH 1000 0
DWIDTH 6 0
BBX 5 6 1 3
BITMAP
A0
A0
A0
B8
80
F8
ENDCHAR
STARTCHAR U+255B
ENCODING 9563
SWIDTH 1000 0
DWIDTH 6 0
BBX 3 6 0 3
BITMAP
20
20
20
E0
20
E0
ENDCHAR
STARTCHAR U+255C
ENCODING 9564
SWIDTH 1000 0
DWIDTH 6 0
BBX 4 5 0 4
BITMAP
50
50
50
50
F0
ENDCHAR
STARTCHAR U+255D
ENCODING 9565
SWIDTH 1000 0
DWIDTH 6 0
BBX 4 6 0 3
BITMAP
50
50
50
D0
10
F0
ENDCHAR
STARTCHAR U+255E
ENCODING 9566
SWIDTH 1000 0
DWIDTH 6 0
BBX 4 9 2 0
BITMAP
80
80
80
F0
80
F0
80
80
80
ENDCHAR
STARTCHAR U+255F
ENCODING 9567
SWIDTH 1000 0
DWIDTH 6 0
BBX 5 9 1 0
BITMAP
A0
A0
A0
A0
B8
A0
A0
A0
A0
ENDCHAR
STARTCHAR U+2560
ENCODING 9568
SWIDTH 1000 0
DWIDTH 6 0
BBX 5 9 1 0
BITMAP
A0
A0
A0
B8
80
B8
A0
A0
A0
ENDCHAR
STARTCHAR U+2561
ENCODING 9569
SWIDTH 1000 0
DWIDTH 6 0
BBX 3 9 0 0
BITMAP
20
20
20
E0
20
E0
20
20
20
ENDCHAR
STARTCHAR U+2562
ENCODING 9570
SWIDTH 1000 0
DWIDTH 6 0
BBX 4 9 0 0
BITMAP
50
50
50
50
D0
50
50
50
50
ENDCHAR
STARTCHAR U+2563
ENCODING 9571
SWIDTH 1000 0
DWIDTH 6 0
BBX 4 9 0 0
BITMAP
50
50
50
D0
10
D0
50
50
50
ENDCHAR
STARTCHAR U+2564
ENCODING 9572
SWIDTH 1000 0
DWIDTH 6 0
BBX 6 6 0 0
BITMAP
FC
00
FC
20
20
20
ENDCHAR
STARTCHAR U+2565
ENCODING 9573
SWIDTH 1000 0
DWIDTH 6 0
BBX 6 5 0 0
BITMAP
FC
50
50
50
50
ENDCHAR
STARTCHAR U+2566
ENCODING 9574
SWIDTH 1000 0
DWIDTH 6 0
BBX 6 6 0 0
BITMAP
FC
00
DC
50
50
50
ENDCHAR
STARTCHAR U+2567
ENCODING 9575
SWIDTH 1000 0
DWIDTH 6 0
BBX 6 6 0 3
BITMAP
20
20
20
FC
00
FC
ENDCHAR
STARTCHAR U+2568
ENCODING 9576
SWIDTH 1000 0
DWIDTH 6 0
BBX 6 5 0 4
BITMAP
50
50
50
50
FC
ENDCHAR
STARTCHAR U+2569
ENCODING 9577
SWIDTH 1000 0
DWIDTH 6 0
BBX 6 6 0 3
BITMAP
50
50
50
DC
00
FC
ENDCHAR
STARTCHAR U+256A
ENCODING 9578
SWIDTH 1000 0
DWIDTH 6 0
BBX 6 9 0 0
BITMAP
20
20
20
FC
20
FC
20
20
20
ENDCHAR
STARTCHAR U+256B
ENCODING 9579
SWIDTH 1000 0
DWIDTH 6 0
BBX 6 9 0 0
BITMAP
50
50
50
50
FC
50
50
50
50
ENDCHAR
STARTCHAR U+256C
ENCODING 9580
SWIDTH 1000 0
DWIDTH 6 0
BBX 6 9 0 0
BITMAP
50
50
50
DC
00
DC
50
50
50
ENDCHAR
STARTCHAR U+25D0
ENCODING 9680
SWIDTH 1000 0
DWIDTH 6 0
BBX 5 6 0 2
BITMAP
70
E8
E8
E8
E8
70
ENDCHAR
STARTCHAR U+25D1
ENCODING 9681
SWIDTH 1000 0
DWIDTH 6 0
BBX 5 6 0 2
BITMAP
70
B8
B8
B8
B8
70
ENDCHAR
STARTCHAR U+25D2
ENCODING 9682
SWIDTH 1000 0
DWIDTH 6 0
BBX 5 6 0 2
BITMAP
70
88
88
F8
F8
70
ENDCHAR
STARTCHAR U+25D3
ENCODING 9683
SWIDTH 1000 0
DWIDTH 6 0
BBX 5 6 0 2
BITMAP
70
F8
F8
88
88
70
ENDCHAR
STARTCHAR U+25ED
ENCODING 9709
SWIDTH 1000 0
DWIDTH 6 0
BBX 5 8 0 1
BITMAP
20
20
50
50
50
C8
C8
F8
ENDCHAR
STARTCHAR U+25EE
ENCODING 9710
SWIDTH 1000 0
DWIDTH 6 0
BBX 5 8 0 1
BITMAP
20
20
50
50
50
98
98
F8
ENDCHAR
STARTCHAR U+2606
ENCODING 9734
SWIDTH 1000 0
DWIDTH 6 0
BBX 0 0 0 0
BITMAP
ENDCHAR
STARTCHAR U+263D
ENCODING 9789
SWIDTH 1000 0
DWIDTH 6 0
BBX 5 8 0 1
BITMAP
E0
50
28
28
28
28
50
E0
ENDCHAR
STARTCHAR U+263E
ENCODING 9790
SWIDTH 1000 0
DWIDTH 6 0
BBX 5 8 0 1
BITMAP
38
50
A0
A0
A0
A0
50
38
ENDCHAR
STARTCHAR U+2640
ENCODING 9792
SWIDTH 1000 0
DWIDTH 6 0
BBX 5 8 0 1
BITMAP
70
88
88
88
70
20
70
20
ENDCHAR
STARTCHAR U+2642
ENCODING 9794
SWIDTH 1000 0
DWIDTH 6 0
BBX 6 7 0 1
BITMAP
1C
0C
74
88
88
88
70
ENDCHAR
STARTCHAR U+2660
ENCODING 9824
SWIDTH 1000 0
DWIDTH 6 0
BBX 5 6 0 1
BITMAP
70
70
F8
D8
20
70
ENDCHAR
STARTCHAR U+2663
ENCODING 9827
SWIDTH 1000 0
DWIDTH 6 0
BBX 5 7 0 1
BITMAP
20
70
F8
F8
F8
20
F8
ENDCHAR
STARTCHAR U+2665
ENCODING 9829
SWIDTH 1000 0
DWIDTH 6 0
BBX 5 6 0 1
BITMAP
50
F8
F8
F8
70
20
ENDCHAR
STARTCHAR U+2666
ENCODING 9830
SWIDTH 1000 0
DWIDTH 6 0
BBX 5 6 0 1
BITMAP
20
70
F8
F8
70
20
ENDCHAR
STARTCHAR U+266A
ENCODING 9834
SWIDTH 1000 0
DWIDTH 6 0
BBX 3 7 1 1
BITMAP
60
40
40
40
40
C0
C0
ENDCHAR
STARTCHAR U+266B
ENCODING 9835
SWIDTH 1000 0
DWIDTH 6 0
BBX 5 7 0 1
BITMAP
78
48
48
48
48
D8
D8
ENDCHAR
STARTCHAR U+2693
ENCODING 9875
SWIDTH 1000 0
DWIDTH 6 0
BBX 5 7 0 1
BITMAP
20
70
20
20
20
A8
70
ENDCHAR
STARTCHAR U+26A0
ENCODING 9888
SWIDTH 1000 0
DWIDTH 6 0
BBX 0 0 0 0
BITMAP
ENDCHAR
STARTCHAR U+2B16
ENCODING 11030
SWIDTH 1000 0
DWIDTH 6 0
BBX 5 6 0 1
BITMAP
20
70
E8
E8
70
20
ENDCHAR
STARTCHAR U+2B17
ENCODING 11031
SWIDTH 1000 0
DWIDTH 6 0
BBX 5 6 0 1
BITMAP
20
70
B8
B8
70
20
ENDCHAR
STARTCHAR U+2B18
ENCODING 11032
SWIDTH 1000 0
DWIDTH 6 0
BBX 5 6 0 1
BITMAP
20
70
F8
88
50
20
ENDCHAR
STARTCHAR U+2B19
ENCODING 11033
SWIDTH 1000 0
DWIDTH 6 0
BBX 5 6 0 1
BITMAP
20
50
88
F8
70
20
ENDCHAR
STARTCHAR U+2B66
ENCODING 11110
SWIDTH 1000 0
DWIDTH 6 0
BBX 6 6 0 2
BITMAP
E0
C0
A0
10
08
04
ENDCHAR
STARTCHAR U+2B67
ENCODING 11111
SWIDTH 1000 0
DWIDTH 6 0
BBX 6 6 0 2
BITMAP
1C
0C
14
20
40
80
ENDCHAR
STARTCHAR U+2B68
ENCODING 11112
SWIDTH 1000 0
DWIDTH 6 0
BBX 6 6 0 2
BITMAP
80
40
20
14
0C
1C
ENDCHAR
STARTCHAR U+2B69
ENCODING 11113
SWIDTH 1000 0
DWIDTH 6 0
BBX 6 6 0 2
BITMAP
04
08
10
A0
C0
E0
ENDCHAR
STARTCHAR U+2BA0
ENCODING 11168
SWIDTH 1000 0
DWIDTH 6 0
BBX 5 4 0 2
BITMAP
08
48
F8
40
ENDCHAR
STARTCHAR U+2E1E
ENCODING 11806
SWIDTH 1000 0
DWIDTH 6 0
BBX 6 5 0 4
BITMAP
30
30
00
64
98
ENDCHAR
STARTCHAR U+2E1F
ENCODING 11807
SWIDTH 1000 0
DWIDTH 6 0
BBX 6 5 0 1
BITMAP
64
98
00
30
30
ENDCHAR
ENDFONT
