STARTFONT 2.1
FONT -Untitled-Regular-R-Regular--8-8-75-75-c-80-iso10646-1
SIZE 8 75 75
FONTBOUNDINGBOX 4 7 0 -1
STARTPROPERTIES 9
FAMILY_NAME "Untitled"
WEIGHT_NAME "Regular"
FONT_VERSION "Version 1.0"
FOUNDRY "Made with Bits'n'Picas by Kreative Software"
FONT_ASCENT 6
FONT_DESCENT 2
POINT_SIZE 8
X_HEIGHT 2
CAP_HEIGHT 2
ENDPROPERTIES
CHARS 13
STARTCHAR U+0041
ENCODING 65
SWIDTH 1250 0
DWIDTH 5 0
BBX 4 7 0 -1
BITMAP
60
90
90
F0
90
90
90
ENDCHAR
STARTCHAR U+0042
ENCODING 66
SWIDTH 1250 0
DWIDTH 5 0
BBX 4 7 0 -1
BITMAP
E0
90
90
E0
90
90
E0
ENDCHAR
STARTCHAR U+0043
ENCODING 67
SWIDTH 1250 0
DWIDTH 5 0
BBX 4 7 0 -1
BITMAP
70
80
80
80
80
80
70
ENDCHAR
STARTCHAR U+0044
ENCODING 68
SWIDTH 1250 0
DWIDTH 5 0
BBX 4 7 0 -1
BITMAP
E0
90
90
90
90
90
E0
ENDCHAR
STARTCHAR U+0045
ENCODING 69
SWIDTH 1250 0
DWIDTH 5 0
BBX 4 7 0 -1
BITMAP
F0
80
80
F0
80
80
F0
ENDCHAR
STARTCHAR U+0046
ENCODING 70
SWIDTH 1250 0
DWIDTH 5 0
BBX 4 7 0 -1
BITMAP
F0
80
80
E0
80
80
80
ENDCHAR
STARTCHAR U+0047
ENCODING 71
SWIDTH 1250 0
DWIDTH 5 0
BBX 4 7 0 -1
BITMAP
60
90
80
B0
90
90
60
ENDCHAR
STARTCHAR U+0048
ENCODING 72
SWIDTH 1250 0
DWIDTH 5 0
BBX 4 7 0 -1
BITMAP
90
90
90
F0
90
90
90
ENDCHAR
STARTCHAR U+0049
ENCODING 73
SWIDTH 1250 0
DWIDTH 5 0
BBX 3 7 1 -1
BITMAP
E0
40
40
40
40
40
E0
ENDCHAR
STARTCHAR U+004A
ENCODING 74
SWIDTH 1250 0
DWIDTH 5 0
BBX 4 7 0 -1
BITMAP
70
10
10
10
10
90
60
ENDCHAR
STARTCHAR U+004B
ENCODING 75
SWIDTH 1250 0
DWIDTH 5 0
BBX 4 7 0 -1
BITMAP
90
90
A0
C0
A0
90
90
ENDCHAR
STARTCHAR U+004C
ENCODING 76
SWIDTH 1250 0
DWIDTH 5 0
BBX 4 7 0 -1
BITMAP
80
80
80
80
80
80
F0
ENDCHAR
STARTCHAR U+004D
ENCODING 77
SWIDTH 1250 0
DWIDTH 5 0
BBX 4 7 0 -1
BITMAP
90
F0
90
90
90
90
90
ENDCHAR
ENDFONT
